<svg width="43" height="38" viewBox="0 0 43 38" fill="none" xmlns="http://www.w3.org/2000/svg">
<path d="M41.1621 7.74418C40.5077 6.22871 39.5639 4.85542 38.3838 3.70121C37.2028 2.54352 35.8104 1.62353 34.2822 0.991246C32.6977 0.332959 30.9981 -0.00396599 29.2822 3.52234e-05C26.875 3.52234e-05 24.5264 0.659215 22.4853 1.90433C21.9971 2.20218 21.5332 2.52933 21.0937 2.88578C20.6543 2.52933 20.1904 2.20218 19.7021 1.90433C17.6611 0.659215 15.3125 3.52234e-05 12.9053 3.52234e-05C11.1719 3.52234e-05 9.49219 0.332067 7.90527 0.991246C6.37207 1.62601 4.99023 2.5391 3.80371 3.70121C2.62201 4.85412 1.67807 6.22773 1.02539 7.74418C0.34668 9.32132 0 10.9961 0 12.7198C0 14.3457 0.332031 16.0401 0.991211 17.7637C1.54297 19.2041 2.33398 20.6983 3.34473 22.2071C4.94629 24.5948 7.14844 27.085 9.88281 29.6094C14.4141 33.794 18.9014 36.6846 19.0918 36.8018L20.249 37.544C20.7617 37.8711 21.4209 37.8711 21.9336 37.544L23.0908 36.8018C23.2812 36.6797 27.7637 33.794 32.2998 29.6094C35.0342 27.085 37.2363 24.5948 38.8379 22.2071C39.8486 20.6983 40.6445 19.2041 41.1914 17.7637C41.8506 16.0401 42.1826 14.3457 42.1826 12.7198C42.1875 10.9961 41.8408 9.32132 41.1621 7.74418ZM21.0937 33.6817C21.0937 33.6817 3.71094 22.544 3.71094 12.7198C3.71094 7.74418 7.82715 3.71097 12.9053 3.71097C16.4746 3.71097 19.5703 5.70316 21.0937 8.61332C22.6172 5.70316 25.7129 3.71097 29.2822 3.71097C34.3603 3.71097 38.4766 7.74418 38.4766 12.7198C38.4766 22.544 21.0937 33.6817 21.0937 33.6817Z" fill="#69B0B5"/>
</svg>
