<svg width="34" height="31" viewBox="0 0 34 31" fill="none" xmlns="http://www.w3.org/2000/svg">
<path d="M19.125 11.4581C19.125 11.0804 19.2496 10.7112 19.4831 10.3971C19.7166 10.0831 20.0485 9.83833 20.4368 9.69379C20.8251 9.54925 21.2524 9.51144 21.6646 9.58512C22.0768 9.65881 22.4554 9.84068 22.7526 10.1078C23.0498 10.3748 23.2522 10.7151 23.3342 11.0855C23.4162 11.456 23.3741 11.8399 23.2132 12.1889C23.0524 12.5378 22.78 12.8361 22.4306 13.0459C22.0811 13.2557 21.6703 13.3677 21.25 13.3677C20.6864 13.3677 20.1459 13.1665 19.7474 12.8084C19.3489 12.4503 19.125 11.9646 19.125 11.4581ZM31.3438 6.68394V23.8708C31.3438 24.5039 31.0639 25.1111 30.5658 25.5588C30.0676 26.0064 29.392 26.2579 28.6875 26.2579H5.3125C4.60802 26.2579 3.93239 26.0064 3.43425 25.5588C2.9361 25.1111 2.65625 24.5039 2.65625 23.8708V6.68394C2.65625 6.05085 2.9361 5.44369 3.43425 4.99603C3.93239 4.54837 4.60802 4.29688 5.3125 4.29688H28.6875C29.392 4.29688 30.0676 4.54837 30.5658 4.99603C31.0639 5.44369 31.3438 6.05085 31.3438 6.68394ZM5.84375 7.16136V16.6762L10.3408 12.6349C10.8389 12.1874 11.5144 11.936 12.2188 11.936C12.9231 11.936 13.5986 12.1874 14.0967 12.6349L19.5646 17.5451L21.8463 15.4958C22.3444 15.0483 23.02 14.7969 23.7243 14.7969C24.4286 14.7969 25.1041 15.0483 25.6023 15.4958L28.1562 17.7946V7.16136H5.84375ZM5.84375 23.3934H21.5608L12.2188 14.9981L5.84375 20.7271V23.3934ZM28.1562 23.3934V21.8418L23.7243 17.859L21.8184 19.5741L26.0684 23.3934H28.1562Z" fill="white"/>
</svg>
