<svg width="202" height="122" viewBox="0 0 202 122" fill="none" xmlns="http://www.w3.org/2000/svg">
<g filter="url(#filter0_d_100_197)">
<mask id="path-1-outside-1_100_197" maskUnits="userSpaceOnUse" x="5" y="7" width="191" height="104" fill="black">
<rect fill="white" x="5" y="7" width="191" height="104"/>
<path d="M51.65 29.15V35.55H8.45V29.15H16.4V25.2C12.5 23.7 10.55 21.45 10.55 18.45C10.55 15.5167 12.3 13.35 15.8 11.95C19.3333 10.5167 24.0833 9.8 30.05 9.8C36.0167 9.8 40.75 10.5167 44.25 11.95C47.7833 13.35 49.55 15.5167 49.55 18.45C49.55 21.45 47.6 23.7 43.7 25.2V29.15H51.65ZM30.05 16.1C26.75 16.1 24.1667 16.3 22.3 16.7C20.4667 17.1 19.55 17.6833 19.55 18.45C19.55 19.25 20.4667 19.85 22.3 20.25C24.1333 20.6167 26.7167 20.8 30.05 20.8C33.3833 20.8 35.9667 20.6167 37.8 20.25C39.6333 19.85 40.55 19.25 40.55 18.45C40.55 17.6833 39.6167 17.1 37.75 16.7C35.9167 16.3 33.35 16.1 30.05 16.1ZM24.75 29.15H35.35V26.9C33.8833 27.0333 32.1167 27.1 30.05 27.1C27.9833 27.1 26.2167 27.0333 24.75 26.9V29.15ZM30.05 37C43.05 37 49.55 39.7833 49.55 45.35C49.55 50.9167 43.05 53.7 30.05 53.7C17.05 53.7 10.55 50.9167 10.55 45.35C10.55 39.7833 17.05 37 30.05 37ZM30.05 47.4C37.05 47.4 40.55 46.7167 40.55 45.35C40.55 43.9833 37.05 43.3 30.05 43.3C23.05 43.3 19.55 43.9833 19.55 45.35C19.55 46.7167 23.05 47.4 30.05 47.4ZM97.8457 42.1H89.3957V10.5H97.8457V42.1ZM70.4457 10.55C73.2124 10.55 75.6457 11.0833 77.7457 12.15C79.879 13.2167 81.529 14.7167 82.6957 16.65C83.8957 18.5833 84.4957 20.8167 84.4957 23.35C84.4957 25.9167 83.8957 28.1667 82.6957 30.1C81.529 32.0333 79.879 33.5333 77.7457 34.6C75.6457 35.6333 73.2124 36.15 70.4457 36.15C67.679 36.15 65.229 35.6333 63.0957 34.6C60.9957 33.5333 59.3457 32.0333 58.1457 30.1C56.979 28.1667 56.3957 25.9167 56.3957 23.35C56.3957 20.8167 56.979 18.5833 58.1457 16.65C59.3457 14.7167 60.9957 13.2167 63.0957 12.15C65.229 11.0833 67.679 10.55 70.4457 10.55ZM70.4457 17.6C68.779 17.6 67.4124 18.1167 66.3457 19.15C65.3124 20.15 64.7957 21.55 64.7957 23.35C64.7957 25.15 65.3124 26.5667 66.3457 27.6C67.4124 28.6 68.779 29.1 70.4457 29.1C72.1124 29.1 73.4624 28.6 74.4957 27.6C75.5624 26.5667 76.0957 25.15 76.0957 23.35C76.0957 21.55 75.5624 20.15 74.4957 19.15C73.4624 18.1167 72.1124 17.6 70.4457 17.6ZM68.7457 45.6H98.4457V53.2H60.1457V38.25H68.7457V45.6ZM121.431 17.44C126.151 17.44 129.938 18.1067 132.791 19.44C135.671 20.7733 137.111 22.72 137.111 25.28C137.111 27.84 135.671 29.7867 132.791 31.12C129.938 32.4533 126.151 33.12 121.431 33.12C116.711 33.12 112.911 32.4533 110.031 31.12C107.178 29.7867 105.751 27.84 105.751 25.28C105.751 22.72 107.178 20.7733 110.031 19.44C112.911 18.1067 116.711 17.44 121.431 17.44ZM121.431 22.68C118.845 22.68 116.778 22.92 115.231 23.4C113.711 23.8533 112.951 24.48 112.951 25.28C112.951 26.1067 113.711 26.7467 115.231 27.2C116.751 27.6533 118.818 27.88 121.431 27.88C124.045 27.88 126.111 27.6533 127.631 27.2C129.151 26.7467 129.911 26.1067 129.911 25.28C129.911 24.48 129.138 23.8533 127.591 23.4C126.071 22.92 124.018 22.68 121.431 22.68ZM138.711 40.28H104.151V34.72H138.711V40.28ZM113.031 46.52H137.111V52.16H106.151V42.04H113.031V46.52ZM25.89 80.86C25.74 83.41 25.47 85.765 25.08 87.925L36.015 101.11L30.12 105.79L22.425 95.98C20.865 99.13 18.9 101.56 16.53 103.27C14.16 104.98 11.535 105.85 8.655 105.88V98.41C10.485 98.23 12.09 97.39 13.47 95.89C14.85 94.39 15.945 92.35 16.755 89.77C17.595 87.16 18.09 84.19 18.24 80.86H9.51V73.84H18.195V69.115H25.98V73.84H34.17V80.86H25.89ZM45.555 69.25V107.68H37.95V91.345H31.515V84.145H37.95V69.25H45.555ZM70.9311 68.62C76.3011 68.62 80.5611 69.265 83.7111 70.555C86.8911 71.845 88.4811 73.81 88.4811 76.45C88.4811 79.09 86.8911 81.055 83.7111 82.345C80.5611 83.635 76.3011 84.28 70.9311 84.28C65.5611 84.28 61.2861 83.635 58.1061 82.345C54.9561 81.055 53.3811 79.09 53.3811 76.45C53.3811 73.81 54.9561 71.845 58.1061 70.555C61.2861 69.265 65.5611 68.62 70.9311 68.62ZM70.9311 74.335C67.9611 74.335 65.6361 74.515 63.9561 74.875C62.3061 75.235 61.4811 75.76 61.4811 76.45C61.4811 77.17 62.3061 77.71 63.9561 78.07C65.6061 78.4 67.9311 78.565 70.9311 78.565C73.9311 78.565 76.2561 78.4 77.9061 78.07C79.5561 77.71 80.3811 77.17 80.3811 76.45C80.3811 75.76 79.5411 75.235 77.8611 74.875C76.2111 74.515 73.9011 74.335 70.9311 74.335ZM90.3711 91.525H51.4911V85.675H90.3711V91.525ZM88.1211 107.68H53.7411V93.505H88.1211V107.68ZM80.6061 101.965V99.22H61.2561V101.965H80.6061ZM127.572 107.16H120.812V73H127.572V107.16ZM106.292 73.4C109.626 73.4 112.239 74.76 114.132 77.48C116.052 80.1733 117.012 84.24 117.012 89.68C117.012 95.12 116.052 99.2 114.132 101.92C112.239 104.613 109.626 105.96 106.292 105.96C102.959 105.96 100.332 104.613 98.4123 101.92C96.4923 99.2 95.5323 95.12 95.5323 89.68C95.5323 84.24 96.4923 80.1733 98.4123 77.48C100.332 74.76 102.959 73.4 106.292 73.4ZM106.292 79.6C103.572 79.6 102.212 82.96 102.212 89.68C102.212 96.4 103.572 99.76 106.292 99.76C108.986 99.76 110.332 96.4 110.332 89.68C110.332 86.1067 109.959 83.5333 109.212 81.96C108.492 80.3867 107.519 79.6 106.292 79.6ZM166.049 73V107.16H159.289V73H166.049ZM149.089 80C149.009 83.0667 148.729 85.9067 148.249 88.52L158.169 101.4L152.809 105.4L145.929 96.04C144.542 99.08 142.782 101.413 140.649 103.04C138.542 104.693 136.195 105.533 133.609 105.56V98.76C135.262 98.5733 136.729 97.6933 138.009 96.12C139.289 94.52 140.302 92.3333 141.049 89.56C141.795 86.7867 142.209 83.6 142.289 80H134.569V73.8H156.409V80H149.089ZM178.805 95.8C178.805 93.8267 179.099 92.2133 179.685 90.96C180.299 89.7067 181.339 88.5333 182.805 87.44C184.112 86.4267 185.045 85.5867 185.605 84.92C186.165 84.2267 186.445 83.4267 186.445 82.52C186.445 81.5067 186.099 80.72 185.405 80.16C184.712 79.5733 183.739 79.28 182.485 79.28C181.205 79.28 180.192 79.6667 179.445 80.44C178.725 81.1867 178.365 82.1067 178.365 83.2H171.405C171.405 81.3067 171.872 79.6 172.805 78.08C173.765 76.5333 175.072 75.32 176.725 74.44C178.405 73.56 180.312 73.12 182.445 73.12C184.712 73.12 186.659 73.52 188.285 74.32C189.912 75.12 191.152 76.24 192.005 77.68C192.859 79.0933 193.285 80.7067 193.285 82.52C193.285 85.32 191.939 87.76 189.245 89.84C187.779 90.9867 186.765 91.9867 186.205 92.84C185.672 93.6933 185.405 94.68 185.405 95.8H178.805ZM182.325 107.16C181.099 107.16 180.085 106.76 179.285 105.96C178.485 105.187 178.085 104.187 178.085 102.96C178.085 101.733 178.485 100.72 179.285 99.92C180.085 99.12 181.099 98.72 182.325 98.72C183.552 98.72 184.565 99.12 185.365 99.92C186.165 100.72 186.565 101.733 186.565 102.96C186.565 104.187 186.165 105.187 185.365 105.96C184.565 106.76 183.552 107.16 182.325 107.16Z"/>
</mask>
<path d="M51.65 29.15V35.55H8.45V29.15H16.4V25.2C12.5 23.7 10.55 21.45 10.55 18.45C10.55 15.5167 12.3 13.35 15.8 11.95C19.3333 10.5167 24.0833 9.8 30.05 9.8C36.0167 9.8 40.75 10.5167 44.25 11.95C47.7833 13.35 49.55 15.5167 49.55 18.45C49.55 21.45 47.6 23.7 43.7 25.2V29.15H51.65ZM30.05 16.1C26.75 16.1 24.1667 16.3 22.3 16.7C20.4667 17.1 19.55 17.6833 19.55 18.45C19.55 19.25 20.4667 19.85 22.3 20.25C24.1333 20.6167 26.7167 20.8 30.05 20.8C33.3833 20.8 35.9667 20.6167 37.8 20.25C39.6333 19.85 40.55 19.25 40.55 18.45C40.55 17.6833 39.6167 17.1 37.75 16.7C35.9167 16.3 33.35 16.1 30.05 16.1ZM24.75 29.15H35.35V26.9C33.8833 27.0333 32.1167 27.1 30.05 27.1C27.9833 27.1 26.2167 27.0333 24.75 26.9V29.15ZM30.05 37C43.05 37 49.55 39.7833 49.55 45.35C49.55 50.9167 43.05 53.7 30.05 53.7C17.05 53.7 10.55 50.9167 10.55 45.35C10.55 39.7833 17.05 37 30.05 37ZM30.05 47.4C37.05 47.4 40.55 46.7167 40.55 45.35C40.55 43.9833 37.05 43.3 30.05 43.3C23.05 43.3 19.55 43.9833 19.55 45.35C19.55 46.7167 23.05 47.4 30.05 47.4ZM97.8457 42.1H89.3957V10.5H97.8457V42.1ZM70.4457 10.55C73.2124 10.55 75.6457 11.0833 77.7457 12.15C79.879 13.2167 81.529 14.7167 82.6957 16.65C83.8957 18.5833 84.4957 20.8167 84.4957 23.35C84.4957 25.9167 83.8957 28.1667 82.6957 30.1C81.529 32.0333 79.879 33.5333 77.7457 34.6C75.6457 35.6333 73.2124 36.15 70.4457 36.15C67.679 36.15 65.229 35.6333 63.0957 34.6C60.9957 33.5333 59.3457 32.0333 58.1457 30.1C56.979 28.1667 56.3957 25.9167 56.3957 23.35C56.3957 20.8167 56.979 18.5833 58.1457 16.65C59.3457 14.7167 60.9957 13.2167 63.0957 12.15C65.229 11.0833 67.679 10.55 70.4457 10.55ZM70.4457 17.6C68.779 17.6 67.4124 18.1167 66.3457 19.15C65.3124 20.15 64.7957 21.55 64.7957 23.35C64.7957 25.15 65.3124 26.5667 66.3457 27.6C67.4124 28.6 68.779 29.1 70.4457 29.1C72.1124 29.1 73.4624 28.6 74.4957 27.6C75.5624 26.5667 76.0957 25.15 76.0957 23.35C76.0957 21.55 75.5624 20.15 74.4957 19.15C73.4624 18.1167 72.1124 17.6 70.4457 17.6ZM68.7457 45.6H98.4457V53.2H60.1457V38.25H68.7457V45.6ZM121.431 17.44C126.151 17.44 129.938 18.1067 132.791 19.44C135.671 20.7733 137.111 22.72 137.111 25.28C137.111 27.84 135.671 29.7867 132.791 31.12C129.938 32.4533 126.151 33.12 121.431 33.12C116.711 33.12 112.911 32.4533 110.031 31.12C107.178 29.7867 105.751 27.84 105.751 25.28C105.751 22.72 107.178 20.7733 110.031 19.44C112.911 18.1067 116.711 17.44 121.431 17.44ZM121.431 22.68C118.845 22.68 116.778 22.92 115.231 23.4C113.711 23.8533 112.951 24.48 112.951 25.28C112.951 26.1067 113.711 26.7467 115.231 27.2C116.751 27.6533 118.818 27.88 121.431 27.88C124.045 27.88 126.111 27.6533 127.631 27.2C129.151 26.7467 129.911 26.1067 129.911 25.28C129.911 24.48 129.138 23.8533 127.591 23.4C126.071 22.92 124.018 22.68 121.431 22.68ZM138.711 40.28H104.151V34.72H138.711V40.28ZM113.031 46.52H137.111V52.16H106.151V42.04H113.031V46.52ZM25.89 80.86C25.74 83.41 25.47 85.765 25.08 87.925L36.015 101.11L30.12 105.79L22.425 95.98C20.865 99.13 18.9 101.56 16.53 103.27C14.16 104.98 11.535 105.85 8.655 105.88V98.41C10.485 98.23 12.09 97.39 13.47 95.89C14.85 94.39 15.945 92.35 16.755 89.77C17.595 87.16 18.09 84.19 18.24 80.86H9.51V73.84H18.195V69.115H25.98V73.84H34.17V80.86H25.89ZM45.555 69.25V107.68H37.95V91.345H31.515V84.145H37.95V69.25H45.555ZM70.9311 68.62C76.3011 68.62 80.5611 69.265 83.7111 70.555C86.8911 71.845 88.4811 73.81 88.4811 76.45C88.4811 79.09 86.8911 81.055 83.7111 82.345C80.5611 83.635 76.3011 84.28 70.9311 84.28C65.5611 84.28 61.2861 83.635 58.1061 82.345C54.9561 81.055 53.3811 79.09 53.3811 76.45C53.3811 73.81 54.9561 71.845 58.1061 70.555C61.2861 69.265 65.5611 68.62 70.9311 68.62ZM70.9311 74.335C67.9611 74.335 65.6361 74.515 63.9561 74.875C62.3061 75.235 61.4811 75.76 61.4811 76.45C61.4811 77.17 62.3061 77.71 63.9561 78.07C65.6061 78.4 67.9311 78.565 70.9311 78.565C73.9311 78.565 76.2561 78.4 77.9061 78.07C79.5561 77.71 80.3811 77.17 80.3811 76.45C80.3811 75.76 79.5411 75.235 77.8611 74.875C76.2111 74.515 73.9011 74.335 70.9311 74.335ZM90.3711 91.525H51.4911V85.675H90.3711V91.525ZM88.1211 107.68H53.7411V93.505H88.1211V107.68ZM80.6061 101.965V99.22H61.2561V101.965H80.6061ZM127.572 107.16H120.812V73H127.572V107.16ZM106.292 73.4C109.626 73.4 112.239 74.76 114.132 77.48C116.052 80.1733 117.012 84.24 117.012 89.68C117.012 95.12 116.052 99.2 114.132 101.92C112.239 104.613 109.626 105.96 106.292 105.96C102.959 105.96 100.332 104.613 98.4123 101.92C96.4923 99.2 95.5323 95.12 95.5323 89.68C95.5323 84.24 96.4923 80.1733 98.4123 77.48C100.332 74.76 102.959 73.4 106.292 73.4ZM106.292 79.6C103.572 79.6 102.212 82.96 102.212 89.68C102.212 96.4 103.572 99.76 106.292 99.76C108.986 99.76 110.332 96.4 110.332 89.68C110.332 86.1067 109.959 83.5333 109.212 81.96C108.492 80.3867 107.519 79.6 106.292 79.6ZM166.049 73V107.16H159.289V73H166.049ZM149.089 80C149.009 83.0667 148.729 85.9067 148.249 88.52L158.169 101.4L152.809 105.4L145.929 96.04C144.542 99.08 142.782 101.413 140.649 103.04C138.542 104.693 136.195 105.533 133.609 105.56V98.76C135.262 98.5733 136.729 97.6933 138.009 96.12C139.289 94.52 140.302 92.3333 141.049 89.56C141.795 86.7867 142.209 83.6 142.289 80H134.569V73.8H156.409V80H149.089ZM178.805 95.8C178.805 93.8267 179.099 92.2133 179.685 90.96C180.299 89.7067 181.339 88.5333 182.805 87.44C184.112 86.4267 185.045 85.5867 185.605 84.92C186.165 84.2267 186.445 83.4267 186.445 82.52C186.445 81.5067 186.099 80.72 185.405 80.16C184.712 79.5733 183.739 79.28 182.485 79.28C181.205 79.28 180.192 79.6667 179.445 80.44C178.725 81.1867 178.365 82.1067 178.365 83.2H171.405C171.405 81.3067 171.872 79.6 172.805 78.08C173.765 76.5333 175.072 75.32 176.725 74.44C178.405 73.56 180.312 73.12 182.445 73.12C184.712 73.12 186.659 73.52 188.285 74.32C189.912 75.12 191.152 76.24 192.005 77.68C192.859 79.0933 193.285 80.7067 193.285 82.52C193.285 85.32 191.939 87.76 189.245 89.84C187.779 90.9867 186.765 91.9867 186.205 92.84C185.672 93.6933 185.405 94.68 185.405 95.8H178.805ZM182.325 107.16C181.099 107.16 180.085 106.76 179.285 105.96C178.485 105.187 178.085 104.187 178.085 102.96C178.085 101.733 178.485 100.72 179.285 99.92C180.085 99.12 181.099 98.72 182.325 98.72C183.552 98.72 184.565 99.12 185.365 99.92C186.165 100.72 186.565 101.733 186.565 102.96C186.565 104.187 186.165 105.187 185.365 105.96C184.565 106.76 183.552 107.16 182.325 107.16Z" fill="white"/>
<path d="M51.65 29.15H54.15V26.65H51.65V29.15ZM51.65 35.55V38.05H54.15V35.55H51.65ZM8.45 35.55H5.95V38.05H8.45V35.55ZM8.45 29.15V26.65H5.95V29.15H8.45ZM16.4 29.15V31.65H18.9V29.15H16.4ZM16.4 25.2H18.9V23.483L17.2974 22.8666L16.4 25.2ZM15.8 11.95L16.7285 14.2712L16.7398 14.2666L15.8 11.95ZM44.25 11.95L43.3026 14.2635L43.3158 14.2689L43.3291 14.2742L44.25 11.95ZM43.7 25.2L42.8026 22.8666L41.2 23.483V25.2H43.7ZM43.7 29.15H41.2V31.65H43.7V29.15ZM22.3 16.7L21.7762 14.2555L21.7671 14.2575L22.3 16.7ZM22.3 20.25L21.7671 22.6925L21.7884 22.6972L21.8097 22.7015L22.3 20.25ZM37.8 20.25L38.2903 22.7015L38.3116 22.6972L38.3329 22.6925L37.8 20.25ZM37.75 16.7L37.2171 19.1426L37.2262 19.1445L37.75 16.7ZM24.75 29.15H22.25V31.65H24.75V29.15ZM35.35 29.15V31.65H37.85V29.15H35.35ZM35.35 26.9H37.85V24.1624L35.1237 24.4103L35.35 26.9ZM24.75 26.9L24.9763 24.4103L22.25 24.1624V26.9H24.75ZM49.15 29.15V35.55H54.15V29.15H49.15ZM51.65 33.05H8.45V38.05H51.65V33.05ZM10.95 35.55V29.15H5.95V35.55H10.95ZM8.45 31.65H16.4V26.65H8.45V31.65ZM18.9 29.15V25.2H13.9V29.15H18.9ZM17.2974 22.8666C15.5845 22.2078 14.5219 21.4657 13.9017 20.7502C13.3239 20.0835 13.05 19.3535 13.05 18.45H8.05C8.05 20.5465 8.75107 22.4415 10.1233 24.0248C11.4531 25.5593 13.3155 26.6922 15.5026 27.5334L17.2974 22.8666ZM13.05 18.45C13.05 17.5222 13.3116 16.8096 13.8074 16.1958C14.3349 15.5427 15.2411 14.8661 16.7285 14.2712L14.8715 9.62881C12.8589 10.4339 11.1401 11.5407 9.91765 13.0542C8.66335 14.6071 8.05 16.4444 8.05 18.45H13.05ZM16.7398 14.2666C19.8544 13.0032 24.2436 12.3 30.05 12.3V7.3C23.923 7.3 18.8123 8.03015 14.8602 9.63336L16.7398 14.2666ZM30.05 12.3C35.8582 12.3 40.2263 13.0037 43.3026 14.2635L45.1974 9.63648C41.2737 8.02963 36.1751 7.3 30.05 7.3V12.3ZM43.3291 14.2742C44.8355 14.8711 45.7536 15.5501 46.2875 16.2048C46.7881 16.8188 47.05 17.5284 47.05 18.45H52.05C52.05 16.4383 51.4286 14.5978 50.1625 13.0452C48.9297 11.5332 47.1978 10.4289 45.1709 9.6258L43.3291 14.2742ZM47.05 18.45C47.05 19.3535 46.7761 20.0835 46.1983 20.7502C45.5781 21.4657 44.5155 22.2078 42.8026 22.8666L44.5974 27.5334C46.7845 26.6922 48.6469 25.5593 49.9767 24.0248C51.3489 22.4415 52.05 20.5465 52.05 18.45H47.05ZM41.2 25.2V29.15H46.2V25.2H41.2ZM43.7 31.65H51.65V26.65H43.7V31.65ZM30.05 13.6C26.6814 13.6 23.8953 13.8014 21.7762 14.2555L22.8238 19.1445C24.438 18.7986 26.8186 18.6 30.05 18.6V13.6ZM21.7671 14.2575C20.7406 14.4814 19.7189 14.8042 18.8953 15.3283C18.0445 15.8698 17.05 16.8841 17.05 18.45H22.05C22.05 18.792 21.9379 19.0962 21.7901 19.3138C21.6611 19.5038 21.5477 19.567 21.5797 19.5467C21.6085 19.5283 21.7145 19.4685 21.9386 19.3884C22.1578 19.31 22.4515 19.2258 22.8329 19.1425L21.7671 14.2575ZM17.05 18.45C17.05 19.9869 17.9914 21.0178 18.8684 21.5918C19.701 22.1367 20.7339 22.4671 21.7671 22.6925L22.8329 17.8075C22.4549 17.725 22.1656 17.641 21.9512 17.563C21.7322 17.4834 21.6313 17.4244 21.6066 17.4082C21.5805 17.3911 21.6908 17.4558 21.8134 17.643C21.9525 17.8554 22.05 18.1405 22.05 18.45H17.05ZM21.8097 22.7015C23.8831 23.1161 26.6584 23.3 30.05 23.3V18.3C26.7749 18.3 24.3836 18.1172 22.7903 17.7985L21.8097 22.7015ZM30.05 23.3C33.4416 23.3 36.2169 23.1161 38.2903 22.7015L37.3097 17.7985C35.7164 18.1172 33.3251 18.3 30.05 18.3V23.3ZM38.3329 22.6925C39.3661 22.4671 40.399 22.1367 41.2317 21.5918C42.1086 21.0178 43.05 19.9869 43.05 18.45H38.05C38.05 18.1405 38.1475 17.8554 38.2866 17.643C38.4092 17.4558 38.5195 17.3911 38.4934 17.4082C38.4687 17.4244 38.3678 17.4834 38.1488 17.563C37.9344 17.641 37.6451 17.725 37.2671 17.8075L38.3329 22.6925ZM43.05 18.45C43.05 16.8623 42.0254 15.849 41.175 15.3175C40.3451 14.7988 39.3143 14.4784 38.2738 14.2555L37.2262 19.1445C37.6172 19.2283 37.9197 19.3134 38.1466 19.3931C38.3787 19.4746 38.4912 19.5364 38.525 19.5575C38.5627 19.581 38.4496 19.5206 38.3186 19.3311C38.1678 19.113 38.05 18.8027 38.05 18.45H43.05ZM38.2829 14.2575C36.1908 13.801 33.4162 13.6 30.05 13.6V18.6C33.2838 18.6 35.6426 18.799 37.2171 19.1425L38.2829 14.2575ZM24.75 31.65H35.35V26.65H24.75V31.65ZM37.85 29.15V26.9H32.85V29.15H37.85ZM35.1237 24.4103C33.7554 24.5347 32.0686 24.6 30.05 24.6V29.6C32.1647 29.6 34.0112 29.532 35.5763 29.3897L35.1237 24.4103ZM30.05 24.6C28.0314 24.6 26.3446 24.5347 24.9763 24.4103L24.5237 29.3897C26.0888 29.532 27.9353 29.6 30.05 29.6V24.6ZM22.25 26.9V29.15H27.25V26.9H22.25ZM30.05 39.5C36.4478 39.5 40.9132 40.1962 43.6909 41.3857C45.0531 41.9689 45.8786 42.616 46.3585 43.2325C46.8107 43.8134 47.05 44.4835 47.05 45.35H52.05C52.05 43.4332 51.4769 41.6679 50.304 40.1612C49.1589 38.6902 47.547 37.5977 45.6591 36.7893C41.9368 35.1954 36.6522 34.5 30.05 34.5V39.5ZM47.05 45.35C47.05 46.2165 46.8107 46.8866 46.3585 47.4675C45.8786 48.084 45.0531 48.7311 43.6909 49.3143C40.9132 50.5038 36.4478 51.2 30.05 51.2V56.2C36.6522 56.2 41.9368 55.5046 45.6591 53.9107C47.547 53.1023 49.1589 52.0098 50.304 50.5388C51.4769 49.0321 52.05 47.2668 52.05 45.35H47.05ZM30.05 51.2C23.6522 51.2 19.1868 50.5038 16.4091 49.3143C15.0469 48.7311 14.2214 48.084 13.7415 47.4675C13.2893 46.8866 13.05 46.2165 13.05 45.35H8.05C8.05 47.2668 8.62315 49.0321 9.79601 50.5388C10.9411 52.0098 12.5531 53.1023 14.4409 53.9107C18.1632 55.5046 23.4478 56.2 30.05 56.2V51.2ZM13.05 45.35C13.05 44.4835 13.2893 43.8134 13.7415 43.2325C14.2214 42.616 15.0469 41.9689 16.4091 41.3857C19.1868 40.1962 23.6522 39.5 30.05 39.5V34.5C23.4478 34.5 18.1632 35.1954 14.4409 36.7893C12.5531 37.5977 10.9411 38.6902 9.79601 40.1612C8.62315 41.6679 8.05 43.4332 8.05 45.35H13.05ZM30.05 49.9C33.5885 49.9 36.4098 49.7305 38.4041 49.3412C39.379 49.1508 40.3592 48.8715 41.1573 48.4041C41.957 47.9357 43.05 46.9643 43.05 45.35H38.05C38.05 44.4191 38.7056 44.0456 38.6302 44.0897C38.5533 44.1348 38.221 44.2825 37.446 44.4338C35.9403 44.7278 33.5115 44.9 30.05 44.9V49.9ZM43.05 45.35C43.05 43.7357 41.957 42.7643 41.1573 42.2959C40.3592 41.8285 39.379 41.5492 38.4041 41.3588C36.4098 40.9695 33.5885 40.8 30.05 40.8V45.8C33.5115 45.8 35.9403 45.9722 37.446 46.2662C38.221 46.4175 38.5533 46.5652 38.6302 46.6103C38.7056 46.6544 38.05 46.2809 38.05 45.35H43.05ZM30.05 40.8C26.5115 40.8 23.6902 40.9695 21.696 41.3588C20.721 41.5492 19.7408 41.8285 18.9427 42.2959C18.1431 42.7643 17.05 43.7357 17.05 45.35H22.05C22.05 46.2809 21.3945 46.6544 21.4698 46.6103C21.5467 46.5652 21.879 46.4175 22.6541 46.2662C24.1598 45.9722 26.5885 45.8 30.05 45.8V40.8ZM17.05 45.35C17.05 46.9643 18.1431 47.9357 18.9427 48.4041C19.7408 48.8715 20.721 49.1508 21.696 49.3412C23.6902 49.7305 26.5115 49.9 30.05 49.9V44.9C26.5885 44.9 24.1598 44.7278 22.6541 44.4338C21.879 44.2825 21.5467 44.1348 21.4698 44.0897C21.3945 44.0456 22.05 44.4191 22.05 45.35H17.05ZM97.8457 42.1V44.6H100.346V42.1H97.8457ZM89.3957 42.1H86.8957V44.6H89.3957V42.1ZM89.3957 10.5V8H86.8957V10.5H89.3957ZM97.8457 10.5H100.346V8H97.8457V10.5ZM77.7457 12.15L76.6135 14.3789L76.6206 14.3825L76.6277 14.3861L77.7457 12.15ZM82.6957 16.65L80.5552 17.9417L80.5633 17.9551L80.5716 17.9684L82.6957 16.65ZM82.6957 30.1L80.5716 28.7816L80.5633 28.7949L80.5552 28.8083L82.6957 30.1ZM77.7457 34.6L78.8495 36.8431L78.8566 36.8396L78.8637 36.8361L77.7457 34.6ZM63.0957 34.6L61.9635 36.8289L61.9846 36.8397L62.0059 36.85L63.0957 34.6ZM58.1457 30.1L56.0052 31.3917L56.0133 31.4051L56.0216 31.4184L58.1457 30.1ZM58.1457 16.65L56.0216 15.3316L56.0133 15.3449L56.0052 15.3583L58.1457 16.65ZM63.0957 12.15L61.9777 9.91393L61.9706 9.91747L61.9635 9.92105L63.0957 12.15ZM66.3457 19.15L68.0843 20.9465L68.0852 20.9456L66.3457 19.15ZM66.3457 27.6L64.5779 29.3678L64.6064 29.3963L64.6359 29.4238L66.3457 27.6ZM74.4957 27.6L76.2343 29.3965L76.2352 29.3956L74.4957 27.6ZM74.4957 19.15L72.7279 20.9178L72.7564 20.9463L72.7859 20.9738L74.4957 19.15ZM68.7457 45.6H66.2457V48.1H68.7457V45.6ZM98.4457 45.6H100.946V43.1H98.4457V45.6ZM98.4457 53.2V55.7H100.946V53.2H98.4457ZM60.1457 53.2H57.6457V55.7H60.1457V53.2ZM60.1457 38.25V35.75H57.6457V38.25H60.1457ZM68.7457 38.25H71.2457V35.75H68.7457V38.25ZM97.8457 39.6H89.3957V44.6H97.8457V39.6ZM91.8957 42.1V10.5H86.8957V42.1H91.8957ZM89.3957 13H97.8457V8H89.3957V13ZM95.3457 10.5V42.1H100.346V10.5H95.3457ZM70.4457 13.05C72.8874 13.05 74.9207 13.5191 76.6135 14.3789L78.8779 9.92105C76.3707 8.64756 73.5373 8.05 70.4457 8.05V13.05ZM76.6277 14.3861C78.3626 15.2535 79.6471 16.4368 80.5552 17.9417L84.8362 15.3583C83.4109 12.9965 81.3955 11.1798 78.8637 9.91393L76.6277 14.3861ZM80.5716 17.9684C81.4987 19.4621 81.9957 21.2282 81.9957 23.35H86.9957C86.9957 20.4052 86.2927 17.7046 84.8198 15.3316L80.5716 17.9684ZM81.9957 23.35C81.9957 25.512 81.4955 27.2931 80.5716 28.7816L84.8198 31.4184C86.2959 29.0402 86.9957 26.3214 86.9957 23.35H81.9957ZM80.5552 28.8083C79.6471 30.3132 78.3626 31.4965 76.6277 32.3639L78.8637 36.8361C81.3955 35.5702 83.4109 33.7535 84.8362 31.3917L80.5552 28.8083ZM76.6419 32.3569C74.9425 33.1931 72.8989 33.65 70.4457 33.65V38.65C73.5259 38.65 76.3489 38.0736 78.8495 36.8431L76.6419 32.3569ZM70.4457 33.65C67.9937 33.65 65.9268 33.1935 64.1855 32.35L62.0059 36.85C64.5313 38.0732 67.3644 38.65 70.4457 38.65V33.65ZM64.2279 32.3711C62.5205 31.5038 61.2199 30.3123 60.2698 28.7816L56.0216 31.4184C57.4715 33.7543 59.4709 35.5628 61.9635 36.8289L64.2279 32.3711ZM60.2862 28.8083C59.3855 27.3158 58.8957 25.525 58.8957 23.35H53.8957C53.8957 26.3084 54.5725 29.0175 56.0052 31.3917L60.2862 28.8083ZM58.8957 23.35C58.8957 21.215 59.3825 19.4392 60.2862 17.9417L56.0052 15.3583C54.5756 17.7275 53.8957 20.4183 53.8957 23.35H58.8957ZM60.2698 17.9684C61.2199 16.4377 62.5205 15.2462 64.2279 14.3789L61.9635 9.92105C59.4709 11.1872 57.4715 12.9957 56.0216 15.3316L60.2698 17.9684ZM64.2137 14.3861C65.9484 13.5188 68.0051 13.05 70.4457 13.05V8.05C67.353 8.05 64.5097 8.64791 61.9777 9.91393L64.2137 14.3861ZM70.4457 15.1C68.216 15.1 66.1977 15.8126 64.6062 17.3544L68.0852 20.9456C68.627 20.4207 69.3421 20.1 70.4457 20.1V15.1ZM64.6072 17.3535C62.9709 18.937 62.2957 21.0537 62.2957 23.35H67.2957C67.2957 22.0463 67.6539 21.363 68.0843 20.9465L64.6072 17.3535ZM62.2957 23.35C62.2957 25.65 62.9718 27.7617 64.5779 29.3678L68.1135 25.8322C67.6529 25.3717 67.2957 24.65 67.2957 23.35H62.2957ZM64.6359 29.4238C66.2313 30.9195 68.2396 31.6 70.4457 31.6V26.6C69.3185 26.6 68.5935 26.2805 68.0556 25.7762L64.6359 29.4238ZM70.4457 31.6C72.6501 31.6 74.6605 30.9195 76.2343 29.3965L72.7572 25.8035C72.2642 26.2805 71.5746 26.6 70.4457 26.6V31.6ZM76.2352 29.3956C77.8884 27.7941 78.5957 25.6729 78.5957 23.35H73.5957C73.5957 24.6271 73.2364 25.3393 72.7562 25.8044L76.2352 29.3956ZM78.5957 23.35C78.5957 21.0303 77.889 18.9044 76.2056 17.3262L72.7859 20.9738C73.2357 21.3956 73.5957 22.0697 73.5957 23.35H78.5957ZM76.2635 17.3822C74.6942 15.813 72.6741 15.1 70.4457 15.1V20.1C71.5506 20.1 72.2305 20.4203 72.7279 20.9178L76.2635 17.3822ZM68.7457 48.1H98.4457V43.1H68.7457V48.1ZM95.9457 45.6V53.2H100.946V45.6H95.9457ZM98.4457 50.7H60.1457V55.7H98.4457V50.7ZM62.6457 53.2V38.25H57.6457V53.2H62.6457ZM60.1457 40.75H68.7457V35.75H60.1457V40.75ZM66.2457 38.25V45.6H71.2457V38.25H66.2457ZM132.791 19.44L131.733 21.7049L131.741 21.7087L132.791 19.44ZM132.791 31.12L131.741 28.8513L131.733 28.8551L132.791 31.12ZM110.031 31.12L108.973 33.3849L108.981 33.3887L110.031 31.12ZM110.031 19.44L108.981 17.1713L108.973 17.1751L110.031 19.44ZM115.231 23.4L115.946 25.7957L115.959 25.7918L115.972 25.7877L115.231 23.4ZM115.231 27.2L115.946 24.8043L115.946 24.8043L115.231 27.2ZM127.631 27.2L126.917 24.8043L126.917 24.8043L127.631 27.2ZM127.591 23.4L126.839 25.784L126.863 25.7918L126.888 25.7991L127.591 23.4ZM138.711 40.28V42.78H141.211V40.28H138.711ZM104.151 40.28H101.651V42.78H104.151V40.28ZM104.151 34.72V32.22H101.651V34.72H104.151ZM138.711 34.72H141.211V32.22H138.711V34.72ZM113.031 46.52H110.531V49.02H113.031V46.52ZM137.111 46.52H139.611V44.02H137.111V46.52ZM137.111 52.16V54.66H139.611V52.16H137.111ZM106.151 52.16H103.651V54.66H106.151V52.16ZM106.151 42.04V39.54H103.651V42.04H106.151ZM113.031 42.04H115.531V39.54H113.031V42.04ZM121.431 19.94C125.952 19.94 129.334 20.584 131.733 21.7049L133.85 17.1751C130.542 15.6293 126.351 14.94 121.431 14.94V19.94ZM131.741 21.7087C132.915 22.2522 133.616 22.839 134.022 23.3867C134.404 23.9042 134.611 24.5026 134.611 25.28H139.611C139.611 23.4974 139.098 21.8424 138.041 20.4132C137.006 19.0144 135.548 17.9611 133.842 17.1713L131.741 21.7087ZM134.611 25.28C134.611 26.0574 134.404 26.6558 134.022 27.1732C133.616 27.721 132.915 28.3078 131.741 28.8513L133.842 33.3887C135.548 32.5989 137.006 31.5456 138.041 30.1468C139.098 28.7176 139.611 27.0626 139.611 25.28H134.611ZM131.733 28.8551C129.334 29.9759 125.952 30.62 121.431 30.62V35.62C126.351 35.62 130.542 34.9307 133.85 33.3849L131.733 28.8551ZM121.431 30.62C116.913 30.62 113.512 29.9765 111.082 28.8513L108.981 33.3887C112.311 34.9302 116.51 35.62 121.431 35.62V30.62ZM111.09 28.8551C109.931 28.3136 109.239 27.7291 108.838 27.1822C108.458 26.6644 108.251 26.0628 108.251 25.28H103.251C103.251 27.0572 103.758 28.7089 104.805 30.1378C105.831 31.5375 107.278 32.5931 108.973 33.3849L111.09 28.8551ZM108.251 25.28C108.251 24.4972 108.458 23.8956 108.838 23.3778C109.239 22.8309 109.931 22.2464 111.09 21.7049L108.973 17.1751C107.278 17.9669 105.831 19.0225 104.805 20.4222C103.758 21.8511 103.251 23.5028 103.251 25.28H108.251ZM111.082 21.7087C113.512 20.5835 116.913 19.94 121.431 19.94V14.94C116.51 14.94 112.311 15.6298 108.981 17.1713L111.082 21.7087ZM121.431 20.18C118.724 20.18 116.376 20.4271 114.49 21.0123L115.972 25.7877C117.18 25.4129 118.965 25.18 121.431 25.18V20.18ZM114.517 21.0043C113.609 21.2751 112.678 21.6648 111.931 22.2812C111.121 22.949 110.451 23.9629 110.451 25.28H115.451C115.451 25.4943 115.396 25.7083 115.3 25.8879C115.212 26.0544 115.121 26.1315 115.112 26.1388C115.106 26.144 115.156 26.1019 115.304 26.0318C115.449 25.963 115.658 25.8815 115.946 25.7957L114.517 21.0043ZM110.451 25.28C110.451 26.5803 111.092 27.6028 111.911 28.2923C112.663 28.9258 113.602 29.3228 114.517 29.5957L115.946 24.8043C115.661 24.7194 115.456 24.6386 115.315 24.5708C115.171 24.5019 115.124 24.4609 115.132 24.4677C115.143 24.4773 115.23 24.5538 115.314 24.7148C115.403 24.8872 115.451 25.0867 115.451 25.28H110.451ZM114.517 29.5957C116.37 30.1484 118.711 30.38 121.431 30.38V25.38C118.925 25.38 117.133 25.1583 115.946 24.8043L114.517 29.5957ZM121.431 30.38C124.152 30.38 126.493 30.1484 128.346 29.5957L126.917 24.8043C125.73 25.1583 123.938 25.38 121.431 25.38V30.38ZM128.346 29.5957C129.261 29.3228 130.199 28.9258 130.952 28.2923C131.77 27.6028 132.411 26.5803 132.411 25.28H127.411C127.411 25.0867 127.46 24.8872 127.549 24.7148C127.633 24.5538 127.72 24.4773 127.731 24.4677C127.739 24.4609 127.692 24.5019 127.548 24.5708C127.407 24.6386 127.201 24.7194 126.917 24.8043L128.346 29.5957ZM132.411 25.28C132.411 23.9451 131.721 22.9287 130.905 22.2677C130.151 21.6565 129.213 21.27 128.295 21.0009L126.888 25.7991C127.184 25.8857 127.4 25.9685 127.551 26.039C127.706 26.1108 127.761 26.1551 127.757 26.1523C127.752 26.1477 127.66 26.0719 127.569 25.9039C127.47 25.7218 127.411 25.5022 127.411 25.28H132.411ZM128.344 21.016C126.477 20.4264 124.135 20.18 121.431 20.18V25.18C123.901 25.18 125.666 25.4136 126.839 25.784L128.344 21.016ZM138.711 37.78H104.151V42.78H138.711V37.78ZM106.651 40.28V34.72H101.651V40.28H106.651ZM104.151 37.22H138.711V32.22H104.151V37.22ZM136.211 34.72V40.28H141.211V34.72H136.211ZM113.031 49.02H137.111V44.02H113.031V49.02ZM134.611 46.52V52.16H139.611V46.52H134.611ZM137.111 49.66H106.151V54.66H137.111V49.66ZM108.651 52.16V42.04H103.651V52.16H108.651ZM106.151 44.54H113.031V39.54H106.151V44.54ZM110.531 42.04V46.52H115.531V42.04H110.531ZM25.89 80.86V78.36H23.5327L23.3943 80.7132L25.89 80.86ZM25.08 87.925L22.6198 87.4808L22.4131 88.6255L23.1557 89.5209L25.08 87.925ZM36.015 101.11L37.5694 103.068L39.5697 101.48L37.9393 99.5141L36.015 101.11ZM30.12 105.79L28.153 107.333L29.705 109.312L31.6744 107.748L30.12 105.79ZM22.425 95.98L24.392 94.437L21.9446 91.3169L20.1847 94.8705L22.425 95.98ZM16.53 103.27L17.9928 105.297L16.53 103.27ZM8.655 105.88H6.155V108.406L8.68104 108.38L8.655 105.88ZM8.655 98.41L8.41028 95.922L6.155 96.1438V98.41H8.655ZM13.47 95.89L11.6302 94.1974L11.6302 94.1974L13.47 95.89ZM16.755 89.77L14.3752 89.0041L14.3725 89.0126L14.3698 89.0212L16.755 89.77ZM18.24 80.86L20.7375 80.9725L20.8551 78.36H18.24V80.86ZM9.51 80.86H7.01V83.36H9.51V80.86ZM9.51 73.84V71.34H7.01V73.84H9.51ZM18.195 73.84V76.34H20.695V73.84H18.195ZM18.195 69.115V66.615H15.695V69.115H18.195ZM25.98 69.115H28.48V66.615H25.98V69.115ZM25.98 73.84H23.48V76.34H25.98V73.84ZM34.17 73.84H36.67V71.34H34.17V73.84ZM34.17 80.86V83.36H36.67V80.86H34.17ZM45.555 69.25H48.055V66.75H45.555V69.25ZM45.555 107.68V110.18H48.055V107.68H45.555ZM37.95 107.68H35.45V110.18H37.95V107.68ZM37.95 91.345H40.45V88.845H37.95V91.345ZM31.515 91.345H29.015V93.845H31.515V91.345ZM31.515 84.145V81.645H29.015V84.145H31.515ZM37.95 84.145V86.645H40.45V84.145H37.95ZM37.95 69.25V66.75H35.45V69.25H37.95ZM23.3943 80.7132C23.2493 83.1792 22.9894 85.4335 22.6198 87.4808L27.5402 88.3692C27.9506 86.0965 28.2307 83.6408 28.3857 81.0068L23.3943 80.7132ZM23.1557 89.5209L34.0907 102.706L37.9393 99.5141L27.0043 86.3291L23.1557 89.5209ZM34.4606 99.152L28.5656 103.832L31.6744 107.748L37.5694 103.068L34.4606 99.152ZM32.087 104.247L24.392 94.437L20.458 97.523L28.153 107.333L32.087 104.247ZM20.1847 94.8705C18.7689 97.7293 17.0466 99.8145 15.0672 101.243L17.9928 105.297C20.7534 103.306 22.9611 100.531 24.6653 97.0895L20.1847 94.8705ZM15.0672 101.243C13.1093 102.655 10.9847 103.356 8.62896 103.38L8.68104 108.38C12.0853 108.344 15.2107 107.305 17.9928 105.297L15.0672 101.243ZM11.155 105.88V98.41H6.155V105.88H11.155ZM8.89972 100.898C11.409 100.651 13.5625 99.4819 15.3098 97.5826L11.6302 94.1974C10.6175 95.2981 9.56105 95.8088 8.41028 95.922L8.89972 100.898ZM15.3098 97.5826C17.0062 95.7387 18.2544 93.3404 19.1402 90.5188L14.3698 89.0212C13.6356 91.3596 12.6938 93.0413 11.6302 94.1974L15.3098 97.5826ZM19.1348 90.5359C20.0557 87.6746 20.5795 84.4786 20.7375 80.9725L15.7425 80.7475C15.6005 83.9014 15.1343 86.6454 14.3752 89.0041L19.1348 90.5359ZM18.24 78.36H9.51V83.36H18.24V78.36ZM12.01 80.86V73.84H7.01V80.86H12.01ZM9.51 76.34H18.195V71.34H9.51V76.34ZM20.695 73.84V69.115H15.695V73.84H20.695ZM18.195 71.615H25.98V66.615H18.195V71.615ZM23.48 69.115V73.84H28.48V69.115H23.48ZM25.98 76.34H34.17V71.34H25.98V76.34ZM31.67 73.84V80.86H36.67V73.84H31.67ZM34.17 78.36H25.89V83.36H34.17V78.36ZM43.055 69.25V107.68H48.055V69.25H43.055ZM45.555 105.18H37.95V110.18H45.555V105.18ZM40.45 107.68V91.345H35.45V107.68H40.45ZM37.95 88.845H31.515V93.845H37.95V88.845ZM34.015 91.345V84.145H29.015V91.345H34.015ZM31.515 86.645H37.95V81.645H31.515V86.645ZM40.45 84.145V69.25H35.45V84.145H40.45ZM37.95 71.75H45.555V66.75H37.95V71.75ZM83.7111 70.555L82.7637 72.8685L82.7714 72.8716L83.7111 70.555ZM83.7111 82.345L82.7714 80.0283L82.7637 80.0315L83.7111 82.345ZM58.1061 82.345L57.1587 84.6585L57.1664 84.6616L58.1061 82.345ZM58.1061 70.555L57.1664 68.2383L57.1587 68.2415L58.1061 70.555ZM63.9561 74.875L63.4323 72.4305L63.4232 72.4325L63.9561 74.875ZM63.9561 78.07L63.4232 80.5125L63.4445 80.5172L63.4658 80.5215L63.9561 78.07ZM77.9061 78.07L78.3964 80.5215L78.4178 80.5172L78.4391 80.5125L77.9061 78.07ZM77.8611 74.875L77.3282 77.3176L77.3373 77.3195L77.8611 74.875ZM90.3711 91.525V94.025H92.8711V91.525H90.3711ZM51.4911 91.525H48.9911V94.025H51.4911V91.525ZM51.4911 85.675V83.175H48.9911V85.675H51.4911ZM90.3711 85.675H92.8711V83.175H90.3711V85.675ZM88.1211 107.68V110.18H90.6211V107.68H88.1211ZM53.7411 107.68H51.2411V110.18H53.7411V107.68ZM53.7411 93.505V91.005H51.2411V93.505H53.7411ZM88.1211 93.505H90.6211V91.005H88.1211V93.505ZM80.6061 101.965V104.465H83.1061V101.965H80.6061ZM80.6061 99.22H83.1061V96.72H80.6061V99.22ZM61.2561 99.22V96.72H58.7561V99.22H61.2561ZM61.2561 101.965H58.7561V104.465H61.2561V101.965ZM70.9311 71.12C76.1427 71.12 80.0374 71.752 82.7637 72.8685L84.6586 68.2415C81.0849 66.778 76.4596 66.12 70.9311 66.12V71.12ZM82.7714 72.8716C84.1035 73.412 84.8947 74.012 85.3452 74.5688C85.7632 75.0854 85.9811 75.675 85.9811 76.45H90.9811C90.9811 74.585 90.4041 72.8721 89.2321 71.4237C88.0926 70.0155 86.4988 68.988 84.6509 68.2384L82.7714 72.8716ZM85.9811 76.45C85.9811 77.225 85.7632 77.8146 85.3452 78.3312C84.8947 78.888 84.1035 79.488 82.7714 80.0284L84.6509 84.6616C86.4988 83.912 88.0926 82.8845 89.2321 81.4763C90.4041 80.0279 90.9811 78.315 90.9811 76.45H85.9811ZM82.7637 80.0315C80.0374 81.148 76.1427 81.78 70.9311 81.78V86.78C76.4596 86.78 81.0849 86.122 84.6586 84.6585L82.7637 80.0315ZM70.9311 81.78C65.7214 81.78 61.8072 81.1485 59.0459 80.0284L57.1664 84.6616C60.7651 86.1215 65.4008 86.78 70.9311 86.78V81.78ZM59.0536 80.0315C57.7388 79.4931 56.9582 78.8955 56.5131 78.3402C56.0992 77.8238 55.8811 77.2311 55.8811 76.45H50.8811C50.8811 78.3088 51.4505 80.0186 52.6117 81.4673C53.7416 82.877 55.3235 83.9069 57.1587 84.6585L59.0536 80.0315ZM55.8811 76.45C55.8811 75.6688 56.0992 75.0761 56.5131 74.5598C56.9582 74.0045 57.7388 73.4069 59.0536 72.8685L57.1587 68.2415C55.3235 68.9931 53.7416 70.023 52.6117 71.4327C51.4505 72.8813 50.8811 74.5911 50.8811 76.45H55.8811ZM59.0459 72.8716C61.8072 71.7515 65.7214 71.12 70.9311 71.12V66.12C65.4008 66.12 60.7651 66.7785 57.1664 68.2384L59.0459 72.8716ZM70.9311 71.835C67.8925 71.835 65.3648 72.0164 63.4323 72.4305L64.48 77.3195C65.9075 77.0136 68.0298 76.835 70.9311 76.835V71.835ZM63.4232 72.4325C62.4884 72.6364 61.5355 72.9346 60.7577 73.4296C59.9527 73.9418 58.9811 74.9225 58.9811 76.45H63.9811C63.9811 76.8111 63.8633 77.1334 63.7041 77.3678C63.6322 77.4737 63.5632 77.5453 63.517 77.5876C63.4936 77.609 63.4748 77.6241 63.4623 77.6335C63.4498 77.6429 63.4426 77.6475 63.4421 77.6479C63.4419 77.648 63.4621 77.6353 63.5096 77.613C63.5568 77.5908 63.624 77.5625 63.7151 77.53C63.8998 77.4639 64.1534 77.3908 64.489 77.3175L63.4232 72.4325ZM58.9811 76.45C58.9811 77.9469 59.8996 78.9428 60.7307 79.4868C61.5175 80.0017 62.4817 80.3071 63.4232 80.5125L64.4891 75.6275C64.1569 75.555 63.9077 75.4822 63.7277 75.4168C63.6391 75.3845 63.5744 75.3567 63.5298 75.3353C63.4848 75.3137 63.4669 75.3018 63.469 75.3032C63.471 75.3046 63.501 75.3243 63.5467 75.3674C63.5929 75.4112 63.6593 75.4828 63.7274 75.5868C63.8779 75.8166 63.9811 76.1205 63.9811 76.45H58.9811ZM63.4658 80.5215C65.3559 80.8995 67.8729 81.065 70.9311 81.065V76.065C67.9894 76.065 65.8564 75.9005 64.4464 75.6185L63.4658 80.5215ZM70.9311 81.065C73.9894 81.065 76.5064 80.8995 78.3964 80.5215L77.4158 75.6185C76.0059 75.9005 73.8729 76.065 70.9311 76.065V81.065ZM78.4391 80.5125C79.3805 80.3071 80.3448 80.0017 81.1315 79.4868C81.9626 78.9428 82.8811 77.9469 82.8811 76.45H77.8811C77.8811 76.1205 77.9844 75.8166 78.1349 75.5868C78.203 75.4828 78.2693 75.4112 78.3156 75.3674C78.3612 75.3243 78.3912 75.3045 78.3932 75.3032C78.3954 75.3018 78.3775 75.3137 78.3325 75.3353C78.2879 75.3567 78.2232 75.3845 78.1346 75.4168C77.9546 75.4822 77.7054 75.555 77.3732 75.6275L78.4391 80.5125ZM82.8811 76.45C82.8811 74.9006 81.8799 73.9211 81.0761 73.4188C80.2929 72.9293 79.3321 72.6334 78.385 72.4305L77.3373 77.3195C77.6817 77.3933 77.9433 77.4673 78.1353 77.5347C78.3323 77.6039 78.4157 77.6522 78.4261 77.6587C78.4405 77.6677 78.3099 77.5915 78.1672 77.3851C78.0048 77.1502 77.8811 76.8219 77.8811 76.45H82.8811ZM78.3941 72.4325C76.4852 72.016 73.9673 71.835 70.9311 71.835V76.835C73.835 76.835 75.937 77.014 77.3282 77.3175L78.3941 72.4325ZM90.3711 89.025H51.4911V94.025H90.3711V89.025ZM53.9911 91.525V85.675H48.9911V91.525H53.9911ZM51.4911 88.175H90.3711V83.175H51.4911V88.175ZM87.8711 85.675V91.525H92.8711V85.675H87.8711ZM88.1211 105.18H53.7411V110.18H88.1211V105.18ZM56.2411 107.68V93.505H51.2411V107.68H56.2411ZM53.7411 96.005H88.1211V91.005H53.7411V96.005ZM85.6211 93.505V107.68H90.6211V93.505H85.6211ZM83.1061 101.965V99.22H78.1061V101.965H83.1061ZM80.6061 96.72H61.2561V101.72H80.6061V96.72ZM58.7561 99.22V101.965H63.7561V99.22H58.7561ZM61.2561 104.465H80.6061V99.465H61.2561V104.465ZM127.572 107.16V109.66H130.072V107.16H127.572ZM120.812 107.16H118.312V109.66H120.812V107.16ZM120.812 73V70.5H118.312V73H120.812ZM127.572 73H130.072V70.5H127.572V73ZM114.132 77.48L112.08 78.9083L112.088 78.9198L112.097 78.9312L114.132 77.48ZM114.132 101.92L112.09 100.478L112.087 100.482L114.132 101.92ZM98.4123 101.92L96.3698 103.362L96.3766 103.371L98.4123 101.92ZM98.4123 77.48L100.448 78.9312L100.455 78.9217L98.4123 77.48ZM109.212 81.96L106.939 83.0003L106.946 83.0161L106.954 83.0319L109.212 81.96ZM127.572 104.66H120.812V109.66H127.572V104.66ZM123.312 107.16V73H118.312V107.16H123.312ZM120.812 75.5H127.572V70.5H120.812V75.5ZM125.072 73V107.16H130.072V73H125.072ZM106.292 75.9C108.813 75.9 110.658 76.8644 112.08 78.9083L116.184 76.0517C113.82 72.6556 110.438 70.9 106.292 70.9V75.9ZM112.097 78.9312C113.576 81.0063 114.512 84.455 114.512 89.68H119.512C119.512 84.025 118.529 79.3404 116.168 76.0288L112.097 78.9312ZM114.512 89.68C114.512 94.9021 113.577 98.3716 112.09 100.478L116.175 103.362C118.528 100.028 119.512 95.3379 119.512 89.68H114.512ZM112.087 100.482C110.669 102.5 108.824 103.46 106.292 103.46V108.46C110.427 108.46 113.809 106.727 116.177 103.358L112.087 100.482ZM106.292 103.46C103.76 103.46 101.894 102.498 100.448 100.469L96.3766 103.371C98.77 106.729 102.158 108.46 106.292 108.46V103.46ZM100.455 100.478C98.9676 98.3716 98.0323 94.9021 98.0323 89.68H93.0323C93.0323 95.3379 94.017 100.028 96.3698 103.362L100.455 100.478ZM98.0323 89.68C98.0323 84.455 98.9687 81.0063 100.448 78.9312L96.3766 76.0288C94.0158 79.3404 93.0323 84.025 93.0323 89.68H98.0323ZM100.455 78.9217C101.906 76.8663 103.77 75.9 106.292 75.9V70.9C102.148 70.9 98.759 72.6537 96.3698 76.0383L100.455 78.9217ZM106.292 77.1C105.051 77.1 103.89 77.5 102.918 78.3002C101.989 79.0651 101.356 80.0926 100.915 81.182C100.051 83.3157 99.7123 86.2255 99.7123 89.68H104.712C104.712 86.4145 105.053 84.2843 105.55 83.058C105.789 82.4674 106.005 82.2349 106.097 82.1598C106.145 82.12 106.174 82.1 106.292 82.1V77.1ZM99.7123 89.68C99.7123 93.1345 100.051 96.0443 100.915 98.178C101.356 99.2674 101.989 100.295 102.918 101.06C103.89 101.86 105.051 102.26 106.292 102.26V97.26C106.174 97.26 106.145 97.24 106.097 97.2002C106.005 97.1251 105.789 96.8926 105.55 96.302C105.053 95.0757 104.712 92.9455 104.712 89.68H99.7123ZM106.292 102.26C107.534 102.26 108.692 101.856 109.658 101.052C110.58 100.285 111.207 99.2572 111.643 98.1701C112.497 96.0396 112.832 93.1332 112.832 89.68H107.832C107.832 92.9468 107.494 95.0804 107.002 96.3099C106.764 96.9028 106.549 97.1348 106.461 97.2079C106.417 97.2444 106.398 97.26 106.292 97.26V102.26ZM112.832 89.68C112.832 86.0459 112.47 82.9942 111.471 80.8881L106.954 83.0319C107.448 84.0724 107.832 86.1675 107.832 89.68H112.832ZM111.486 80.9197C110.553 78.8818 108.891 77.1 106.292 77.1V82.1C106.327 82.1 106.331 82.1046 106.323 82.1015C106.315 82.0987 106.33 82.1016 106.371 82.1344C106.464 82.21 106.682 82.4383 106.939 83.0003L111.486 80.9197ZM166.049 73H168.549V70.5H166.049V73ZM166.049 107.16V109.66H168.549V107.16H166.049ZM159.289 107.16H156.789V109.66H159.289V107.16ZM159.289 73V70.5H156.789V73H159.289ZM149.089 80V77.5H146.653L146.59 79.9348L149.089 80ZM148.249 88.52L145.79 88.0684L145.589 89.1634L146.268 90.0455L148.249 88.52ZM158.169 101.4L159.664 103.404L161.698 101.885L160.149 99.8745L158.169 101.4ZM152.809 105.4L150.794 106.881L152.286 108.91L154.304 107.404L152.809 105.4ZM145.929 96.04L147.943 94.5594L145.421 91.1285L143.654 95.0025L145.929 96.04ZM140.649 103.04L139.133 101.052L139.119 101.063L139.105 101.073L140.649 103.04ZM133.609 105.56H131.109V108.086L133.635 108.06L133.609 105.56ZM133.609 98.76L133.328 96.2758L131.109 96.5264V98.76H133.609ZM138.009 96.12L139.948 97.6977L139.955 97.6898L139.961 97.6817L138.009 96.12ZM141.049 89.56L138.635 88.9101L138.635 88.9101L141.049 89.56ZM142.289 80L144.788 80.0555L144.845 77.5H142.289V80ZM134.569 80H132.069V82.5H134.569V80ZM134.569 73.8V71.3H132.069V73.8H134.569ZM156.409 73.8H158.909V71.3H156.409V73.8ZM156.409 80V82.5H158.909V80H156.409ZM163.549 73V107.16H168.549V73H163.549ZM166.049 104.66H159.289V109.66H166.049V104.66ZM161.789 107.16V73H156.789V107.16H161.789ZM159.289 75.5H166.049V70.5H159.289V75.5ZM146.59 79.9348C146.513 82.8912 146.243 85.6003 145.79 88.0684L150.708 88.9716C151.214 86.213 151.505 83.2422 151.588 80.0652L146.59 79.9348ZM146.268 90.0455L156.188 102.925L160.149 99.8745L150.229 86.9945L146.268 90.0455ZM156.674 99.3964L151.314 103.396L154.304 107.404L159.664 103.404L156.674 99.3964ZM154.823 103.919L147.943 94.5594L143.914 97.5206L150.794 106.881L154.823 103.919ZM143.654 95.0025C142.397 97.7584 140.868 99.7289 139.133 101.052L142.165 105.028C144.696 103.098 146.687 100.402 148.203 97.0775L143.654 95.0025ZM139.105 101.073C137.416 102.399 135.598 103.039 133.583 103.06L133.635 108.06C136.793 108.027 139.669 106.987 142.192 105.007L139.105 101.073ZM136.109 105.56V98.76H131.109V105.56H136.109ZM133.889 101.244C136.33 100.969 138.351 99.6606 139.948 97.6977L136.07 94.5423C135.107 95.726 134.194 96.178 133.328 96.2758L133.889 101.244ZM139.961 97.6817C141.524 95.7278 142.66 93.1914 143.463 90.2099L138.635 88.9101C137.944 91.4753 137.054 93.3122 136.057 94.5583L139.961 97.6817ZM143.463 90.2099C144.273 87.2009 144.705 83.8081 144.788 80.0555L139.789 79.9445C139.713 83.3919 139.318 86.3724 138.635 88.9101L143.463 90.2099ZM142.289 77.5H134.569V82.5H142.289V77.5ZM137.069 80V73.8H132.069V80H137.069ZM134.569 76.3H156.409V71.3H134.569V76.3ZM153.909 73.8V80H158.909V73.8H153.909ZM156.409 77.5H149.089V82.5H156.409V77.5ZM178.805 95.8H176.305V98.3H178.805V95.8ZM179.685 90.96L177.44 89.8611L177.43 89.8806L177.421 89.9001L179.685 90.96ZM182.805 87.44L184.3 89.4444L184.319 89.4301L184.337 89.4155L182.805 87.44ZM185.605 84.92L187.52 86.528L187.535 86.5096L187.55 86.4908L185.605 84.92ZM185.405 80.16L183.791 82.0685L183.812 82.0869L183.835 82.1049L185.405 80.16ZM179.445 80.44L177.647 78.7035L177.646 78.7047L179.445 80.44ZM178.365 83.2V85.7H180.865V83.2H178.365ZM171.405 83.2H168.905V85.7H171.405V83.2ZM172.805 78.08L170.681 76.7616L170.675 76.7718L172.805 78.08ZM176.725 74.44L175.565 72.2254L175.558 72.2293L175.551 72.2331L176.725 74.44ZM188.285 74.32L187.182 76.5634L187.182 76.5634L188.285 74.32ZM192.005 77.68L189.855 78.9545L189.86 78.9634L189.865 78.9722L192.005 77.68ZM189.245 89.84L187.717 87.8614L187.711 87.8659L187.706 87.8705L189.245 89.84ZM186.205 92.84L184.115 91.4684L184.1 91.4915L184.085 91.515L186.205 92.84ZM185.405 95.8V98.3H187.905V95.8H185.405ZM179.285 105.96L181.053 104.192L181.038 104.177L181.023 104.163L179.285 105.96ZM179.285 99.92L177.518 98.1522L177.518 98.1522L179.285 99.92ZM185.365 99.92L187.133 98.1522L187.133 98.1522L185.365 99.92ZM185.365 105.96L183.628 104.163L183.613 104.177L183.598 104.192L185.365 105.96ZM181.305 95.8C181.305 94.048 181.57 92.8313 181.95 92.0198L177.421 89.9001C176.628 91.5954 176.305 93.6054 176.305 95.8H181.305ZM181.931 92.0589C182.324 91.2564 183.056 90.3712 184.3 89.4444L181.311 85.4356C179.621 86.6955 178.274 88.1569 177.44 89.8611L181.931 92.0589ZM184.337 89.4155C185.683 88.372 186.785 87.4021 187.52 86.528L183.691 83.312C183.305 83.7713 182.541 84.4813 181.273 85.4644L184.337 89.4155ZM187.55 86.4908C188.476 85.3445 188.945 83.9876 188.945 82.52H183.945C183.945 82.8657 183.855 83.1089 183.661 83.3492L187.55 86.4908ZM188.945 82.52C188.945 80.868 188.342 79.3185 186.976 78.2151L183.835 82.1049C183.883 82.1438 183.891 82.1634 183.898 82.1781C183.908 82.2022 183.945 82.2992 183.945 82.52H188.945ZM187.02 78.2515C185.73 77.1597 184.106 76.78 182.485 76.78V81.78C183.371 81.78 183.694 81.9869 183.791 82.0685L187.02 78.2515ZM182.485 76.78C180.667 76.78 178.954 77.3502 177.647 78.7035L181.244 82.1765C181.431 81.9831 181.744 81.78 182.485 81.78V76.78ZM177.646 78.7047C176.45 79.9444 175.865 81.498 175.865 83.2H180.865C180.865 82.7153 181 82.4289 181.245 82.1753L177.646 78.7047ZM178.365 80.7H171.405V85.7H178.365V80.7ZM173.905 83.2C173.905 81.7389 174.259 80.4901 174.936 79.3882L170.675 76.7718C169.485 78.7099 168.905 80.8745 168.905 83.2H173.905ZM174.929 79.3984C175.65 78.2376 176.624 77.3259 177.9 76.6469L175.551 72.2331C173.52 73.3141 171.881 74.829 170.681 76.7616L174.929 79.3984ZM177.885 76.6546C179.165 75.9844 180.665 75.62 182.445 75.62V70.62C179.959 70.62 177.646 71.1356 175.565 72.2254L177.885 76.6546ZM182.445 75.62C184.423 75.62 185.974 75.9691 187.182 76.5634L189.389 72.0766C187.344 71.0709 185.001 70.62 182.445 70.62V75.62ZM187.182 76.5634C188.411 77.1676 189.27 77.9671 189.855 78.9545L194.156 76.4055C193.035 74.5129 191.413 73.0724 189.389 72.0766L187.182 76.5634ZM189.865 78.9722C190.46 79.9578 190.785 81.1159 190.785 82.52H195.785C195.785 80.2974 195.257 78.2288 194.146 76.3878L189.865 78.9722ZM190.785 82.52C190.785 84.377 189.945 86.1412 187.717 87.8614L190.773 91.8186C193.933 89.3788 195.785 86.263 195.785 82.52H190.785ZM187.706 87.8705C186.17 89.0706 184.901 90.2712 184.115 91.4684L188.296 94.2116C188.63 93.7021 189.387 92.9027 190.785 91.8095L187.706 87.8705ZM184.085 91.515C183.276 92.8096 182.905 94.2661 182.905 95.8H187.905C187.905 95.0939 188.068 94.5771 188.325 94.165L184.085 91.515ZM185.405 93.3H178.805V98.3H185.405V93.3ZM182.325 104.66C181.7 104.66 181.342 104.482 181.053 104.192L177.518 107.728C178.828 109.038 180.497 109.66 182.325 109.66V104.66ZM181.023 104.163C180.763 103.911 180.585 103.586 180.585 102.96H175.585C175.585 104.788 176.208 106.462 177.548 107.757L181.023 104.163ZM180.585 102.96C180.585 102.335 180.764 101.977 181.053 101.688L177.518 98.1522C176.207 99.4629 175.585 101.132 175.585 102.96H180.585ZM181.053 101.688C181.342 101.398 181.7 101.22 182.325 101.22V96.22C180.497 96.22 178.828 96.8416 177.518 98.1522L181.053 101.688ZM182.325 101.22C182.951 101.22 183.308 101.398 183.598 101.688L187.133 98.1522C185.822 96.8416 184.153 96.22 182.325 96.22V101.22ZM183.598 101.688C183.887 101.977 184.065 102.335 184.065 102.96H189.065C189.065 101.132 188.444 99.4629 187.133 98.1522L183.598 101.688ZM184.065 102.96C184.065 103.586 183.888 103.911 183.628 104.163L187.103 107.757C188.443 106.462 189.065 104.788 189.065 102.96H184.065ZM183.598 104.192C183.308 104.482 182.951 104.66 182.325 104.66V109.66C184.153 109.66 185.822 109.038 187.133 107.728L183.598 104.192Z" fill="#619092" mask="url(#path-1-outside-1_100_197)"/>
</g>
<defs>
<filter id="filter0_d_100_197" x="8.4502" y="5.7998" width="192.835" height="105.88" filterUnits="userSpaceOnUse" color-interpolation-filters="sRGB">
<feFlood flood-opacity="0" result="BackgroundImageFix"/>
<feColorMatrix in="SourceAlpha" type="matrix" values="0 0 0 0 0 0 0 0 0 0 0 0 0 0 0 0 0 0 127 0" result="hardAlpha"/>
<feOffset dx="4"/>
<feGaussianBlur stdDeviation="2"/>
<feComposite in2="hardAlpha" operator="out"/>
<feColorMatrix type="matrix" values="0 0 0 0 0.723333 0 0 0 0 0.796871 0 0 0 0 0.8 0 0 0 1 0"/>
<feBlend mode="normal" in2="BackgroundImageFix" result="effect1_dropShadow_100_197"/>
<feBlend mode="normal" in="SourceGraphic" in2="effect1_dropShadow_100_197" result="shape"/>
</filter>
</defs>
</svg>
