<svg width="206" height="127" viewBox="0 0 206 127" fill="none" xmlns="http://www.w3.org/2000/svg">
<mask id="path-1-outside-1_67_4" maskUnits="userSpaceOnUse" x="8" y="9" width="186" height="107" fill="black">
<rect fill="white" x="8" y="9" width="186" height="107"/>
<path d="M22.4 27.65H29.05V36.15H22.4V27.65ZM38.7 27.65H45.3V36.15H38.7V27.65ZM13 34.1H54.85V39.35H13V34.1ZM33.85 41.7C43.85 41.7 49.9 44.7 49.9 50.05C49.9 55.45 43.85 58.45 33.85 58.45C23.8 58.45 17.75 55.45 17.75 50.05C17.75 44.7 23.8 41.7 33.85 41.7ZM33.85 46.7C27.65 46.7 24.5 47.75 24.5 50.05C24.5 52.4 27.65 53.45 33.85 53.45C40.05 53.45 43.2 52.4 43.2 50.05C43.2 47.75 40.05 46.7 33.85 46.7ZM33.95 12.8C44.15 12.8 50.7 16.2 50.7 21.75C50.7 27.25 44.15 30.55 33.95 30.55C23.7 30.55 17.2 27.25 17.2 21.75C17.2 16.2 23.7 12.8 33.95 12.8ZM33.95 17.9C27.6 17.9 24.05 19.15 24.05 21.75C24.05 24.3 27.6 25.55 33.95 25.55C40.3 25.55 43.85 24.3 43.85 21.75C43.85 19.15 40.3 17.9 33.95 17.9ZM90.7961 12.2H97.4961V45.45H90.7961V12.2ZM66.6461 52.35H98.6461V57.65H66.6461V52.35ZM66.6461 42.1H73.2961V54.5H66.6461V42.1ZM72.2961 15.1C79.3961 15.1 84.8461 20 84.8461 26.85C84.8461 33.65 79.3961 38.6 72.2961 38.6C65.1961 38.6 59.6961 33.65 59.6961 26.85C59.6961 20 65.1961 15.1 72.2961 15.1ZM72.2961 20.85C68.8461 20.85 66.1961 23.05 66.1961 26.85C66.1961 30.6 68.8461 32.8 72.2961 32.8C75.6961 32.8 78.3461 30.6 78.3461 26.85C78.3461 23.05 75.6961 20.85 72.2961 20.85ZM104.592 39.4H138.072V43.64H104.592V39.4ZM108.632 52.68H134.312V56.92H108.632V52.68ZM108.632 46.12H113.952V54.04H108.632V46.12ZM121.352 21.6C129.392 21.6 134.752 24.52 134.752 29.24C134.752 33.96 129.392 36.88 121.352 36.88C113.272 36.88 107.952 33.96 107.952 29.24C107.952 24.52 113.272 21.6 121.352 21.6ZM121.352 25.84C116.352 25.84 113.432 27 113.432 29.24C113.432 31.52 116.352 32.64 121.352 32.64C126.352 32.64 129.272 31.52 129.272 29.24C129.272 27 126.352 25.84 121.352 25.84ZM41.78 71.29H47.765V113.095H41.78V71.29ZM34.445 87.31H43.13V92.125H34.445V87.31ZM22.43 82.135H27.11V84.295C27.11 93.07 23.33 101.935 15.77 105.31L12.575 100.72C19.325 97.615 22.43 90.55 22.43 84.295V82.135ZM23.735 82.135H28.37V84.295C28.37 90.28 31.565 97.03 38.315 100.045L35.165 104.59C27.515 101.35 23.735 92.8 23.735 84.295V82.135ZM13.97 78.13H36.695V82.855H13.97V78.13ZM22.43 72.28H28.415V80.56H22.43V72.28ZM73.0515 72.1C82.2315 72.1 88.1265 75.205 88.1265 80.245C88.1265 85.285 82.2315 88.345 73.0515 88.345C63.8715 88.345 57.9765 85.285 57.9765 80.245C57.9765 75.205 63.8715 72.1 73.0515 72.1ZM73.0515 76.735C67.3365 76.735 64.1415 77.86 64.1415 80.245C64.1415 82.585 67.3365 83.755 73.0515 83.755C78.7215 83.755 81.9615 82.585 81.9615 80.245C81.9615 77.86 78.7215 76.735 73.0515 76.735ZM58.5615 98.335H87.3615V112.555H58.5615V98.335ZM81.5115 103.06H64.4565V107.83H81.5115V103.06ZM54.1965 90.73H91.8615V95.455H54.1965V90.73ZM120.793 75.48H126.153V112.64H120.793V75.48ZM106.193 78.08C111.793 78.08 115.913 83.2 115.913 91.28C115.913 99.44 111.793 104.56 106.193 104.56C100.593 104.56 96.473 99.44 96.473 91.28C96.473 83.2 100.593 78.08 106.193 78.08ZM106.193 82.92C103.433 82.92 101.553 85.84 101.553 91.28C101.553 96.8 103.433 99.76 106.193 99.76C108.953 99.76 110.793 96.8 110.793 91.28C110.793 85.84 108.953 82.92 106.193 82.92ZM141.11 81.36H145.35V85.52C145.35 94.08 141.87 102.44 134.91 105.6L131.91 101.4C138.11 98.64 141.11 91.8 141.11 85.52V81.36ZM142.31 81.36H146.51V85.52C146.51 91.52 149.47 97.92 155.67 100.48L152.79 104.68C145.75 101.64 142.31 93.76 142.31 85.52V81.36ZM133.39 79.08H154.15V83.44H133.39V79.08ZM157.59 75.52H162.95V112.56H157.59V75.52ZM172.587 85.72C172.053 85.8533 171.56 85.76 171.107 85.44C170.653 85.0933 170.427 84.64 170.427 84.08V82.88C170.427 82.2133 170.627 81.6267 171.027 81.12C171.453 80.5867 171.987 80.2667 172.627 80.16C175.373 79.6533 178 79.4 180.507 79.4C183.787 79.4 186.347 80.0533 188.187 81.36C190.027 82.6667 190.947 84.3733 190.947 86.48C190.947 87.4667 190.813 88.3467 190.547 89.12C190.307 89.8933 189.893 90.6 189.307 91.24C188.747 91.88 188.253 92.3733 187.827 92.72C187.427 93.04 186.813 93.48 185.987 94.04C185.293 94.5467 184.787 94.92 184.467 95.16C184.147 95.3733 183.76 95.72 183.307 96.2C182.853 96.6533 182.507 97.1067 182.267 97.56C181.52 99 180.573 99.72 179.427 99.72H177.707C177.067 99.72 176.533 99.4933 176.107 99.04C175.68 98.5867 175.547 98.0667 175.707 97.48C175.947 96.5733 176.373 95.7067 176.987 94.88C177.6 94.0267 178.147 93.4 178.627 93C179.107 92.5733 179.8 92.0267 180.707 91.36C181.427 90.8267 181.96 90.4 182.307 90.08C182.68 89.76 183.027 89.36 183.347 88.88C183.667 88.4 183.827 87.9067 183.827 87.4C183.827 85.64 182.387 84.76 179.507 84.76C177.4 84.76 175.093 85.08 172.587 85.72ZM177.347 103H179.747C180.36 103 180.893 103.227 181.347 103.68C181.8 104.133 182.027 104.667 182.027 105.28V106.72C182.027 107.333 181.8 107.867 181.347 108.32C180.893 108.773 180.36 109 179.747 109H177.347C176.733 109 176.2 108.773 175.747 108.32C175.32 107.867 175.107 107.333 175.107 106.72V105.28C175.107 104.667 175.32 104.133 175.747 103.68C176.2 103.227 176.733 103 177.347 103Z"/>
</mask>
<path d="M22.4 27.65H29.05V36.15H22.4V27.65ZM38.7 27.65H45.3V36.15H38.7V27.65ZM13 34.1H54.85V39.35H13V34.1ZM33.85 41.7C43.85 41.7 49.9 44.7 49.9 50.05C49.9 55.45 43.85 58.45 33.85 58.45C23.8 58.45 17.75 55.45 17.75 50.05C17.75 44.7 23.8 41.7 33.85 41.7ZM33.85 46.7C27.65 46.7 24.5 47.75 24.5 50.05C24.5 52.4 27.65 53.45 33.85 53.45C40.05 53.45 43.2 52.4 43.2 50.05C43.2 47.75 40.05 46.7 33.85 46.7ZM33.95 12.8C44.15 12.8 50.7 16.2 50.7 21.75C50.7 27.25 44.15 30.55 33.95 30.55C23.7 30.55 17.2 27.25 17.2 21.75C17.2 16.2 23.7 12.8 33.95 12.8ZM33.95 17.9C27.6 17.9 24.05 19.15 24.05 21.75C24.05 24.3 27.6 25.55 33.95 25.55C40.3 25.55 43.85 24.3 43.85 21.75C43.85 19.15 40.3 17.9 33.95 17.9ZM90.7961 12.2H97.4961V45.45H90.7961V12.2ZM66.6461 52.35H98.6461V57.65H66.6461V52.35ZM66.6461 42.1H73.2961V54.5H66.6461V42.1ZM72.2961 15.1C79.3961 15.1 84.8461 20 84.8461 26.85C84.8461 33.65 79.3961 38.6 72.2961 38.6C65.1961 38.6 59.6961 33.65 59.6961 26.85C59.6961 20 65.1961 15.1 72.2961 15.1ZM72.2961 20.85C68.8461 20.85 66.1961 23.05 66.1961 26.85C66.1961 30.6 68.8461 32.8 72.2961 32.8C75.6961 32.8 78.3461 30.6 78.3461 26.85C78.3461 23.05 75.6961 20.85 72.2961 20.85ZM104.592 39.4H138.072V43.64H104.592V39.4ZM108.632 52.68H134.312V56.92H108.632V52.68ZM108.632 46.12H113.952V54.04H108.632V46.12ZM121.352 21.6C129.392 21.6 134.752 24.52 134.752 29.24C134.752 33.96 129.392 36.88 121.352 36.88C113.272 36.88 107.952 33.96 107.952 29.24C107.952 24.52 113.272 21.6 121.352 21.6ZM121.352 25.84C116.352 25.84 113.432 27 113.432 29.24C113.432 31.52 116.352 32.64 121.352 32.64C126.352 32.64 129.272 31.52 129.272 29.24C129.272 27 126.352 25.84 121.352 25.84ZM41.78 71.29H47.765V113.095H41.78V71.29ZM34.445 87.31H43.13V92.125H34.445V87.31ZM22.43 82.135H27.11V84.295C27.11 93.07 23.33 101.935 15.77 105.31L12.575 100.72C19.325 97.615 22.43 90.55 22.43 84.295V82.135ZM23.735 82.135H28.37V84.295C28.37 90.28 31.565 97.03 38.315 100.045L35.165 104.59C27.515 101.35 23.735 92.8 23.735 84.295V82.135ZM13.97 78.13H36.695V82.855H13.97V78.13ZM22.43 72.28H28.415V80.56H22.43V72.28ZM73.0515 72.1C82.2315 72.1 88.1265 75.205 88.1265 80.245C88.1265 85.285 82.2315 88.345 73.0515 88.345C63.8715 88.345 57.9765 85.285 57.9765 80.245C57.9765 75.205 63.8715 72.1 73.0515 72.1ZM73.0515 76.735C67.3365 76.735 64.1415 77.86 64.1415 80.245C64.1415 82.585 67.3365 83.755 73.0515 83.755C78.7215 83.755 81.9615 82.585 81.9615 80.245C81.9615 77.86 78.7215 76.735 73.0515 76.735ZM58.5615 98.335H87.3615V112.555H58.5615V98.335ZM81.5115 103.06H64.4565V107.83H81.5115V103.06ZM54.1965 90.73H91.8615V95.455H54.1965V90.73ZM120.793 75.48H126.153V112.64H120.793V75.48ZM106.193 78.08C111.793 78.08 115.913 83.2 115.913 91.28C115.913 99.44 111.793 104.56 106.193 104.56C100.593 104.56 96.473 99.44 96.473 91.28C96.473 83.2 100.593 78.08 106.193 78.08ZM106.193 82.92C103.433 82.92 101.553 85.84 101.553 91.28C101.553 96.8 103.433 99.76 106.193 99.76C108.953 99.76 110.793 96.8 110.793 91.28C110.793 85.84 108.953 82.92 106.193 82.92ZM141.11 81.36H145.35V85.52C145.35 94.08 141.87 102.44 134.91 105.6L131.91 101.4C138.11 98.64 141.11 91.8 141.11 85.52V81.36ZM142.31 81.36H146.51V85.52C146.51 91.52 149.47 97.92 155.67 100.48L152.79 104.68C145.75 101.64 142.31 93.76 142.31 85.52V81.36ZM133.39 79.08H154.15V83.44H133.39V79.08ZM157.59 75.52H162.95V112.56H157.59V75.52ZM172.587 85.72C172.053 85.8533 171.56 85.76 171.107 85.44C170.653 85.0933 170.427 84.64 170.427 84.08V82.88C170.427 82.2133 170.627 81.6267 171.027 81.12C171.453 80.5867 171.987 80.2667 172.627 80.16C175.373 79.6533 178 79.4 180.507 79.4C183.787 79.4 186.347 80.0533 188.187 81.36C190.027 82.6667 190.947 84.3733 190.947 86.48C190.947 87.4667 190.813 88.3467 190.547 89.12C190.307 89.8933 189.893 90.6 189.307 91.24C188.747 91.88 188.253 92.3733 187.827 92.72C187.427 93.04 186.813 93.48 185.987 94.04C185.293 94.5467 184.787 94.92 184.467 95.16C184.147 95.3733 183.76 95.72 183.307 96.2C182.853 96.6533 182.507 97.1067 182.267 97.56C181.52 99 180.573 99.72 179.427 99.72H177.707C177.067 99.72 176.533 99.4933 176.107 99.04C175.68 98.5867 175.547 98.0667 175.707 97.48C175.947 96.5733 176.373 95.7067 176.987 94.88C177.6 94.0267 178.147 93.4 178.627 93C179.107 92.5733 179.8 92.0267 180.707 91.36C181.427 90.8267 181.96 90.4 182.307 90.08C182.68 89.76 183.027 89.36 183.347 88.88C183.667 88.4 183.827 87.9067 183.827 87.4C183.827 85.64 182.387 84.76 179.507 84.76C177.4 84.76 175.093 85.08 172.587 85.72ZM177.347 103H179.747C180.36 103 180.893 103.227 181.347 103.68C181.8 104.133 182.027 104.667 182.027 105.28V106.72C182.027 107.333 181.8 107.867 181.347 108.32C180.893 108.773 180.36 109 179.747 109H177.347C176.733 109 176.2 108.773 175.747 108.32C175.32 107.867 175.107 107.333 175.107 106.72V105.28C175.107 104.667 175.32 104.133 175.747 103.68C176.2 103.227 176.733 103 177.347 103Z" fill="white"/>
<path d="M22.4 27.65V25.15H19.9V27.65H22.4ZM29.05 27.65H31.55V25.15H29.05V27.65ZM29.05 36.15V38.65H31.55V36.15H29.05ZM22.4 36.15H19.9V38.65H22.4V36.15ZM38.7 27.65V25.15H36.2V27.65H38.7ZM45.3 27.65H47.8V25.15H45.3V27.65ZM45.3 36.15V38.65H47.8V36.15H45.3ZM38.7 36.15H36.2V38.65H38.7V36.15ZM13 34.1V31.6H10.5V34.1H13ZM54.85 34.1H57.35V31.6H54.85V34.1ZM54.85 39.35V41.85H57.35V39.35H54.85ZM13 39.35H10.5V41.85H13V39.35ZM22.4 30.15H29.05V25.15H22.4V30.15ZM26.55 27.65V36.15H31.55V27.65H26.55ZM29.05 33.65H22.4V38.65H29.05V33.65ZM24.9 36.15V27.65H19.9V36.15H24.9ZM38.7 30.15H45.3V25.15H38.7V30.15ZM42.8 27.65V36.15H47.8V27.65H42.8ZM45.3 33.65H38.7V38.65H45.3V33.65ZM41.2 36.15V27.65H36.2V36.15H41.2ZM13 36.6H54.85V31.6H13V36.6ZM52.35 34.1V39.35H57.35V34.1H52.35ZM54.85 36.85H13V41.85H54.85V36.85ZM15.5 39.35V34.1H10.5V39.35H15.5ZM33.85 44.2C38.6603 44.2 42.221 44.931 44.4829 46.0926C46.6398 47.2004 47.4 48.5437 47.4 50.05H52.4C52.4 46.2063 50.1352 43.3746 46.7671 41.6449C43.504 39.969 39.0397 39.2 33.85 39.2V44.2ZM47.4 50.05C47.4 51.5911 46.629 52.9441 44.4789 54.0532C42.2192 55.2188 38.6609 55.95 33.85 55.95V60.95C39.0391 60.95 43.5058 60.1812 46.7711 58.4968C50.146 56.7559 52.4 53.9089 52.4 50.05H47.4ZM33.85 55.95C29.0126 55.95 25.4414 55.2184 23.1753 54.0521C21.0198 52.9427 20.25 51.59 20.25 50.05H15.25C15.25 53.91 17.5052 56.7573 20.8872 58.4979C24.1586 60.1816 28.6374 60.95 33.85 60.95V55.95ZM20.25 50.05C20.25 48.5447 21.0089 47.2017 23.1713 46.0937C25.4396 44.9314 29.0132 44.2 33.85 44.2V39.2C28.6368 39.2 24.1604 39.9686 20.8912 41.6438C17.5161 43.3733 15.25 46.2053 15.25 50.05H20.25ZM33.85 44.2C30.6813 44.2 27.9954 44.459 26.0199 45.1543C25.0178 45.5071 24.0224 46.0319 23.258 46.8541C22.4397 47.7344 22 48.8379 22 50.05H27C27 50.0495 27 50.0619 26.9959 50.0844C26.9917 50.1072 26.9843 50.1346 26.9728 50.1638C26.9477 50.2274 26.919 50.2596 26.9201 50.2584C26.9401 50.2369 27.1197 50.0679 27.6801 49.8707C28.8296 49.466 30.8187 49.2 33.85 49.2V44.2ZM22 50.05C22 51.2591 22.4287 52.3679 23.2441 53.2597C24.0075 54.0946 25.005 54.6281 26.0115 54.9865C27.992 55.6915 30.6831 55.95 33.85 55.95V50.95C30.8169 50.95 28.833 50.6835 27.6885 50.276C27.1325 50.0781 26.955 49.9085 26.934 49.8856C26.9319 49.8833 26.9569 49.9117 26.9787 49.9678C27.0003 50.0237 27 50.0589 27 50.05H22ZM33.85 55.95C37.0169 55.95 39.708 55.6915 41.6885 54.9865C42.695 54.6281 43.6925 54.0946 44.4559 53.2597C45.2714 52.3679 45.7 51.2591 45.7 50.05H40.7C40.7 50.0589 40.6997 50.0237 40.7213 49.9678C40.7431 49.9117 40.7681 49.8833 40.766 49.8856C40.745 49.9085 40.5675 50.0781 40.0115 50.276C38.867 50.6835 36.8831 50.95 33.85 50.95V55.95ZM45.7 50.05C45.7 48.8379 45.2603 47.7344 44.442 46.8541C43.6776 46.0319 42.6822 45.5071 41.6801 45.1543C39.7046 44.459 37.0187 44.2 33.85 44.2V49.2C36.8813 49.2 38.8704 49.466 40.0199 49.8707C40.5803 50.0679 40.7599 50.2369 40.7799 50.2584C40.781 50.2596 40.7523 50.2274 40.7272 50.1638C40.7157 50.1346 40.7083 50.1072 40.7041 50.0844C40.7 50.0619 40.7 50.0495 40.7 50.05H45.7ZM33.95 15.3C38.8237 15.3 42.5596 16.1201 44.9792 17.4026C47.3339 18.6507 48.2 20.1618 48.2 21.75H53.2C53.2 17.7882 50.7911 14.8243 47.3208 12.9849C43.9154 11.1798 39.2763 10.3 33.95 10.3V15.3ZM48.2 21.75C48.2 23.2949 47.355 24.7697 44.9978 25.9938C42.5751 27.252 38.8332 28.05 33.95 28.05V33.05C39.2668 33.05 43.8999 32.198 47.3022 30.4312C50.77 28.6303 53.2 25.7051 53.2 21.75H48.2ZM33.95 28.05C29.0398 28.05 25.2998 27.2514 22.8854 25.9948C20.5411 24.7748 19.7 23.3025 19.7 21.75H14.7C14.7 25.6975 17.1089 28.6252 20.5771 30.4302C23.9752 32.1986 28.6102 33.05 33.95 33.05V28.05ZM19.7 21.75C19.7 20.1543 20.5621 18.6456 22.904 17.4016C25.3153 16.1208 29.0494 15.3 33.95 15.3V10.3C28.6006 10.3 23.9597 11.1792 20.5585 12.9859C17.0879 14.8294 14.7 17.7957 14.7 21.75H19.7ZM33.95 15.4C30.6784 15.4 27.8408 15.7129 25.7324 16.5124C23.5982 17.3216 21.55 18.9495 21.55 21.75H26.55C26.55 21.7297 26.5352 21.7541 26.5669 21.7186C26.6439 21.6326 26.8925 21.4199 27.5051 21.1876C28.7592 20.7121 30.8716 20.4 33.95 20.4V15.4ZM21.55 21.75C21.55 24.5477 23.6283 26.1538 25.74 26.9467C27.8438 27.7366 30.677 28.05 33.95 28.05V23.05C30.873 23.05 28.7562 22.7384 27.4975 22.2658C26.881 22.0343 26.6308 21.8227 26.5547 21.7389C26.5245 21.7056 26.5306 21.7028 26.5413 21.73C26.5525 21.7585 26.55 21.7722 26.55 21.75H21.55ZM33.95 28.05C37.223 28.05 40.0562 27.7366 42.16 26.9467C44.2717 26.1538 46.35 24.5477 46.35 21.75H41.35C41.35 21.7722 41.3475 21.7585 41.3587 21.73C41.3694 21.7028 41.3755 21.7056 41.3453 21.7389C41.2692 21.8227 41.019 22.0343 40.4025 22.2658C39.1438 22.7384 37.027 23.05 33.95 23.05V28.05ZM46.35 21.75C46.35 18.9495 44.3018 17.3216 42.1676 16.5124C40.0592 15.7129 37.2216 15.4 33.95 15.4V20.4C37.0284 20.4 39.1408 20.7121 40.3949 21.1876C41.0075 21.4199 41.2561 21.6326 41.3331 21.7186C41.3648 21.7541 41.35 21.7297 41.35 21.75H46.35ZM90.7961 12.2V9.7H88.2961V12.2H90.7961ZM97.4961 12.2H99.9961V9.7H97.4961V12.2ZM97.4961 45.45V47.95H99.9961V45.45H97.4961ZM90.7961 45.45H88.2961V47.95H90.7961V45.45ZM66.6461 52.35V49.85H64.1461V52.35H66.6461ZM98.6461 52.35H101.146V49.85H98.6461V52.35ZM98.6461 57.65V60.15H101.146V57.65H98.6461ZM66.6461 57.65H64.1461V60.15H66.6461V57.65ZM66.6461 42.1V39.6H64.1461V42.1H66.6461ZM73.2961 42.1H75.7961V39.6H73.2961V42.1ZM73.2961 54.5V57H75.7961V54.5H73.2961ZM66.6461 54.5H64.1461V57H66.6461V54.5ZM90.7961 14.7H97.4961V9.7H90.7961V14.7ZM94.9961 12.2V45.45H99.9961V12.2H94.9961ZM97.4961 42.95H90.7961V47.95H97.4961V42.95ZM93.2961 45.45V12.2H88.2961V45.45H93.2961ZM66.6461 54.85H98.6461V49.85H66.6461V54.85ZM96.1461 52.35V57.65H101.146V52.35H96.1461ZM98.6461 55.15H66.6461V60.15H98.6461V55.15ZM69.1461 57.65V52.35H64.1461V57.65H69.1461ZM66.6461 44.6H73.2961V39.6H66.6461V44.6ZM70.7961 42.1V54.5H75.7961V42.1H70.7961ZM73.2961 52H66.6461V57H73.2961V52ZM69.1461 54.5V42.1H64.1461V54.5H69.1461ZM72.2961 17.6C78.2025 17.6 82.3461 21.5607 82.3461 26.85H87.3461C87.3461 18.4393 80.5897 12.6 72.2961 12.6V17.6ZM82.3461 26.85C82.3461 32.0961 78.1952 36.1 72.2961 36.1V41.1C80.597 41.1 87.3461 35.2039 87.3461 26.85H82.3461ZM72.2961 36.1C66.3835 36.1 62.1961 32.0836 62.1961 26.85H57.1961C57.1961 35.2164 64.0087 41.1 72.2961 41.1V36.1ZM62.1961 26.85C62.1961 21.5731 66.3762 17.6 72.2961 17.6V12.6C64.016 12.6 57.1961 18.4269 57.1961 26.85H62.1961ZM72.2961 18.35C70.0442 18.35 67.8732 19.073 66.2428 20.6008C64.5896 22.1502 63.6961 24.3382 63.6961 26.85H68.6961C68.6961 25.5618 69.1276 24.7498 69.6619 24.2492C70.219 23.727 71.098 23.35 72.2961 23.35V18.35ZM63.6961 26.85C63.6961 29.3463 64.5962 31.5217 66.2484 33.0606C67.8769 34.5774 70.0445 35.3 72.2961 35.3V30.3C71.0977 30.3 70.2153 29.9226 69.6563 29.4019C69.121 28.9033 68.6961 28.1037 68.6961 26.85H63.6961ZM72.2961 35.3C74.5315 35.3 76.6867 34.572 78.3052 33.0557C79.9466 31.5182 80.8461 29.3458 80.8461 26.85H75.8461C75.8461 28.1042 75.4206 28.9068 74.8869 29.4068C74.3305 29.928 73.4607 30.3 72.2961 30.3V35.3ZM80.8461 26.85C80.8461 24.3387 79.9531 22.1537 78.3108 20.6057C76.6904 19.0784 74.5319 18.35 72.2961 18.35V23.35C73.4603 23.35 74.3268 23.7216 74.8814 24.2443C75.414 24.7463 75.8461 25.5613 75.8461 26.85H80.8461ZM104.592 39.4V36.9H102.092V39.4H104.592ZM138.072 39.4H140.572V36.9H138.072V39.4ZM138.072 43.64V46.14H140.572V43.64H138.072ZM104.592 43.64H102.092V46.14H104.592V43.64ZM108.632 52.68V50.18H106.132V52.68H108.632ZM134.312 52.68H136.812V50.18H134.312V52.68ZM134.312 56.92V59.42H136.812V56.92H134.312ZM108.632 56.92H106.132V59.42H108.632V56.92ZM108.632 46.12V43.62H106.132V46.12H108.632ZM113.952 46.12H116.452V43.62H113.952V46.12ZM113.952 54.04V56.54H116.452V54.04H113.952ZM108.632 54.04H106.132V56.54H108.632V54.04ZM104.592 41.9H138.072V36.9H104.592V41.9ZM135.572 39.4V43.64H140.572V39.4H135.572ZM138.072 41.14H104.592V46.14H138.072V41.14ZM107.092 43.64V39.4H102.092V43.64H107.092ZM108.632 55.18H134.312V50.18H108.632V55.18ZM131.812 52.68V56.92H136.812V52.68H131.812ZM134.312 54.42H108.632V59.42H134.312V54.42ZM111.132 56.92V52.68H106.132V56.92H111.132ZM108.632 48.62H113.952V43.62H108.632V48.62ZM111.452 46.12V54.04H116.452V46.12H111.452ZM113.952 51.54H108.632V56.54H113.952V51.54ZM111.132 54.04V46.12H106.132V54.04H111.132ZM121.352 24.1C125.118 24.1 127.998 24.7912 129.841 25.8286C131.616 26.8277 132.252 28.0069 132.252 29.24H137.252C137.252 25.7531 135.209 23.1123 132.294 21.4714C129.446 19.8688 125.627 19.1 121.352 19.1V24.1ZM132.252 29.24C132.252 30.4731 131.616 31.6523 129.841 32.6514C127.998 33.6888 125.118 34.38 121.352 34.38V39.38C125.627 39.38 129.446 38.6112 132.294 37.0086C135.209 35.3677 137.252 32.7269 137.252 29.24H132.252ZM121.352 34.38C117.565 34.38 114.686 33.6881 112.85 32.6526C111.086 31.6574 110.452 30.4804 110.452 29.24H105.452C105.452 32.7196 107.478 35.3626 110.394 37.0074C113.238 38.6119 117.06 39.38 121.352 39.38V34.38ZM110.452 29.24C110.452 27.9996 111.086 26.8226 112.85 25.8274C114.686 24.7919 117.565 24.1 121.352 24.1V19.1C117.06 19.1 113.238 19.8681 110.394 21.4726C107.478 23.1174 105.452 25.7604 105.452 29.24H110.452ZM121.352 23.34C118.723 23.34 116.354 23.6358 114.548 24.3956C112.69 25.1772 110.932 26.722 110.932 29.24H115.932C115.932 29.2367 115.932 29.2643 115.917 29.3062C115.901 29.3475 115.885 29.3667 115.89 29.3609C115.909 29.3376 116.051 29.1875 116.487 29.0044C117.39 28.6242 118.981 28.34 121.352 28.34V23.34ZM110.932 29.24C110.932 31.7689 112.678 33.3198 114.555 34.1024C116.363 34.8562 118.733 35.14 121.352 35.14V30.14C118.972 30.14 117.382 29.8638 116.479 29.4876C116.047 29.3071 115.91 29.1598 115.893 29.1402C115.89 29.136 115.906 29.1551 115.92 29.1936C115.933 29.2322 115.932 29.2534 115.932 29.24H110.932ZM121.352 35.14C123.972 35.14 126.342 34.8562 128.149 34.1024C130.026 33.3198 131.772 31.7689 131.772 29.24H126.772C126.772 29.2534 126.771 29.2322 126.785 29.1936C126.799 29.1551 126.814 29.136 126.811 29.1402C126.795 29.1598 126.658 29.3071 126.225 29.4876C125.323 29.8638 123.733 30.14 121.352 30.14V35.14ZM131.772 29.24C131.772 26.722 130.015 25.1772 128.157 24.3956C126.35 23.6358 123.981 23.34 121.352 23.34V28.34C123.723 28.34 125.314 28.6242 126.218 29.0044C126.653 29.1875 126.795 29.3376 126.814 29.3609C126.819 29.3667 126.803 29.3475 126.788 29.3062C126.773 29.2643 126.772 29.2367 126.772 29.24H131.772ZM41.78 71.29V68.79H39.28V71.29H41.78ZM47.765 71.29H50.265V68.79H47.765V71.29ZM47.765 113.095V115.595H50.265V113.095H47.765ZM41.78 113.095H39.28V115.595H41.78V113.095ZM34.445 87.31V84.81H31.945V87.31H34.445ZM43.13 87.31H45.63V84.81H43.13V87.31ZM43.13 92.125V94.625H45.63V92.125H43.13ZM34.445 92.125H31.945V94.625H34.445V92.125ZM22.43 82.135V79.635H19.93V82.135H22.43ZM27.11 82.135H29.61V79.635H27.11V82.135ZM15.77 105.31L13.7181 106.738L14.9 108.436L16.7891 107.593L15.77 105.31ZM12.575 100.72L11.5302 98.4488L8.81684 99.6969L10.5231 102.148L12.575 100.72ZM23.735 82.135V79.635H21.235V82.135H23.735ZM28.37 82.135H30.87V79.635H28.37V82.135ZM38.315 100.045L40.3697 101.469L42.0868 98.9917L39.3346 97.7624L38.315 100.045ZM35.165 104.59L34.19 106.892L36.0618 107.685L37.2197 106.014L35.165 104.59ZM13.97 78.13V75.63H11.47V78.13H13.97ZM36.695 78.13H39.195V75.63H36.695V78.13ZM36.695 82.855V85.355H39.195V82.855H36.695ZM13.97 82.855H11.47V85.355H13.97V82.855ZM22.43 72.28V69.78H19.93V72.28H22.43ZM28.415 72.28H30.915V69.78H28.415V72.28ZM28.415 80.56V83.06H30.915V80.56H28.415ZM22.43 80.56H19.93V83.06H22.43V80.56ZM41.78 73.79H47.765V68.79H41.78V73.79ZM45.265 71.29V113.095H50.265V71.29H45.265ZM47.765 110.595H41.78V115.595H47.765V110.595ZM44.28 113.095V71.29H39.28V113.095H44.28ZM34.445 89.81H43.13V84.81H34.445V89.81ZM40.63 87.31V92.125H45.63V87.31H40.63ZM43.13 89.625H34.445V94.625H43.13V89.625ZM36.945 92.125V87.31H31.945V92.125H36.945ZM22.43 84.635H27.11V79.635H22.43V84.635ZM24.61 82.135V84.295H29.61V82.135H24.61ZM24.61 84.295C24.61 92.5429 21.0546 100.213 14.7509 103.027L16.7891 107.593C25.6054 103.657 29.61 93.5971 29.61 84.295H24.61ZM17.8219 103.882L14.6269 99.2917L10.5231 102.148L13.7181 106.738L17.8219 103.882ZM13.6198 102.991C21.4806 99.3752 24.93 91.2532 24.93 84.295H19.93C19.93 89.8468 17.1694 95.8548 11.5302 98.4488L13.6198 102.991ZM24.93 84.295V82.135H19.93V84.295H24.93ZM23.735 84.635H28.37V79.635H23.735V84.635ZM25.87 82.135V84.295H30.87V82.135H25.87ZM25.87 84.295C25.87 91.0738 29.4813 98.8374 37.2954 102.328L39.3346 97.7624C33.6487 95.2226 30.87 89.4862 30.87 84.295H25.87ZM36.2603 98.6209L33.1103 103.166L37.2197 106.014L40.3697 101.469L36.2603 98.6209ZM36.14 102.288C29.7537 99.5832 26.235 92.2246 26.235 84.295H21.235C21.235 93.3754 25.2763 103.117 34.19 106.892L36.14 102.288ZM26.235 84.295V82.135H21.235V84.295H26.235ZM13.97 80.63H36.695V75.63H13.97V80.63ZM34.195 78.13V82.855H39.195V78.13H34.195ZM36.695 80.355H13.97V85.355H36.695V80.355ZM16.47 82.855V78.13H11.47V82.855H16.47ZM22.43 74.78H28.415V69.78H22.43V74.78ZM25.915 72.28V80.56H30.915V72.28H25.915ZM28.415 78.06H22.43V83.06H28.415V78.06ZM24.93 80.56V72.28H19.93V80.56H24.93ZM58.5615 98.335V95.835H56.0615V98.335H58.5615ZM87.3615 98.335H89.8615V95.835H87.3615V98.335ZM87.3615 112.555V115.055H89.8615V112.555H87.3615ZM58.5615 112.555H56.0615V115.055H58.5615V112.555ZM81.5115 103.06H84.0115V100.56H81.5115V103.06ZM64.4565 103.06V100.56H61.9565V103.06H64.4565ZM64.4565 107.83H61.9565V110.33H64.4565V107.83ZM81.5115 107.83V110.33H84.0115V107.83H81.5115ZM54.1965 90.73V88.23H51.6965V90.73H54.1965ZM91.8615 90.73H94.3615V88.23H91.8615V90.73ZM91.8615 95.455V97.955H94.3615V95.455H91.8615ZM54.1965 95.455H51.6965V97.955H54.1965V95.455ZM73.0515 74.6C77.4106 74.6 80.7238 75.345 82.8496 76.4855C84.9087 77.5902 85.6265 78.8984 85.6265 80.245H90.6265C90.6265 76.5516 88.3967 73.7873 85.2134 72.0795C82.0967 70.4075 77.8723 69.6 73.0515 69.6V74.6ZM85.6265 80.245C85.6265 81.5872 84.9138 82.8834 82.857 83.9781C80.7307 85.1097 77.4157 85.845 73.0515 85.845V90.845C77.8673 90.845 82.0898 90.0503 85.206 88.3919C88.3916 86.6966 90.6265 83.9428 90.6265 80.245H85.6265ZM73.0515 85.845C68.6873 85.845 65.3723 85.1097 63.246 83.9781C61.1891 82.8834 60.4765 81.5872 60.4765 80.245H55.4765C55.4765 83.9428 57.7113 86.6966 60.897 88.3919C64.0132 90.0503 68.2357 90.845 73.0515 90.845V85.845ZM60.4765 80.245C60.4765 78.8984 61.1942 77.5902 63.2534 76.4855C65.3792 75.345 68.6923 74.6 73.0515 74.6V69.6C68.2306 69.6 64.0063 70.4075 60.8896 72.0795C57.7062 73.7873 55.4765 76.5516 55.4765 80.245H60.4765ZM73.0515 74.235C70.0988 74.235 67.5042 74.5163 65.5594 75.2609C63.5717 76.022 61.6415 77.574 61.6415 80.245H66.6415C66.6415 80.2316 66.6426 80.2561 66.6266 80.2983C66.6107 80.3399 66.5944 80.356 66.6049 80.344C66.6397 80.3046 66.8225 80.1313 67.3473 79.9303C68.4288 79.5162 70.2891 79.235 73.0515 79.235V74.235ZM61.6415 80.245C61.6415 82.9031 63.5847 84.4488 65.5518 85.2093C67.4955 85.9607 70.0893 86.255 73.0515 86.255V81.255C70.2986 81.255 68.4375 80.9643 67.3549 80.5457C66.8278 80.3419 66.6394 80.1658 66.601 80.1225C66.5887 80.1087 66.6058 80.1248 66.623 80.1695C66.6406 80.2152 66.6415 80.247 66.6415 80.245H61.6415ZM73.0515 86.255C75.9938 86.255 78.5849 85.9602 80.5313 85.2104C82.4881 84.4567 84.4615 82.9171 84.4615 80.245H79.4615C79.4615 80.2464 79.4614 80.2371 79.4646 80.2196C79.4679 80.2019 79.4734 80.1814 79.4816 80.1605C79.4995 80.1144 79.5169 80.0987 79.5031 80.1142C79.4611 80.1611 79.2666 80.3395 78.7341 80.5446C77.6431 80.9648 75.7792 81.255 73.0515 81.255V86.255ZM84.4615 80.245C84.4615 77.5599 82.5012 76.0142 80.5238 75.2598C78.5762 74.5168 75.9843 74.235 73.0515 74.235V79.235C75.7887 79.235 77.6518 79.5157 78.7417 79.9314C79.2719 80.1337 79.4608 80.3093 79.4991 80.3524C79.5112 80.366 79.4945 80.3503 79.478 80.3072C79.4611 80.2634 79.4615 80.2359 79.4615 80.245H84.4615ZM58.5615 100.835H87.3615V95.835H58.5615V100.835ZM84.8615 98.335V112.555H89.8615V98.335H84.8615ZM87.3615 110.055H58.5615V115.055H87.3615V110.055ZM61.0615 112.555V98.335H56.0615V112.555H61.0615ZM81.5115 100.56H64.4565V105.56H81.5115V100.56ZM61.9565 103.06V107.83H66.9565V103.06H61.9565ZM64.4565 110.33H81.5115V105.33H64.4565V110.33ZM84.0115 107.83V103.06H79.0115V107.83H84.0115ZM54.1965 93.23H91.8615V88.23H54.1965V93.23ZM89.3615 90.73V95.455H94.3615V90.73H89.3615ZM91.8615 92.955H54.1965V97.955H91.8615V92.955ZM56.6965 95.455V90.73H51.6965V95.455H56.6965ZM120.793 75.48V72.98H118.293V75.48H120.793ZM126.153 75.48H128.653V72.98H126.153V75.48ZM126.153 112.64V115.14H128.653V112.64H126.153ZM120.793 112.64H118.293V115.14H120.793V112.64ZM120.793 77.98H126.153V72.98H120.793V77.98ZM123.653 75.48V112.64H128.653V75.48H123.653ZM126.153 110.14H120.793V115.14H126.153V110.14ZM123.293 112.64V75.48H118.293V112.64H123.293ZM106.193 80.58C108.155 80.58 109.867 81.4476 111.158 83.157C112.484 84.9115 113.413 87.6414 113.413 91.28H118.413C118.413 86.8386 117.282 82.9685 115.148 80.143C112.979 77.2724 109.831 75.58 106.193 75.58V80.58ZM113.413 91.28C113.413 94.9636 112.481 97.714 111.155 99.4772C109.864 101.194 108.154 102.06 106.193 102.06V107.06C109.832 107.06 112.982 105.366 115.151 102.483C117.285 99.646 118.413 95.7564 118.413 91.28H113.413ZM106.193 102.06C104.232 102.06 102.522 101.194 101.231 99.4772C99.9047 97.714 98.973 94.9636 98.973 91.28H93.973C93.973 95.7564 95.1013 99.646 97.2351 102.483C99.404 105.366 102.554 107.06 106.193 107.06V102.06ZM98.973 91.28C98.973 87.6414 99.9022 84.9115 101.228 83.157C102.519 81.4476 104.231 80.58 106.193 80.58V75.58C102.555 75.58 99.4068 77.2724 97.2382 80.143C95.1037 82.9685 93.973 86.8386 93.973 91.28H98.973ZM106.193 80.42C103.761 80.42 101.85 81.7742 100.674 83.8089C99.555 85.7441 99.053 88.3254 99.053 91.28H104.053C104.053 88.7946 104.491 87.1959 105.002 86.3111C105.456 85.5258 105.865 85.42 106.193 85.42V80.42ZM99.053 91.28C99.053 94.27 99.5536 96.8761 100.666 98.8279C101.834 100.878 103.744 102.26 106.193 102.26V97.26C105.882 97.26 105.472 97.1623 105.01 96.3521C104.492 95.4439 104.053 93.81 104.053 91.28H99.053ZM106.193 102.26C108.648 102.26 110.55 100.87 111.707 98.8164C112.805 96.8654 113.293 94.2623 113.293 91.28H108.293C108.293 93.8177 107.861 95.4546 107.349 96.3636C106.896 97.1695 106.498 97.26 106.193 97.26V102.26ZM113.293 91.28C113.293 88.3333 112.803 85.7549 111.699 83.8205C110.535 81.7811 108.631 80.42 106.193 80.42V85.42C106.515 85.42 106.911 85.5189 107.357 86.2995C107.862 87.1851 108.293 88.7867 108.293 91.28H113.293ZM141.11 81.36V78.86H138.61V81.36H141.11ZM145.35 81.36H147.85V78.86H145.35V81.36ZM134.91 105.6L132.876 107.053L134.071 108.727L135.943 107.876L134.91 105.6ZM131.91 101.4L130.893 99.1161L128.096 100.361L129.876 102.853L131.91 101.4ZM142.31 81.36V78.86H139.81V81.36H142.31ZM146.51 81.36H149.01V78.86H146.51V81.36ZM155.67 100.48L157.732 101.894L159.478 99.3475L156.624 98.1692L155.67 100.48ZM152.79 104.68L151.799 106.975L153.688 107.791L154.852 106.094L152.79 104.68ZM133.39 79.08V76.58H130.89V79.08H133.39ZM154.15 79.08H156.65V76.58H154.15V79.08ZM154.15 83.44V85.94H156.65V83.44H154.15ZM133.39 83.44H130.89V85.94H133.39V83.44ZM157.59 75.52V73.02H155.09V75.52H157.59ZM162.95 75.52H165.45V73.02H162.95V75.52ZM162.95 112.56V115.06H165.45V112.56H162.95ZM157.59 112.56H155.09V115.06H157.59V112.56ZM141.11 83.86H145.35V78.86H141.11V83.86ZM142.85 81.36V85.52H147.85V81.36H142.85ZM142.85 85.52C142.85 93.6048 139.56 100.743 133.876 103.324L135.943 107.876C144.18 104.137 147.85 94.5552 147.85 85.52H142.85ZM136.944 104.147L133.944 99.9469L129.876 102.853L132.876 107.053L136.944 104.147ZM132.927 103.684C140.311 100.397 143.61 92.4359 143.61 85.52H138.61C138.61 91.1641 135.909 96.8834 130.893 99.1161L132.927 103.684ZM143.61 85.52V81.36H138.61V85.52H143.61ZM142.31 83.86H146.51V78.86H142.31V83.86ZM144.01 81.36V85.52H149.01V81.36H144.01ZM144.01 85.52C144.01 92.2215 147.323 99.7383 154.716 102.791L156.624 98.1692C151.617 96.1017 149.01 90.8185 149.01 85.52H144.01ZM153.608 99.0662L150.728 103.266L154.852 106.094L157.732 101.894L153.608 99.0662ZM153.781 102.385C148.014 99.8944 144.81 93.2193 144.81 85.52H139.81C139.81 94.3007 143.486 103.386 151.799 106.975L153.781 102.385ZM144.81 85.52V81.36H139.81V85.52H144.81ZM133.39 81.58H154.15V76.58H133.39V81.58ZM151.65 79.08V83.44H156.65V79.08H151.65ZM154.15 80.94H133.39V85.94H154.15V80.94ZM135.89 83.44V79.08H130.89V83.44H135.89ZM157.59 78.02H162.95V73.02H157.59V78.02ZM160.45 75.52V112.56H165.45V75.52H160.45ZM162.95 110.06H157.59V115.06H162.95V110.06ZM160.09 112.56V75.52H155.09V112.56H160.09ZM172.587 85.72L173.193 88.1454L173.205 88.1423L172.587 85.72ZM171.107 85.44L169.588 87.4259L169.626 87.4549L169.665 87.4824L171.107 85.44ZM171.027 81.12L169.075 79.5583L169.07 79.5646L169.065 79.5709L171.027 81.12ZM172.627 80.16L173.038 82.626L173.059 82.6224L173.08 82.6185L172.627 80.16ZM188.187 81.36L189.634 79.3217L189.634 79.3217L188.187 81.36ZM190.547 89.12L188.183 88.305L188.171 88.3418L188.159 88.379L190.547 89.12ZM189.307 91.24L187.464 89.5507L187.444 89.572L187.425 89.5937L189.307 91.24ZM187.827 92.72L189.388 94.6722L189.396 94.6663L189.403 94.6603L187.827 92.72ZM185.987 94.04L184.585 91.9702L184.548 91.9952L184.512 92.0215L185.987 94.04ZM184.467 95.16L185.853 97.2401L185.911 97.2016L185.967 97.16L184.467 95.16ZM183.307 96.2L185.074 97.9678L185.1 97.9425L185.124 97.9166L183.307 96.2ZM182.267 97.56L180.057 96.3903L180.052 96.3997L180.047 96.4092L182.267 97.56ZM176.107 99.04L177.927 97.3266L177.927 97.3266L176.107 99.04ZM175.707 97.48L178.119 98.1378L178.121 98.1288L178.123 98.1197L175.707 97.48ZM176.987 94.88L178.994 96.3696L179.006 96.3544L179.017 96.3391L176.987 94.88ZM178.627 93L180.227 94.9206L180.258 94.895L180.288 94.8685L178.627 93ZM180.707 91.36L182.188 93.3741L182.195 93.3689L180.707 91.36ZM182.307 90.08L180.68 88.1819L180.645 88.2118L180.611 88.243L182.307 90.08ZM183.347 88.88L181.267 87.4932L183.347 88.88ZM181.347 103.68L179.579 105.448L179.579 105.448L181.347 103.68ZM181.347 108.32L179.579 106.552L179.579 106.552L181.347 108.32ZM175.747 108.32L173.926 110.033L173.952 110.061L173.979 110.088L175.747 108.32ZM175.747 103.68L173.979 101.912L173.952 101.939L173.926 101.967L175.747 103.68ZM171.98 83.2946C172.031 83.2821 172.14 83.2669 172.281 83.2936C172.422 83.3201 172.514 83.3731 172.548 83.3976L169.665 87.4824C170.706 88.2175 171.946 88.4571 173.193 88.1454L171.98 83.2946ZM172.625 83.4541C172.662 83.4824 172.756 83.5679 172.833 83.722C172.911 83.8776 172.927 84.0132 172.927 84.08H167.927C167.927 85.436 168.53 86.6168 169.588 87.4259L172.625 83.4541ZM172.927 84.08V82.88H167.927V84.08H172.927ZM172.927 82.88C172.927 82.7556 172.949 82.7192 172.989 82.6691L169.065 79.5709C168.304 80.5341 167.927 81.6711 167.927 82.88H172.927ZM172.979 82.6817C173.003 82.6518 173.02 82.6356 173.028 82.6285C173.035 82.6217 173.037 82.6213 173.033 82.6237C173.029 82.6263 173.024 82.6284 173.021 82.6295C173.018 82.6305 173.023 82.6285 173.038 82.626L172.216 77.694C170.934 77.9076 169.864 78.5717 169.075 79.5583L172.979 82.6817ZM173.08 82.6185C175.694 82.1364 178.168 81.9 180.507 81.9V76.9C177.832 76.9 175.053 77.1703 172.173 77.7015L173.08 82.6185ZM180.507 81.9C183.493 81.9 185.474 82.5002 186.739 83.3983L189.634 79.3217C187.219 77.6065 184.081 76.9 180.507 76.9V81.9ZM186.739 83.3983C187.974 84.2753 188.447 85.2486 188.447 86.48H193.447C193.447 83.4981 192.079 81.058 189.634 79.3217L186.739 83.3983ZM188.447 86.48C188.447 87.2447 188.343 87.8416 188.183 88.305L192.91 89.935C193.284 88.8517 193.447 87.6886 193.447 86.48H188.447ZM188.159 88.379C188.036 88.7749 187.819 89.1627 187.464 89.5507L191.15 92.9293C191.967 92.0373 192.577 91.0118 192.934 89.861L188.159 88.379ZM187.425 89.5937C186.914 90.1782 186.525 90.5566 186.25 90.7797L189.403 94.6603C189.982 94.19 190.58 93.5818 191.188 92.8863L187.425 89.5937ZM186.265 90.7678C185.945 91.0242 185.397 91.4195 184.585 91.9702L187.389 96.1098C188.229 95.5405 188.909 95.0558 189.388 94.6722L186.265 90.7678ZM184.512 92.0215C183.817 92.529 183.3 92.9101 182.967 93.16L185.967 97.16C186.274 96.9299 186.77 96.5643 187.462 96.0585L184.512 92.0215ZM183.08 93.0799C182.531 93.4461 181.994 93.949 181.489 94.4834L185.124 97.9166C185.526 97.491 185.763 97.3006 185.853 97.2401L183.08 93.0799ZM181.539 94.4322C180.951 95.0198 180.439 95.6697 180.057 96.3903L184.476 98.7297C184.575 98.5436 184.755 98.2869 185.074 97.9678L181.539 94.4322ZM180.047 96.4092C179.786 96.9137 179.575 97.1201 179.483 97.1901C179.443 97.2209 179.428 97.2238 179.436 97.2209C179.445 97.2177 179.447 97.22 179.427 97.22V102.22C181.877 102.22 183.512 100.589 184.486 98.7108L180.047 96.4092ZM179.427 97.22H177.707V102.22H179.427V97.22ZM177.707 97.22C177.688 97.22 177.731 97.218 177.805 97.2492C177.838 97.2635 177.868 97.2806 177.892 97.2974C177.915 97.314 177.927 97.3258 177.927 97.3266L174.286 100.753C175.2 101.724 176.399 102.22 177.707 102.22V97.22ZM177.927 97.3266C177.957 97.358 178.054 97.4788 178.108 97.6891C178.163 97.9022 178.137 98.0694 178.119 98.1378L173.295 96.8222C172.899 98.2724 173.281 99.6849 174.286 100.753L177.927 97.3266ZM178.123 98.1197C178.275 97.5484 178.552 96.9664 178.994 96.3696L174.979 93.3904C174.195 94.4469 173.619 95.5983 173.29 96.8403L178.123 98.1197ZM179.017 96.3391C179.578 95.5578 179.982 95.1248 180.227 94.9206L177.026 91.0794C176.311 91.6752 175.622 92.4956 174.957 93.4209L179.017 96.3391ZM180.288 94.8685C180.683 94.5174 181.305 94.0235 182.188 93.3741L179.226 89.3459C178.296 90.0298 177.531 90.6293 176.966 91.1315L180.288 94.8685ZM182.195 93.3689C182.935 92.8205 183.555 92.33 184.002 91.917L180.611 88.243C180.365 88.47 179.918 88.8329 179.219 89.3511L182.195 93.3689ZM183.934 91.9781C184.508 91.4861 185.001 90.9051 185.427 90.2667L181.267 87.4932C181.052 87.8149 180.852 88.0339 180.68 88.1819L183.934 91.9781ZM185.427 90.2667C185.981 89.4348 186.327 88.4663 186.327 87.4H181.327C181.327 87.3945 181.327 87.3882 181.328 87.3825C181.329 87.3769 181.33 87.3753 181.329 87.3787C181.327 87.3847 181.314 87.4227 181.267 87.4932L185.427 90.2667ZM186.327 87.4C186.327 85.6946 185.551 84.2042 184.05 83.2868C182.75 82.4919 181.12 82.26 179.507 82.26V87.26C180.107 87.26 180.563 87.3065 180.898 87.3747C181.236 87.4435 181.394 87.523 181.443 87.5532C181.476 87.5732 181.417 87.5423 181.362 87.4421C181.31 87.3468 181.327 87.3067 181.327 87.4H186.327ZM179.507 82.26C177.15 82.26 174.633 82.6173 171.968 83.2977L173.205 88.1423C175.554 87.5427 177.65 87.26 179.507 87.26V82.26ZM177.347 105.5H179.747V100.5H177.347V105.5ZM179.747 105.5C179.745 105.5 179.731 105.5 179.707 105.495C179.683 105.49 179.656 105.482 179.629 105.471C179.571 105.446 179.555 105.424 179.579 105.448L183.114 101.912C182.216 101.014 181.056 100.5 179.747 100.5V105.5ZM179.579 105.448C179.603 105.472 179.581 105.456 179.556 105.398C179.545 105.371 179.536 105.344 179.532 105.32C179.527 105.296 179.527 105.281 179.527 105.28H184.527C184.527 103.971 184.013 102.811 183.114 101.912L179.579 105.448ZM179.527 105.28V106.72H184.527V105.28H179.527ZM179.527 106.72C179.527 106.719 179.527 106.704 179.532 106.68C179.536 106.656 179.545 106.629 179.556 106.602C179.581 106.544 179.603 106.528 179.579 106.552L183.114 110.088C184.013 109.189 184.527 108.029 184.527 106.72H179.527ZM179.579 106.552C179.555 106.576 179.571 106.554 179.629 106.529C179.656 106.518 179.683 106.51 179.707 106.505C179.731 106.5 179.745 106.5 179.747 106.5V111.5C181.056 111.5 182.216 110.986 183.114 110.088L179.579 106.552ZM179.747 106.5H177.347V111.5H179.747V106.5ZM177.347 106.5C177.348 106.5 177.363 106.5 177.387 106.505C177.411 106.51 177.438 106.518 177.465 106.529C177.523 106.554 177.539 106.576 177.514 106.552L173.979 110.088C174.877 110.986 176.038 111.5 177.347 111.5V106.5ZM177.567 106.607C177.557 106.596 177.558 106.595 177.564 106.605C177.57 106.614 177.579 106.63 177.588 106.652C177.596 106.673 177.602 106.692 177.605 106.708C177.607 106.723 177.607 106.728 177.607 106.72H172.607C172.607 107.981 173.07 109.124 173.926 110.033L177.567 106.607ZM177.607 106.72V105.28H172.607V106.72H177.607ZM177.607 105.28C177.607 105.272 177.607 105.277 177.605 105.292C177.602 105.308 177.596 105.327 177.588 105.348C177.579 105.37 177.57 105.386 177.564 105.395C177.558 105.405 177.557 105.404 177.567 105.393L173.926 101.967C173.07 102.876 172.607 104.019 172.607 105.28H177.607ZM177.514 105.448C177.539 105.424 177.523 105.446 177.465 105.471C177.438 105.482 177.411 105.49 177.387 105.495C177.363 105.5 177.348 105.5 177.347 105.5V100.5C176.038 100.5 174.877 101.014 173.979 101.912L177.514 105.448Z" fill="#619092" mask="url(#path-1-outside-1_67_4)"/>
</svg>
