<svg width="142" height="93" viewBox="0 0 142 93" fill="none" xmlns="http://www.w3.org/2000/svg">
<mask id="path-1-outside-1_67_5" maskUnits="userSpaceOnUse" x="10" y="8" width="120" height="75" fill="black">
<rect fill="white" x="10" y="8" width="120" height="75"/>
<path d="M19.98 21.555H24.635V27.505H19.98V21.555ZM31.39 21.555H36.01V27.505H31.39V21.555ZM13.4 26.07H42.695V29.745H13.4V26.07ZM27.995 31.39C34.995 31.39 39.23 33.49 39.23 37.235C39.23 41.015 34.995 43.115 27.995 43.115C20.96 43.115 16.725 41.015 16.725 37.235C16.725 33.49 20.96 31.39 27.995 31.39ZM27.995 34.89C23.655 34.89 21.45 35.625 21.45 37.235C21.45 38.88 23.655 39.615 27.995 39.615C32.335 39.615 34.54 38.88 34.54 37.235C34.54 35.625 32.335 34.89 27.995 34.89ZM28.065 11.16C35.205 11.16 39.79 13.54 39.79 17.425C39.79 21.275 35.205 23.585 28.065 23.585C20.89 23.585 16.34 21.275 16.34 17.425C16.34 13.54 20.89 11.16 28.065 11.16ZM28.065 14.73C23.62 14.73 21.135 15.605 21.135 17.425C21.135 19.21 23.62 20.085 28.065 20.085C32.51 20.085 34.995 19.21 34.995 17.425C34.995 15.605 32.51 14.73 28.065 14.73ZM67.8573 10.74H72.5473V34.015H67.8573V10.74ZM50.9523 38.845H73.3523V42.555H50.9523V38.845ZM50.9523 31.67H55.6073V40.35H50.9523V31.67ZM54.9073 12.77C59.8773 12.77 63.6923 16.2 63.6923 20.995C63.6923 25.755 59.8773 29.22 54.9073 29.22C49.9373 29.22 46.0873 25.755 46.0873 20.995C46.0873 16.2 49.9373 12.77 54.9073 12.77ZM54.9073 16.795C52.4923 16.795 50.6373 18.335 50.6373 20.995C50.6373 23.62 52.4923 25.16 54.9073 25.16C57.2873 25.16 59.1423 23.62 59.1423 20.995C59.1423 18.335 57.2873 16.795 54.9073 16.795ZM77.3945 30.875H98.3195V33.525H77.3945V30.875ZM79.9195 39.175H95.9695V41.825H79.9195V39.175ZM79.9195 35.075H83.2445V40.025H79.9195V35.075ZM87.8695 19.75C92.8945 19.75 96.2445 21.575 96.2445 24.525C96.2445 27.475 92.8945 29.3 87.8695 29.3C82.8195 29.3 79.4945 27.475 79.4945 24.525C79.4945 21.575 82.8195 19.75 87.8695 19.75ZM87.8695 22.4C84.7445 22.4 82.9195 23.125 82.9195 24.525C82.9195 25.95 84.7445 26.65 87.8695 26.65C90.9945 26.65 92.8195 25.95 92.8195 24.525C92.8195 23.125 90.9945 22.4 87.8695 22.4ZM32.52 52.86H36.51V80.73H32.52V52.86ZM27.63 63.54H33.42V66.75H27.63V63.54ZM19.62 60.09H22.74V61.53C22.74 67.38 20.22 73.29 15.18 75.54L13.05 72.48C17.55 70.41 19.62 65.7 19.62 61.53V60.09ZM20.49 60.09H23.58V61.53C23.58 65.52 25.71 70.02 30.21 72.03L28.11 75.06C23.01 72.9 20.49 67.2 20.49 61.53V60.09ZM13.98 57.42H29.13V60.57H13.98V57.42ZM19.62 53.52H23.61V59.04H19.62V53.52ZM53.3677 53.4C59.4877 53.4 63.4177 55.47 63.4177 58.83C63.4177 62.19 59.4877 64.23 53.3677 64.23C47.2477 64.23 43.3177 62.19 43.3177 58.83C43.3177 55.47 47.2477 53.4 53.3677 53.4ZM53.3677 56.49C49.5577 56.49 47.4277 57.24 47.4277 58.83C47.4277 60.39 49.5577 61.17 53.3677 61.17C57.1477 61.17 59.3077 60.39 59.3077 58.83C59.3077 57.24 57.1477 56.49 53.3677 56.49ZM43.7077 70.89H62.9077V80.37H43.7077V70.89ZM59.0077 74.04H47.6377V77.22H59.0077V74.04ZM40.7977 65.82H65.9077V68.97H40.7977V65.82ZM84.0703 57.05H87.4203V80.275H84.0703V57.05ZM74.9453 58.675C78.4453 58.675 81.0203 61.875 81.0203 66.925C81.0203 72.025 78.4453 75.225 74.9453 75.225C71.4453 75.225 68.8703 72.025 68.8703 66.925C68.8703 61.875 71.4453 58.675 74.9453 58.675ZM74.9453 61.7C73.2203 61.7 72.0453 63.525 72.0453 66.925C72.0453 70.375 73.2203 72.225 74.9453 72.225C76.6703 72.225 77.8203 70.375 77.8203 66.925C77.8203 63.525 76.6703 61.7 74.9453 61.7ZM96.7684 60.725H99.4184V63.325C99.4184 68.675 97.2434 73.9 92.8934 75.875L91.0184 73.25C94.8934 71.525 96.7684 67.25 96.7684 63.325V60.725ZM97.5184 60.725H100.143V63.325C100.143 67.075 101.993 71.075 105.868 72.675L104.068 75.3C99.6684 73.4 97.5184 68.475 97.5184 63.325V60.725ZM91.9434 59.3H104.918V62.025H91.9434V59.3ZM107.068 57.075H110.418V80.225H107.068V57.075ZM116.441 63.45C116.108 63.5333 115.8 63.475 115.516 63.275C115.233 63.0583 115.091 62.775 115.091 62.425V61.675C115.091 61.2583 115.216 60.8917 115.466 60.575C115.733 60.2417 116.066 60.0417 116.466 59.975C118.183 59.6583 119.825 59.5 121.391 59.5C123.441 59.5 125.041 59.9083 126.191 60.725C127.341 61.5417 127.916 62.6083 127.916 63.925C127.916 64.5417 127.833 65.0917 127.666 65.575C127.516 66.0583 127.258 66.5 126.891 66.9C126.541 67.3 126.233 67.6083 125.966 67.825C125.716 68.025 125.333 68.3 124.816 68.65C124.383 68.9667 124.066 69.2 123.866 69.35C123.666 69.4833 123.425 69.7 123.141 70C122.858 70.2833 122.641 70.5667 122.491 70.85C122.025 71.75 121.433 72.2 120.716 72.2H119.641C119.241 72.2 118.908 72.0583 118.641 71.775C118.375 71.4917 118.291 71.1667 118.391 70.8C118.541 70.2333 118.808 69.6917 119.191 69.175C119.575 68.6417 119.916 68.25 120.216 68C120.516 67.7333 120.95 67.3917 121.516 66.975C121.966 66.6417 122.3 66.375 122.516 66.175C122.75 65.975 122.966 65.725 123.166 65.425C123.366 65.125 123.466 64.8167 123.466 64.5C123.466 63.4 122.566 62.85 120.766 62.85C119.45 62.85 118.008 63.05 116.441 63.45ZM119.416 74.25H120.916C121.3 74.25 121.633 74.3917 121.916 74.675C122.2 74.9583 122.341 75.2917 122.341 75.675V76.575C122.341 76.9583 122.2 77.2917 121.916 77.575C121.633 77.8583 121.3 78 120.916 78H119.416C119.033 78 118.7 77.8583 118.416 77.575C118.15 77.2917 118.016 76.9583 118.016 76.575V75.675C118.016 75.2917 118.15 74.9583 118.416 74.675C118.7 74.3917 119.033 74.25 119.416 74.25Z"/>
</mask>
<path d="M19.98 21.555H24.635V27.505H19.98V21.555ZM31.39 21.555H36.01V27.505H31.39V21.555ZM13.4 26.07H42.695V29.745H13.4V26.07ZM27.995 31.39C34.995 31.39 39.23 33.49 39.23 37.235C39.23 41.015 34.995 43.115 27.995 43.115C20.96 43.115 16.725 41.015 16.725 37.235C16.725 33.49 20.96 31.39 27.995 31.39ZM27.995 34.89C23.655 34.89 21.45 35.625 21.45 37.235C21.45 38.88 23.655 39.615 27.995 39.615C32.335 39.615 34.54 38.88 34.54 37.235C34.54 35.625 32.335 34.89 27.995 34.89ZM28.065 11.16C35.205 11.16 39.79 13.54 39.79 17.425C39.79 21.275 35.205 23.585 28.065 23.585C20.89 23.585 16.34 21.275 16.34 17.425C16.34 13.54 20.89 11.16 28.065 11.16ZM28.065 14.73C23.62 14.73 21.135 15.605 21.135 17.425C21.135 19.21 23.62 20.085 28.065 20.085C32.51 20.085 34.995 19.21 34.995 17.425C34.995 15.605 32.51 14.73 28.065 14.73ZM67.8573 10.74H72.5473V34.015H67.8573V10.74ZM50.9523 38.845H73.3523V42.555H50.9523V38.845ZM50.9523 31.67H55.6073V40.35H50.9523V31.67ZM54.9073 12.77C59.8773 12.77 63.6923 16.2 63.6923 20.995C63.6923 25.755 59.8773 29.22 54.9073 29.22C49.9373 29.22 46.0873 25.755 46.0873 20.995C46.0873 16.2 49.9373 12.77 54.9073 12.77ZM54.9073 16.795C52.4923 16.795 50.6373 18.335 50.6373 20.995C50.6373 23.62 52.4923 25.16 54.9073 25.16C57.2873 25.16 59.1423 23.62 59.1423 20.995C59.1423 18.335 57.2873 16.795 54.9073 16.795ZM77.3945 30.875H98.3195V33.525H77.3945V30.875ZM79.9195 39.175H95.9695V41.825H79.9195V39.175ZM79.9195 35.075H83.2445V40.025H79.9195V35.075ZM87.8695 19.75C92.8945 19.75 96.2445 21.575 96.2445 24.525C96.2445 27.475 92.8945 29.3 87.8695 29.3C82.8195 29.3 79.4945 27.475 79.4945 24.525C79.4945 21.575 82.8195 19.75 87.8695 19.75ZM87.8695 22.4C84.7445 22.4 82.9195 23.125 82.9195 24.525C82.9195 25.95 84.7445 26.65 87.8695 26.65C90.9945 26.65 92.8195 25.95 92.8195 24.525C92.8195 23.125 90.9945 22.4 87.8695 22.4ZM32.52 52.86H36.51V80.73H32.52V52.86ZM27.63 63.54H33.42V66.75H27.63V63.54ZM19.62 60.09H22.74V61.53C22.74 67.38 20.22 73.29 15.18 75.54L13.05 72.48C17.55 70.41 19.62 65.7 19.62 61.53V60.09ZM20.49 60.09H23.58V61.53C23.58 65.52 25.71 70.02 30.21 72.03L28.11 75.06C23.01 72.9 20.49 67.2 20.49 61.53V60.09ZM13.98 57.42H29.13V60.57H13.98V57.42ZM19.62 53.52H23.61V59.04H19.62V53.52ZM53.3677 53.4C59.4877 53.4 63.4177 55.47 63.4177 58.83C63.4177 62.19 59.4877 64.23 53.3677 64.23C47.2477 64.23 43.3177 62.19 43.3177 58.83C43.3177 55.47 47.2477 53.4 53.3677 53.4ZM53.3677 56.49C49.5577 56.49 47.4277 57.24 47.4277 58.83C47.4277 60.39 49.5577 61.17 53.3677 61.17C57.1477 61.17 59.3077 60.39 59.3077 58.83C59.3077 57.24 57.1477 56.49 53.3677 56.49ZM43.7077 70.89H62.9077V80.37H43.7077V70.89ZM59.0077 74.04H47.6377V77.22H59.0077V74.04ZM40.7977 65.82H65.9077V68.97H40.7977V65.82ZM84.0703 57.05H87.4203V80.275H84.0703V57.05ZM74.9453 58.675C78.4453 58.675 81.0203 61.875 81.0203 66.925C81.0203 72.025 78.4453 75.225 74.9453 75.225C71.4453 75.225 68.8703 72.025 68.8703 66.925C68.8703 61.875 71.4453 58.675 74.9453 58.675ZM74.9453 61.7C73.2203 61.7 72.0453 63.525 72.0453 66.925C72.0453 70.375 73.2203 72.225 74.9453 72.225C76.6703 72.225 77.8203 70.375 77.8203 66.925C77.8203 63.525 76.6703 61.7 74.9453 61.7ZM96.7684 60.725H99.4184V63.325C99.4184 68.675 97.2434 73.9 92.8934 75.875L91.0184 73.25C94.8934 71.525 96.7684 67.25 96.7684 63.325V60.725ZM97.5184 60.725H100.143V63.325C100.143 67.075 101.993 71.075 105.868 72.675L104.068 75.3C99.6684 73.4 97.5184 68.475 97.5184 63.325V60.725ZM91.9434 59.3H104.918V62.025H91.9434V59.3ZM107.068 57.075H110.418V80.225H107.068V57.075ZM116.441 63.45C116.108 63.5333 115.8 63.475 115.516 63.275C115.233 63.0583 115.091 62.775 115.091 62.425V61.675C115.091 61.2583 115.216 60.8917 115.466 60.575C115.733 60.2417 116.066 60.0417 116.466 59.975C118.183 59.6583 119.825 59.5 121.391 59.5C123.441 59.5 125.041 59.9083 126.191 60.725C127.341 61.5417 127.916 62.6083 127.916 63.925C127.916 64.5417 127.833 65.0917 127.666 65.575C127.516 66.0583 127.258 66.5 126.891 66.9C126.541 67.3 126.233 67.6083 125.966 67.825C125.716 68.025 125.333 68.3 124.816 68.65C124.383 68.9667 124.066 69.2 123.866 69.35C123.666 69.4833 123.425 69.7 123.141 70C122.858 70.2833 122.641 70.5667 122.491 70.85C122.025 71.75 121.433 72.2 120.716 72.2H119.641C119.241 72.2 118.908 72.0583 118.641 71.775C118.375 71.4917 118.291 71.1667 118.391 70.8C118.541 70.2333 118.808 69.6917 119.191 69.175C119.575 68.6417 119.916 68.25 120.216 68C120.516 67.7333 120.95 67.3917 121.516 66.975C121.966 66.6417 122.3 66.375 122.516 66.175C122.75 65.975 122.966 65.725 123.166 65.425C123.366 65.125 123.466 64.8167 123.466 64.5C123.466 63.4 122.566 62.85 120.766 62.85C119.45 62.85 118.008 63.05 116.441 63.45ZM119.416 74.25H120.916C121.3 74.25 121.633 74.3917 121.916 74.675C122.2 74.9583 122.341 75.2917 122.341 75.675V76.575C122.341 76.9583 122.2 77.2917 121.916 77.575C121.633 77.8583 121.3 78 120.916 78H119.416C119.033 78 118.7 77.8583 118.416 77.575C118.15 77.2917 118.016 76.9583 118.016 76.575V75.675C118.016 75.2917 118.15 74.9583 118.416 74.675C118.7 74.3917 119.033 74.25 119.416 74.25Z" fill="white"/>
<path d="M19.98 21.555V19.555H17.98V21.555H19.98ZM24.635 21.555H26.635V19.555H24.635V21.555ZM24.635 27.505V29.505H26.635V27.505H24.635ZM19.98 27.505H17.98V29.505H19.98V27.505ZM31.39 21.555V19.555H29.39V21.555H31.39ZM36.01 21.555H38.01V19.555H36.01V21.555ZM36.01 27.505V29.505H38.01V27.505H36.01ZM31.39 27.505H29.39V29.505H31.39V27.505ZM13.4 26.07V24.07H11.4V26.07H13.4ZM42.695 26.07H44.695V24.07H42.695V26.07ZM42.695 29.745V31.745H44.695V29.745H42.695ZM13.4 29.745H11.4V31.745H13.4V29.745ZM19.98 23.555H24.635V19.555H19.98V23.555ZM22.635 21.555V27.505H26.635V21.555H22.635ZM24.635 25.505H19.98V29.505H24.635V25.505ZM21.98 27.505V21.555H17.98V27.505H21.98ZM31.39 23.555H36.01V19.555H31.39V23.555ZM34.01 21.555V27.505H38.01V21.555H34.01ZM36.01 25.505H31.39V29.505H36.01V25.505ZM33.39 27.505V21.555H29.39V27.505H33.39ZM13.4 28.07H42.695V24.07H13.4V28.07ZM40.695 26.07V29.745H44.695V26.07H40.695ZM42.695 27.745H13.4V31.745H42.695V27.745ZM15.4 29.745V26.07H11.4V29.745H15.4ZM27.995 33.39C31.3432 33.39 33.7905 33.8998 35.3238 34.6872C36.7731 35.4315 37.23 36.2974 37.23 37.235H41.23C41.23 34.4276 39.5694 32.371 37.1512 31.129C34.817 29.9302 31.6468 29.39 27.995 29.39V33.39ZM37.23 37.235C37.23 38.1979 36.7644 39.0703 35.3206 39.815C33.7891 40.6051 31.3437 41.115 27.995 41.115V45.115C31.6463 45.115 34.8184 44.5749 37.1544 43.37C39.5781 42.1197 41.23 40.0521 41.23 37.235H37.23ZM27.995 41.115C24.6276 41.115 22.1731 40.6047 20.6371 39.8142C19.1896 39.0692 18.725 38.197 18.725 37.235H14.725C14.725 40.053 16.3779 42.1208 18.8066 43.3708C21.1469 44.5753 24.3274 45.115 27.995 45.115V41.115ZM18.725 37.235C18.725 36.2983 19.1809 35.4326 20.6339 34.6881C22.1717 33.9001 24.6281 33.39 27.995 33.39V29.39C24.3269 29.39 21.1483 29.9299 18.8098 31.1282C16.3866 32.3699 14.725 34.4267 14.725 37.235H18.725ZM27.995 32.89C25.7701 32.89 23.855 33.0709 22.4309 33.5722C21.7074 33.8269 20.9698 34.2121 20.3975 34.8276C19.7821 35.4897 19.45 36.3228 19.45 37.235H23.45C23.45 37.3422 23.3936 37.4797 23.3272 37.5511C23.304 37.5761 23.3889 37.4756 23.7591 37.3453C24.5225 37.0766 25.8799 36.89 27.995 36.89V32.89ZM19.45 37.235C19.45 38.1435 19.7732 38.9799 20.3864 39.6505C20.9579 40.2755 21.6972 40.6672 22.4242 40.926C23.8524 41.4345 25.7715 41.615 27.995 41.615V37.615C25.8785 37.615 24.5251 37.428 23.7658 37.1577C23.3991 37.0272 23.3159 36.9267 23.3383 36.9512C23.4024 37.0213 23.45 37.149 23.45 37.235H19.45ZM27.995 41.615C30.2185 41.615 32.1376 41.4345 33.5658 40.926C34.2928 40.6672 35.0321 40.2755 35.6036 39.6505C36.2168 38.9799 36.54 38.1435 36.54 37.235H32.54C32.54 37.149 32.5876 37.0213 32.6517 36.9512C32.6741 36.9267 32.5909 37.0272 32.2242 37.1577C31.4649 37.428 30.1115 37.615 27.995 37.615V41.615ZM36.54 37.235C36.54 36.3228 36.2079 35.4897 35.5925 34.8276C35.0202 34.2121 34.2826 33.8269 33.5591 33.5722C32.135 33.0709 30.2199 32.89 27.995 32.89V36.89C30.1101 36.89 31.4675 37.0766 32.2309 37.3453C32.6011 37.4756 32.6861 37.5761 32.6628 37.5511C32.5964 37.4797 32.54 37.3422 32.54 37.235H36.54ZM28.065 13.16C31.454 13.16 34.0239 13.7311 35.6684 14.6027C37.2608 15.4468 37.79 16.432 37.79 17.425H41.79C41.79 14.533 40.0267 12.3857 37.5416 11.0685C35.1086 9.77888 31.816 9.16 28.065 9.16V13.16ZM37.79 17.425C37.79 18.3859 37.2778 19.3458 35.6833 20.1738C34.0363 21.0291 31.4616 21.585 28.065 21.585V25.585C31.8084 25.585 35.0962 24.9859 37.5267 23.7237C40.0097 22.4342 41.79 20.3141 41.79 17.425H37.79ZM28.065 21.585C24.6494 21.585 22.0761 21.0286 20.4352 20.1746C18.8504 19.3499 18.34 18.392 18.34 17.425H14.34C14.34 20.308 16.1046 22.4301 18.5886 23.7229C21.0164 24.9864 24.3056 25.585 28.065 25.585V21.585ZM18.34 17.425C18.34 16.4259 18.8672 15.4427 20.4501 14.6019C22.0885 13.7316 24.657 13.16 28.065 13.16V9.16C24.298 9.16 21.004 9.77837 18.5737 11.0693C16.0878 12.3898 14.34 14.5391 14.34 17.425H18.34ZM28.065 12.73C25.7652 12.73 23.7426 12.9491 22.224 13.5249C20.6848 14.1086 19.135 15.3146 19.135 17.425H23.135C23.135 17.7154 22.8277 17.5739 23.6422 17.2651C24.4774 16.9484 25.9198 16.73 28.065 16.73V12.73ZM19.135 17.425C19.135 19.5356 20.7089 20.7256 22.2301 21.2967C23.7451 21.8656 25.7641 22.085 28.065 22.085V18.085C25.9209 18.085 24.4749 17.8669 23.6361 17.552C22.8036 17.2394 23.135 17.0994 23.135 17.425H19.135ZM28.065 22.085C30.3659 22.085 32.3849 21.8656 33.8999 21.2967C35.4211 20.7256 36.995 19.5356 36.995 17.425H32.995C32.995 17.0994 33.3264 17.2394 32.4939 17.552C31.6551 17.8669 30.2091 18.085 28.065 18.085V22.085ZM36.995 17.425C36.995 15.3146 35.4452 14.1086 33.906 13.5249C32.3874 12.9491 30.3648 12.73 28.065 12.73V16.73C30.2102 16.73 31.6526 16.9484 32.4878 17.2651C33.3023 17.5739 32.995 17.7154 32.995 17.425H36.995ZM67.8573 10.74V8.74H65.8573V10.74H67.8573ZM72.5473 10.74H74.5473V8.74H72.5473V10.74ZM72.5473 34.015V36.015H74.5473V34.015H72.5473ZM67.8573 34.015H65.8573V36.015H67.8573V34.015ZM50.9523 38.845V36.845H48.9523V38.845H50.9523ZM73.3523 38.845H75.3523V36.845H73.3523V38.845ZM73.3523 42.555V44.555H75.3523V42.555H73.3523ZM50.9523 42.555H48.9523V44.555H50.9523V42.555ZM50.9523 31.67V29.67H48.9523V31.67H50.9523ZM55.6073 31.67H57.6073V29.67H55.6073V31.67ZM55.6073 40.35V42.35H57.6073V40.35H55.6073ZM50.9523 40.35H48.9523V42.35H50.9523V40.35ZM67.8573 12.74H72.5473V8.74H67.8573V12.74ZM70.5473 10.74V34.015H74.5473V10.74H70.5473ZM72.5473 32.015H67.8573V36.015H72.5473V32.015ZM69.8573 34.015V10.74H65.8573V34.015H69.8573ZM50.9523 40.845H73.3523V36.845H50.9523V40.845ZM71.3523 38.845V42.555H75.3523V38.845H71.3523ZM73.3523 40.555H50.9523V44.555H73.3523V40.555ZM52.9523 42.555V38.845H48.9523V42.555H52.9523ZM50.9523 33.67H55.6073V29.67H50.9523V33.67ZM53.6073 31.67V40.35H57.6073V31.67H53.6073ZM55.6073 38.35H50.9523V42.35H55.6073V38.35ZM52.9523 40.35V31.67H48.9523V40.35H52.9523ZM54.9073 14.77C58.9224 14.77 61.6923 17.4485 61.6923 20.995H65.6923C65.6923 14.9515 60.8322 10.77 54.9073 10.77V14.77ZM61.6923 20.995C61.6923 24.5119 58.9165 27.22 54.9073 27.22V31.22C60.838 31.22 65.6923 26.9981 65.6923 20.995H61.6923ZM54.9073 27.22C50.8872 27.22 48.0873 24.5019 48.0873 20.995H44.0873C44.0873 27.0081 48.9873 31.22 54.9073 31.22V27.22ZM48.0873 20.995C48.0873 17.4585 50.8813 14.77 54.9073 14.77V10.77C48.9932 10.77 44.0873 14.9415 44.0873 20.995H48.0873ZM54.9073 14.795C53.2782 14.795 51.6939 15.3184 50.499 16.4382C49.2858 17.5751 48.6373 19.1756 48.6373 20.995H52.6373C52.6373 20.1544 52.9162 19.6549 53.2342 19.3568C53.5706 19.0416 54.1213 18.795 54.9073 18.795V14.795ZM48.6373 20.995C48.6373 22.8045 49.2911 24.3961 50.5035 25.5254C51.6969 26.6369 53.2785 27.16 54.9073 27.16V23.16C54.121 23.16 53.5677 22.9131 53.2298 22.5984C52.9109 22.3014 52.6373 21.8104 52.6373 20.995H48.6373ZM54.9073 27.16C56.5256 27.16 58.0985 26.6326 59.2846 25.5215C60.4889 24.3933 61.1423 22.8042 61.1423 20.995H57.1423C57.1423 21.8108 56.8681 22.3042 56.5499 22.6023C56.2136 22.9174 55.669 23.16 54.9073 23.16V27.16ZM61.1423 20.995C61.1423 19.1759 60.4942 17.5779 59.289 16.4421C58.1014 15.3227 56.5259 14.795 54.9073 14.795V18.795C55.6687 18.795 56.2106 19.0373 56.5455 19.3529C56.8629 19.6521 57.1423 20.1541 57.1423 20.995H61.1423ZM77.3945 30.875V28.875H75.3945V30.875H77.3945ZM98.3195 30.875H100.32V28.875H98.3195V30.875ZM98.3195 33.525V35.525H100.32V33.525H98.3195ZM77.3945 33.525H75.3945V35.525H77.3945V33.525ZM79.9195 39.175V37.175H77.9195V39.175H79.9195ZM95.9695 39.175H97.9695V37.175H95.9695V39.175ZM95.9695 41.825V43.825H97.9695V41.825H95.9695ZM79.9195 41.825H77.9195V43.825H79.9195V41.825ZM79.9195 35.075V33.075H77.9195V35.075H79.9195ZM83.2445 35.075H85.2445V33.075H83.2445V35.075ZM83.2445 40.025V42.025H85.2445V40.025H83.2445ZM79.9195 40.025H77.9195V42.025H79.9195V40.025ZM77.3945 32.875H98.3195V28.875H77.3945V32.875ZM96.3195 30.875V33.525H100.32V30.875H96.3195ZM98.3195 31.525H77.3945V35.525H98.3195V31.525ZM79.3945 33.525V30.875H75.3945V33.525H79.3945ZM79.9195 41.175H95.9695V37.175H79.9195V41.175ZM93.9695 39.175V41.825H97.9695V39.175H93.9695ZM95.9695 39.825H79.9195V43.825H95.9695V39.825ZM81.9195 41.825V39.175H77.9195V41.825H81.9195ZM79.9195 37.075H83.2445V33.075H79.9195V37.075ZM81.2445 35.075V40.025H85.2445V35.075H81.2445ZM83.2445 38.025H79.9195V42.025H83.2445V38.025ZM81.9195 40.025V35.075H77.9195V40.025H81.9195ZM87.8695 21.75C90.1785 21.75 91.8964 22.1752 92.9604 22.7741C93.9699 23.3424 94.2445 23.9515 94.2445 24.525H98.2445C98.2445 22.1485 96.8441 20.3701 94.9225 19.2884C93.0552 18.2373 90.5856 17.75 87.8695 17.75V21.75ZM94.2445 24.525C94.2445 25.0985 93.9699 25.7076 92.9604 26.2759C91.8964 26.8748 90.1785 27.3 87.8695 27.3V31.3C90.5856 31.3 93.0552 30.8127 94.9225 29.7616C96.8441 28.6799 98.2445 26.9015 98.2445 24.525H94.2445ZM87.8695 27.3C85.5465 27.3 83.8301 26.8743 82.7709 26.2768C81.7692 25.7117 81.4945 25.1043 81.4945 24.525H77.4945C77.4945 26.8957 78.8824 28.6758 80.8056 29.7607C82.6715 30.8132 85.1426 31.3 87.8695 31.3V27.3ZM81.4945 24.525C81.4945 23.9457 81.7692 23.3383 82.7709 22.7732C83.8301 22.1757 85.5465 21.75 87.8695 21.75V17.75C85.1426 17.75 82.6715 18.2368 80.8056 19.2893C78.8824 20.3742 77.4945 22.1543 77.4945 24.525H81.4945ZM87.8695 20.4C86.2037 20.4 84.6549 20.5859 83.4472 21.094C82.1978 21.6195 80.9195 22.7066 80.9195 24.525H84.9195C84.9195 24.6493 84.8655 24.7918 84.7922 24.88C84.7461 24.9356 84.7685 24.8776 84.9982 24.781C85.4842 24.5766 86.4104 24.4 87.8695 24.4V20.4ZM80.9195 24.525C80.9195 26.3486 82.1885 27.4406 83.4529 27.9678C84.6619 28.4719 86.2113 28.65 87.8695 28.65V24.65C86.4028 24.65 85.4772 24.4781 84.9924 24.2759C84.7647 24.181 84.7463 24.125 84.795 24.1839C84.871 24.2758 84.9195 24.4153 84.9195 24.525H80.9195ZM87.8695 28.65C89.5278 28.65 91.0772 28.4719 92.2861 27.9678C93.5506 27.4406 94.8195 26.3486 94.8195 24.525H90.8195C90.8195 24.4153 90.8681 24.2758 90.9441 24.1839C90.9927 24.125 90.9743 24.181 90.7467 24.2759C90.2619 24.4781 89.3363 24.65 87.8695 24.65V28.65ZM94.8195 24.525C94.8195 22.7066 93.5412 21.6195 92.2919 21.094C91.0842 20.5859 89.5354 20.4 87.8695 20.4V24.4C89.3287 24.4 90.2549 24.5766 90.7409 24.781C90.9705 24.8776 90.993 24.9356 90.9469 24.88C90.8736 24.7918 90.8195 24.6493 90.8195 24.525H94.8195ZM32.52 52.86V50.86H30.52V52.86H32.52ZM36.51 52.86H38.51V50.86H36.51V52.86ZM36.51 80.73V82.73H38.51V80.73H36.51ZM32.52 80.73H30.52V82.73H32.52V80.73ZM27.63 63.54V61.54H25.63V63.54H27.63ZM33.42 63.54H35.42V61.54H33.42V63.54ZM33.42 66.75V68.75H35.42V66.75H33.42ZM27.63 66.75H25.63V68.75H27.63V66.75ZM19.62 60.09V58.09H17.62V60.09H19.62ZM22.74 60.09H24.74V58.09H22.74V60.09ZM15.18 75.54L13.5385 76.6826L14.484 78.0409L15.9953 77.3663L15.18 75.54ZM13.05 72.48L12.2142 70.663L10.0435 71.6615L11.4085 73.6226L13.05 72.48ZM20.49 60.09V58.09H18.49V60.09H20.49ZM23.58 60.09H25.58V58.09H23.58V60.09ZM30.21 72.03L31.8538 73.1693L33.2274 71.1873L31.0257 70.2039L30.21 72.03ZM28.11 75.06L27.33 76.9016L28.8275 77.5358L29.7538 76.1993L28.11 75.06ZM13.98 57.42V55.42H11.98V57.42H13.98ZM29.13 57.42H31.13V55.42H29.13V57.42ZM29.13 60.57V62.57H31.13V60.57H29.13ZM13.98 60.57H11.98V62.57H13.98V60.57ZM19.62 53.52V51.52H17.62V53.52H19.62ZM23.61 53.52H25.61V51.52H23.61V53.52ZM23.61 59.04V61.04H25.61V59.04H23.61ZM19.62 59.04H17.62V61.04H19.62V59.04ZM32.52 54.86H36.51V50.86H32.52V54.86ZM34.51 52.86V80.73H38.51V52.86H34.51ZM36.51 78.73H32.52V82.73H36.51V78.73ZM34.52 80.73V52.86H30.52V80.73H34.52ZM27.63 65.54H33.42V61.54H27.63V65.54ZM31.42 63.54V66.75H35.42V63.54H31.42ZM33.42 64.75H27.63V68.75H33.42V64.75ZM29.63 66.75V63.54H25.63V66.75H29.63ZM19.62 62.09H22.74V58.09H19.62V62.09ZM20.74 60.09V61.53H24.74V60.09H20.74ZM20.74 61.53C20.74 66.9583 18.3997 71.9124 14.3647 73.7137L15.9953 77.3663C22.0403 74.6676 24.74 67.8017 24.74 61.53H20.74ZM16.8215 74.3974L14.6915 71.3374L11.4085 73.6226L13.5385 76.6826L16.8215 74.3974ZM13.8858 74.297C19.2745 71.8182 21.62 66.2626 21.62 61.53H17.62C17.62 65.1374 15.8255 69.0018 12.2142 70.663L13.8858 74.297ZM21.62 61.53V60.09H17.62V61.53H21.62ZM20.49 62.09H23.58V58.09H20.49V62.09ZM21.58 60.09V61.53H25.58V60.09H21.58ZM21.58 61.53C21.58 66.155 24.0431 71.4659 29.3943 73.8561L31.0257 70.2039C27.3769 68.5741 25.58 64.885 25.58 61.53H21.58ZM28.5662 70.8907L26.4662 73.9207L29.7538 76.1993L31.8538 73.1693L28.5662 70.8907ZM28.89 73.2184C24.801 71.4866 22.49 66.7397 22.49 61.53H18.49C18.49 67.6603 21.219 74.3134 27.33 76.9016L28.89 73.2184ZM22.49 61.53V60.09H18.49V61.53H22.49ZM13.98 59.42H29.13V55.42H13.98V59.42ZM27.13 57.42V60.57H31.13V57.42H27.13ZM29.13 58.57H13.98V62.57H29.13V58.57ZM15.98 60.57V57.42H11.98V60.57H15.98ZM19.62 55.52H23.61V51.52H19.62V55.52ZM21.61 53.52V59.04H25.61V53.52H21.61ZM23.61 57.04H19.62V61.04H23.61V57.04ZM21.62 59.04V53.52H17.62V59.04H21.62ZM43.7077 70.89V68.89H41.7077V70.89H43.7077ZM62.9077 70.89H64.9077V68.89H62.9077V70.89ZM62.9077 80.37V82.37H64.9077V80.37H62.9077ZM43.7077 80.37H41.7077V82.37H43.7077V80.37ZM59.0077 74.04H61.0077V72.04H59.0077V74.04ZM47.6377 74.04V72.04H45.6377V74.04H47.6377ZM47.6377 77.22H45.6377V79.22H47.6377V77.22ZM59.0077 77.22V79.22H61.0077V77.22H59.0077ZM40.7977 65.82V63.82H38.7977V65.82H40.7977ZM65.9077 65.82H67.9077V63.82H65.9077V65.82ZM65.9077 68.97V70.97H67.9077V68.97H65.9077ZM40.7977 68.97H38.7977V70.97H40.7977V68.97ZM53.3677 55.4C56.243 55.4 58.391 55.8925 59.7422 56.6174C61.04 57.3136 61.4177 58.0887 61.4177 58.83H65.4177C65.4177 56.2113 63.8304 54.2714 61.6331 53.0926C59.4893 51.9425 56.6123 51.4 53.3677 51.4V55.4ZM61.4177 58.83C61.4177 59.5678 61.044 60.3347 59.7481 61.0245C58.3965 61.7437 56.247 62.23 53.3677 62.23V66.23C56.6083 66.23 59.4838 65.6963 61.6273 64.5555C63.8263 63.3853 65.4177 61.4522 65.4177 58.83H61.4177ZM53.3677 62.23C50.4883 62.23 48.3388 61.7437 46.9873 61.0245C45.6913 60.3347 45.3177 59.5678 45.3177 58.83H41.3177C41.3177 61.4522 42.909 63.3853 45.1081 64.5555C47.2515 65.6963 50.127 66.23 53.3677 66.23V62.23ZM45.3177 58.83C45.3177 58.0887 45.6954 57.3136 46.9931 56.6174C48.3443 55.8925 50.4923 55.4 53.3677 55.4V51.4C50.123 51.4 47.246 51.9425 45.1022 53.0926C42.905 54.2714 41.3177 56.2113 41.3177 58.83H45.3177ZM53.3677 54.49C51.3865 54.49 49.6078 54.6775 48.2537 55.196C46.8653 55.7276 45.4277 56.8522 45.4277 58.83H49.4277C49.4277 58.9256 49.379 59.0496 49.32 59.1165C49.2959 59.1438 49.3651 59.0536 49.6841 58.9315C50.3475 58.6775 51.5388 58.49 53.3677 58.49V54.49ZM45.4277 58.83C45.4277 60.8005 46.8758 61.92 48.2477 62.4504C49.6009 62.9736 51.3789 63.17 53.3677 63.17V59.17C51.5464 59.17 50.3544 58.9764 49.6901 58.7196C49.0446 58.47 49.4277 58.4195 49.4277 58.83H45.4277ZM53.3677 63.17C55.3435 63.17 57.1194 62.9731 58.474 62.4513C59.837 61.9263 61.3077 60.8117 61.3077 58.83H57.3077C57.3077 58.4083 57.6983 58.4636 57.0363 58.7187C56.3659 58.9769 55.1718 59.17 53.3677 59.17V63.17ZM61.3077 58.83C61.3077 56.8409 59.8475 55.7213 58.468 55.1951C57.1124 54.678 55.3359 54.49 53.3677 54.49V58.49C55.1794 58.49 56.3729 58.677 57.0423 58.9324C57.6879 59.1787 57.3077 59.2291 57.3077 58.83H61.3077ZM43.7077 72.89H62.9077V68.89H43.7077V72.89ZM60.9077 70.89V80.37H64.9077V70.89H60.9077ZM62.9077 78.37H43.7077V82.37H62.9077V78.37ZM45.7077 80.37V70.89H41.7077V80.37H45.7077ZM59.0077 72.04H47.6377V76.04H59.0077V72.04ZM45.6377 74.04V77.22H49.6377V74.04H45.6377ZM47.6377 79.22H59.0077V75.22H47.6377V79.22ZM61.0077 77.22V74.04H57.0077V77.22H61.0077ZM40.7977 67.82H65.9077V63.82H40.7977V67.82ZM63.9077 65.82V68.97H67.9077V65.82H63.9077ZM65.9077 66.97H40.7977V70.97H65.9077V66.97ZM42.7977 68.97V65.82H38.7977V68.97H42.7977ZM84.0703 57.05V55.05H82.0703V57.05H84.0703ZM87.4203 57.05H89.4203V55.05H87.4203V57.05ZM87.4203 80.275V82.275H89.4203V80.275H87.4203ZM84.0703 80.275H82.0703V82.275H84.0703V80.275ZM84.0703 59.05H87.4203V55.05H84.0703V59.05ZM85.4203 57.05V80.275H89.4203V57.05H85.4203ZM87.4203 78.275H84.0703V82.275H87.4203V78.275ZM86.0703 80.275V57.05H82.0703V80.275H86.0703ZM74.9453 60.675C76.0246 60.675 76.9692 61.1451 77.6995 62.1118C78.4572 63.1147 79.0203 64.7211 79.0203 66.925H83.0203C83.0203 64.0789 82.296 61.5603 80.8911 59.7007C79.459 57.8049 77.366 56.675 74.9453 56.675V60.675ZM79.0203 66.925C79.0203 69.1579 78.4552 70.7772 77.697 71.7853C76.9669 72.7559 76.0237 73.225 74.9453 73.225V77.225C77.3669 77.225 79.4612 76.0941 80.8936 74.1897C82.2979 72.3228 83.0203 69.7921 83.0203 66.925H79.0203ZM74.9453 73.225C73.8669 73.225 72.9237 72.7559 72.1936 71.7853C71.4354 70.7772 70.8703 69.1579 70.8703 66.925H66.8703C66.8703 69.7921 67.5927 72.3228 68.997 74.1897C70.4294 76.0941 72.5237 77.225 74.9453 77.225V73.225ZM70.8703 66.925C70.8703 64.7211 71.4335 63.1147 72.1911 62.1118C72.9215 61.1451 73.866 60.675 74.9453 60.675V56.675C72.5246 56.675 70.4317 57.8049 68.9995 59.7007C67.5947 61.5603 66.8703 64.0789 66.8703 66.925H70.8703ZM74.9453 59.7C73.2416 59.7 71.9152 60.6556 71.1169 62.0366C70.3647 63.338 70.0453 65.0373 70.0453 66.925H74.0453C74.0453 65.4127 74.3134 64.4995 74.58 64.0384C74.8005 63.6569 74.9241 63.7 74.9453 63.7V59.7ZM70.0453 66.925C70.0453 68.834 70.3635 70.5479 71.1108 71.8591C71.9028 73.2486 73.2277 74.225 74.9453 74.225V70.225C74.9379 70.225 74.8128 70.2764 74.586 69.8784C74.3146 69.4021 74.0453 68.466 74.0453 66.925H70.0453ZM74.9453 74.225C76.668 74.225 77.9883 73.2429 78.7725 71.8499C79.5103 70.5393 79.8203 68.8278 79.8203 66.925H75.8203C75.8203 68.4722 75.5554 69.4107 75.2869 69.8876C75.0648 70.2821 74.9476 70.225 74.9453 70.225V74.225ZM79.8203 66.925C79.8203 65.0436 79.5092 63.3467 78.7666 62.0459C77.976 60.6612 76.6541 59.7 74.9453 59.7V63.7C74.9615 63.7 75.0771 63.6513 75.2928 64.0291C75.5564 64.4908 75.8203 65.4064 75.8203 66.925H79.8203ZM96.7684 60.725V58.725H94.7684V60.725H96.7684ZM99.4184 60.725H101.418V58.725H99.4184V60.725ZM92.8934 75.875L91.2659 77.0375L92.2221 78.3762L93.7202 77.6961L92.8934 75.875ZM91.0184 73.25L90.205 71.4229L87.9671 72.4191L89.3909 74.4125L91.0184 73.25ZM97.5184 60.725V58.725H95.5184V60.725H97.5184ZM100.143 60.725H102.143V58.725H100.143V60.725ZM105.868 72.675L107.518 73.8061L108.915 71.769L106.632 70.8264L105.868 72.675ZM104.068 75.3L103.275 77.1361L104.787 77.7887L105.718 76.4311L104.068 75.3ZM91.9434 59.3V57.3H89.9434V59.3H91.9434ZM104.918 59.3H106.918V57.3H104.918V59.3ZM104.918 62.025V64.025H106.918V62.025H104.918ZM91.9434 62.025H89.9434V64.025H91.9434V62.025ZM107.068 57.075V55.075H105.068V57.075H107.068ZM110.418 57.075H112.418V55.075H110.418V57.075ZM110.418 80.225V82.225H112.418V80.225H110.418ZM107.068 80.225H105.068V82.225H107.068V80.225ZM96.7684 62.725H99.4184V58.725H96.7684V62.725ZM97.4184 60.725V63.325H101.418V60.725H97.4184ZM97.4184 63.325C97.4184 68.2948 95.3953 72.5426 92.0665 74.0539L93.7202 77.6961C99.0914 75.2574 101.418 69.0552 101.418 63.325H97.4184ZM94.5208 74.7125L92.6458 72.0875L89.3909 74.4125L91.2659 77.0375L94.5208 74.7125ZM91.8317 75.0771C96.6543 72.9303 98.7684 67.7588 98.7684 63.325H94.7684C94.7684 66.7412 93.1324 70.1197 90.205 71.4229L91.8317 75.0771ZM98.7684 63.325V60.725H94.7684V63.325H98.7684ZM97.5184 62.725H100.143V58.725H97.5184V62.725ZM98.1434 60.725V63.325H102.143V60.725H98.1434ZM98.1434 63.325C98.1434 67.6362 100.276 72.5296 105.105 74.5236L106.632 70.8264C103.711 69.6204 102.143 66.5138 102.143 63.325H98.1434ZM104.219 71.5439L102.419 74.1689L105.718 76.4311L107.518 73.8061L104.219 71.5439ZM104.861 73.4639C101.479 72.0035 99.5184 68.0425 99.5184 63.325H95.5184C95.5184 68.9075 97.8574 74.7965 103.275 77.1361L104.861 73.4639ZM99.5184 63.325V60.725H95.5184V63.325H99.5184ZM91.9434 61.3H104.918V57.3H91.9434V61.3ZM102.918 59.3V62.025H106.918V59.3H102.918ZM104.918 60.025H91.9434V64.025H104.918V60.025ZM93.9434 62.025V59.3H89.9434V62.025H93.9434ZM107.068 59.075H110.418V55.075H107.068V59.075ZM108.418 57.075V80.225H112.418V57.075H108.418ZM110.418 78.225H107.068V82.225H110.418V78.225ZM109.068 80.225V57.075H105.068V80.225H109.068ZM116.441 63.45L116.926 65.3903L116.936 65.3878L116.441 63.45ZM115.516 63.275L114.302 64.8637L114.332 64.8869L114.363 64.9089L115.516 63.275ZM115.466 60.575L113.905 59.3256L113.897 59.3357L115.466 60.575ZM116.466 59.975L116.795 61.9478L116.812 61.9449L116.829 61.9418L116.466 59.975ZM126.191 60.725L127.349 59.0943L127.349 59.0943L126.191 60.725ZM127.666 65.575L125.776 64.923L125.766 64.9525L125.756 64.9822L127.666 65.575ZM126.891 66.9L125.417 65.5485L125.401 65.5656L125.386 65.583L126.891 66.9ZM125.966 67.825L127.216 69.3867L127.222 69.382L127.228 69.3772L125.966 67.825ZM124.816 68.65L123.695 66.9942L123.665 67.0142L123.636 67.0352L124.816 68.65ZM123.866 69.35L124.976 71.0141L125.022 70.9833L125.066 70.95L123.866 69.35ZM123.141 70L124.556 71.4142L124.576 71.394L124.595 71.3732L123.141 70ZM122.491 70.85L120.724 69.9142L120.72 69.9218L120.716 69.9294L122.491 70.85ZM118.641 71.775L120.098 70.4043L120.098 70.4043L118.641 71.775ZM118.391 70.8L120.321 71.3262L120.323 71.319L120.325 71.3118L118.391 70.8ZM119.191 69.175L120.798 70.3667L120.807 70.3546L120.815 70.3423L119.191 69.175ZM120.216 68L121.497 69.5364L121.521 69.516L121.545 69.4948L120.216 68ZM121.516 66.975L122.701 68.5863L122.707 68.5821L121.516 66.975ZM122.516 66.175L121.215 64.6565L121.187 64.6804L121.16 64.7054L122.516 66.175ZM123.166 65.425L121.502 64.3156L123.166 65.425ZM121.916 74.675L120.502 76.0892L120.502 76.0892L121.916 74.675ZM121.916 77.575L120.502 76.1608L120.502 76.1608L121.916 77.575ZM118.416 77.575L116.96 78.9457L116.981 78.9678L117.002 78.9892L118.416 77.575ZM118.416 74.675L117.002 73.2608L116.981 73.2822L116.96 73.3043L118.416 74.675ZM115.956 61.5097C116.043 61.488 116.176 61.4741 116.332 61.5036C116.487 61.533 116.602 61.5935 116.67 61.6411L114.363 64.9089C115.117 65.441 116.022 65.6163 116.926 65.3903L115.956 61.5097ZM116.731 61.6863C116.801 61.7393 116.905 61.8426 116.987 62.0056C117.069 62.1697 117.091 62.3225 117.091 62.425H113.091C113.091 63.4118 113.534 64.2771 114.302 64.8637L116.731 61.6863ZM117.091 62.425V61.675H113.091V62.425H117.091ZM117.091 61.675C117.091 61.6696 117.092 61.6932 117.078 61.7328C117.064 61.7732 117.046 61.8019 117.036 61.8143L113.897 59.3357C113.358 60.0176 113.091 60.8245 113.091 61.675H117.091ZM117.028 61.8244C117.029 61.8238 117.022 61.8318 117.008 61.8448C116.993 61.858 116.972 61.874 116.945 61.89C116.888 61.9246 116.832 61.9417 116.795 61.9478L116.138 58.0022C115.224 58.1544 114.461 58.6297 113.905 59.3256L117.028 61.8244ZM116.829 61.9418C118.44 61.6448 119.959 61.5 121.391 61.5V57.5C119.69 57.5 117.927 57.6719 116.104 58.0082L116.829 61.9418ZM121.391 61.5C123.206 61.5 124.344 61.8658 125.033 62.3557L127.349 59.0943C125.739 57.9509 123.676 57.5 121.391 57.5V61.5ZM125.033 62.3557C125.699 62.8286 125.916 63.3086 125.916 63.925H129.916C129.916 61.9081 128.983 60.2547 127.349 59.0943L125.033 62.3557ZM125.916 63.925C125.916 64.3641 125.857 64.6876 125.776 64.923L129.557 66.227C129.809 65.4957 129.916 64.7192 129.916 63.925H125.916ZM125.756 64.9822C125.7 65.1635 125.599 65.3502 125.417 65.5485L128.366 68.2514C128.917 67.6498 129.333 66.9531 129.577 66.1678L125.756 64.9822ZM125.386 65.583C125.075 65.9385 124.85 66.155 124.705 66.2728L127.228 69.3772C127.616 69.0617 128.008 68.6615 128.397 68.217L125.386 65.583ZM124.717 66.2633C124.531 66.4124 124.2 66.6516 123.695 66.9942L125.938 70.3058C126.466 69.9484 126.902 69.6376 127.216 69.3867L124.717 66.2633ZM123.636 67.0352C123.202 67.3526 122.877 67.5921 122.666 67.75L125.066 70.95C125.256 70.8079 125.564 70.5808 125.996 70.2648L123.636 67.0352ZM122.757 67.6859C122.374 67.9415 122.012 68.2832 121.687 68.6268L124.595 71.3732C124.709 71.2533 124.8 71.1647 124.87 71.1016C124.943 71.0365 124.977 71.0133 124.976 71.0141L122.757 67.6859ZM121.727 68.5858C121.336 68.9765 120.987 69.4171 120.724 69.9142L124.259 71.7858C124.296 71.7162 124.38 71.5902 124.556 71.4142L121.727 68.5858ZM120.716 69.9294C120.646 70.0632 120.587 70.1516 120.544 70.2067C120.501 70.2612 120.48 70.2758 120.487 70.2706C120.496 70.2637 120.528 70.2424 120.58 70.2244C120.633 70.206 120.682 70.2 120.716 70.2V74.2C122.476 74.2 123.618 73.0215 124.267 71.7706L120.716 69.9294ZM120.716 70.2H119.641V74.2H120.716V70.2ZM119.641 70.2C119.682 70.2 119.768 70.2083 119.874 70.2531C119.98 70.2984 120.056 70.3595 120.098 70.4043L117.185 73.1457C117.841 73.8432 118.707 74.2 119.641 74.2V70.2ZM120.098 70.4043C120.159 70.469 120.261 70.6083 120.316 70.822C120.372 71.038 120.35 71.2202 120.321 71.3262L116.462 70.2738C116.173 71.3313 116.455 72.3702 117.185 73.1457L120.098 70.4043ZM120.325 71.3118C120.404 71.0134 120.551 70.6995 120.798 70.3667L117.585 67.9833C117.065 68.6839 116.679 69.4533 116.458 70.2882L120.325 71.3118ZM120.815 70.3423C121.157 69.8665 121.385 69.6299 121.497 69.5364L118.936 66.4636C118.448 66.8701 117.992 67.4168 117.567 68.0077L120.815 70.3423ZM121.545 69.4948C121.777 69.2886 122.153 68.9892 122.701 68.5863L120.332 65.3637C119.746 65.7942 119.256 66.1781 118.888 66.5052L121.545 69.4948ZM122.707 68.5821C123.173 68.2367 123.576 67.919 123.873 67.6446L121.16 64.7054C121.024 64.831 120.76 65.0466 120.326 65.3679L122.707 68.5821ZM123.818 67.6935C124.212 67.3559 124.546 66.9611 124.831 66.5344L121.502 64.3156C121.387 64.4889 121.288 64.5941 121.215 64.6565L123.818 67.6935ZM124.831 66.5344C125.218 65.9528 125.466 65.2644 125.466 64.5H121.466C121.466 64.4439 121.476 64.3921 121.489 64.3517C121.501 64.3133 121.512 64.3012 121.502 64.3156L124.831 66.5344ZM125.466 64.5C125.466 63.2897 124.909 62.2128 123.834 61.5559C122.92 60.997 121.805 60.85 120.766 60.85V64.85C121.121 64.85 121.375 64.8776 121.548 64.9129C121.724 64.9487 121.772 64.9834 121.749 64.9691C121.712 64.9466 121.617 64.8737 121.542 64.7358C121.508 64.6729 121.487 64.6145 121.477 64.5685C121.466 64.5239 121.466 64.4988 121.466 64.5H125.466ZM120.766 60.85C119.25 60.85 117.64 61.0799 115.947 61.5122L116.936 65.3878C118.376 65.0201 119.649 64.85 120.766 64.85V60.85ZM119.416 76.25H120.916V72.25H119.416V76.25ZM120.916 76.25C120.855 76.25 120.767 76.2373 120.672 76.1969C120.578 76.1573 120.523 76.1096 120.502 76.0892L123.331 73.2608C122.691 72.6213 121.856 72.25 120.916 72.25V76.25ZM120.502 76.0892C120.482 76.0688 120.434 76.013 120.394 75.9198C120.354 75.8248 120.341 75.7362 120.341 75.675H124.341C124.341 74.7351 123.97 73.9003 123.331 73.2608L120.502 76.0892ZM120.341 75.675V76.575H124.341V75.675H120.341ZM120.341 76.575C120.341 76.5138 120.354 76.4252 120.394 76.3302C120.434 76.237 120.482 76.1812 120.502 76.1608L123.331 78.9892C123.97 78.3497 124.341 77.5149 124.341 76.575H120.341ZM120.502 76.1608C120.523 76.1404 120.578 76.0927 120.672 76.0531C120.767 76.0127 120.855 76 120.916 76V80C121.856 80 122.691 79.6287 123.331 78.9892L120.502 76.1608ZM120.916 76H119.416V80H120.916V76ZM119.416 76C119.478 76 119.566 76.0127 119.661 76.0531C119.754 76.0927 119.81 76.1404 119.831 76.1608L117.002 78.9892C117.642 79.6287 118.476 80 119.416 80V76ZM119.873 76.2043C119.897 76.2296 119.939 76.285 119.973 76.3697C120.007 76.4549 120.016 76.5296 120.016 76.575H116.016C116.016 77.4762 116.35 78.2976 116.96 78.9457L119.873 76.2043ZM120.016 76.575V75.675H116.016V76.575H120.016ZM120.016 75.675C120.016 75.7204 120.007 75.7951 119.973 75.8803C119.939 75.965 119.897 76.0204 119.873 76.0457L116.96 73.3043C116.35 73.9524 116.016 74.7738 116.016 75.675H120.016ZM119.831 76.0892C119.81 76.1096 119.754 76.1573 119.661 76.1969C119.566 76.2373 119.478 76.25 119.416 76.25V72.25C118.476 72.25 117.642 72.6213 117.002 73.2608L119.831 76.0892Z" fill="#619092" mask="url(#path-1-outside-1_67_5)"/>
</svg>
