<svg width="104" height="104" viewBox="0 0 104 104" fill="none" xmlns="http://www.w3.org/2000/svg">
<circle cx="52" cy="52" r="51" fill="white" stroke="#8DBAAF" stroke-width="2"/>
<mask id="path-2-outside-1_94_56" maskUnits="userSpaceOnUse" x="11" y="28" width="80" height="41" fill="black">
<rect fill="white" x="11" y="28" width="80" height="41"/>
<path d="M25.897 39.72L22.977 51.2C22.9504 51.28 22.9637 51.36 23.017 51.44C23.097 51.4933 23.177 51.52 23.257 51.52H28.617C28.697 51.52 28.7637 51.4933 28.817 51.44C28.897 51.36 28.9237 51.28 28.897 51.2L25.977 39.72C25.977 39.6933 25.9637 39.68 25.937 39.68C25.9104 39.68 25.897 39.6933 25.897 39.72ZM15.217 63C14.657 63 14.2037 62.7733 13.857 62.32C13.537 61.8667 13.4704 61.3733 13.657 60.84L21.737 35.96C21.9504 35.32 22.3237 34.8 22.857 34.4C23.417 34 24.0304 33.8 24.697 33.8H27.337C28.0304 33.8 28.657 34 29.217 34.4C29.777 34.8 30.1504 35.32 30.337 35.96L38.377 60.84C38.5637 61.3733 38.4837 61.8667 38.137 62.32C37.817 62.7733 37.377 63 36.817 63H34.137C33.4704 63 32.8704 62.8 32.337 62.4C31.8037 61.9733 31.457 61.44 31.297 60.8L30.337 57C30.3104 56.7867 30.177 56.68 29.937 56.68H21.937C21.7237 56.68 21.5904 56.7867 21.537 57L20.577 60.8C20.417 61.44 20.0704 61.9733 19.537 62.4C19.0037 62.8 18.4037 63 17.737 63H15.217ZM44.8995 63C44.2862 63 43.7529 62.7733 43.2995 62.32C42.8729 61.8667 42.6595 61.3333 42.6595 60.72V36.08C42.6595 35.4667 42.8729 34.9333 43.2995 34.48C43.7529 34.0267 44.2862 33.8 44.8995 33.8H47.8595C48.4729 33.8 48.9929 34.0267 49.4195 34.48C49.8729 34.9333 50.0995 35.4667 50.0995 36.08V60.72C50.0995 61.3333 49.8729 61.8667 49.4195 62.32C48.9929 62.7733 48.4729 63 47.8595 63H44.8995ZM62.8661 41.92H68.1861V48.72H62.8661V41.92ZM75.9061 41.92H81.1861V48.72H75.9061V41.92ZM55.3461 47.08H88.8261V51.28H55.3461V47.08ZM72.0261 53.16C80.0261 53.16 84.8661 55.56 84.8661 59.84C84.8661 64.16 80.0261 66.56 72.0261 66.56C63.9861 66.56 59.1461 64.16 59.1461 59.84C59.1461 55.56 63.9861 53.16 72.0261 53.16ZM72.0261 57.16C67.0661 57.16 64.5461 58 64.5461 59.84C64.5461 61.72 67.0661 62.56 72.0261 62.56C76.9861 62.56 79.5061 61.72 79.5061 59.84C79.5061 58 76.9861 57.16 72.0261 57.16ZM72.1061 30.04C80.2661 30.04 85.5061 32.76 85.5061 37.2C85.5061 41.6 80.2661 44.24 72.1061 44.24C63.9061 44.24 58.7061 41.6 58.7061 37.2C58.7061 32.76 63.9061 30.04 72.1061 30.04ZM72.1061 34.12C67.0261 34.12 64.1861 35.12 64.1861 37.2C64.1861 39.24 67.0261 40.24 72.1061 40.24C77.1861 40.24 80.0261 39.24 80.0261 37.2C80.0261 35.12 77.1861 34.12 72.1061 34.12Z"/>
</mask>
<path d="M25.897 39.72L22.977 51.2C22.9504 51.28 22.9637 51.36 23.017 51.44C23.097 51.4933 23.177 51.52 23.257 51.52H28.617C28.697 51.52 28.7637 51.4933 28.817 51.44C28.897 51.36 28.9237 51.28 28.897 51.2L25.977 39.72C25.977 39.6933 25.9637 39.68 25.937 39.68C25.9104 39.68 25.897 39.6933 25.897 39.72ZM15.217 63C14.657 63 14.2037 62.7733 13.857 62.32C13.537 61.8667 13.4704 61.3733 13.657 60.84L21.737 35.96C21.9504 35.32 22.3237 34.8 22.857 34.4C23.417 34 24.0304 33.8 24.697 33.8H27.337C28.0304 33.8 28.657 34 29.217 34.4C29.777 34.8 30.1504 35.32 30.337 35.96L38.377 60.84C38.5637 61.3733 38.4837 61.8667 38.137 62.32C37.817 62.7733 37.377 63 36.817 63H34.137C33.4704 63 32.8704 62.8 32.337 62.4C31.8037 61.9733 31.457 61.44 31.297 60.8L30.337 57C30.3104 56.7867 30.177 56.68 29.937 56.68H21.937C21.7237 56.68 21.5904 56.7867 21.537 57L20.577 60.8C20.417 61.44 20.0704 61.9733 19.537 62.4C19.0037 62.8 18.4037 63 17.737 63H15.217ZM44.8995 63C44.2862 63 43.7529 62.7733 43.2995 62.32C42.8729 61.8667 42.6595 61.3333 42.6595 60.72V36.08C42.6595 35.4667 42.8729 34.9333 43.2995 34.48C43.7529 34.0267 44.2862 33.8 44.8995 33.8H47.8595C48.4729 33.8 48.9929 34.0267 49.4195 34.48C49.8729 34.9333 50.0995 35.4667 50.0995 36.08V60.72C50.0995 61.3333 49.8729 61.8667 49.4195 62.32C48.9929 62.7733 48.4729 63 47.8595 63H44.8995ZM62.8661 41.92H68.1861V48.72H62.8661V41.92ZM75.9061 41.92H81.1861V48.72H75.9061V41.92ZM55.3461 47.08H88.8261V51.28H55.3461V47.08ZM72.0261 53.16C80.0261 53.16 84.8661 55.56 84.8661 59.84C84.8661 64.16 80.0261 66.56 72.0261 66.56C63.9861 66.56 59.1461 64.16 59.1461 59.84C59.1461 55.56 63.9861 53.16 72.0261 53.16ZM72.0261 57.16C67.0661 57.16 64.5461 58 64.5461 59.84C64.5461 61.72 67.0661 62.56 72.0261 62.56C76.9861 62.56 79.5061 61.72 79.5061 59.84C79.5061 58 76.9861 57.16 72.0261 57.16ZM72.1061 30.04C80.2661 30.04 85.5061 32.76 85.5061 37.2C85.5061 41.6 80.2661 44.24 72.1061 44.24C63.9061 44.24 58.7061 41.6 58.7061 37.2C58.7061 32.76 63.9061 30.04 72.1061 30.04ZM72.1061 34.12C67.0261 34.12 64.1861 35.12 64.1861 37.2C64.1861 39.24 67.0261 40.24 72.1061 40.24C77.1861 40.24 80.0261 39.24 80.0261 37.2C80.0261 35.12 77.1861 34.12 72.1061 34.12Z" fill="white"/>
<path d="M25.897 39.72L27.8353 40.213L27.897 39.9704V39.72H25.897ZM22.977 51.2L24.8744 51.8324L24.8974 51.7635L24.9153 51.693L22.977 51.2ZM23.017 51.44L21.3529 52.5494L21.5748 52.8822L21.9076 53.1041L23.017 51.44ZM28.897 51.2L26.9587 51.693L26.9767 51.7635L26.9997 51.8325L28.897 51.2ZM25.977 39.72H23.977V39.9704L24.0388 40.213L25.977 39.72ZM13.857 62.32L12.2231 63.4734L12.2451 63.5046L12.2683 63.5349L13.857 62.32ZM13.657 60.84L15.5447 61.5007L15.5522 61.4793L15.5592 61.4578L13.657 60.84ZM21.737 35.96L19.8397 35.3275L19.8372 35.3349L19.8348 35.3422L21.737 35.96ZM22.857 34.4L21.6946 32.7725L21.6756 32.786L21.657 32.8L22.857 34.4ZM30.337 35.96L28.417 36.52L28.4251 36.5476L28.4339 36.575L30.337 35.96ZM38.377 60.84L36.4739 61.455L36.4813 61.4779L36.4893 61.5007L38.377 60.84ZM38.137 62.32L36.5483 61.1051L36.5251 61.1354L36.5031 61.1666L38.137 62.32ZM32.337 62.4L31.0876 63.9617L31.112 63.9813L31.137 64L32.337 62.4ZM31.297 60.8L33.2373 60.3149L33.2361 60.3101L31.297 60.8ZM30.337 57L28.3525 57.2481L28.3678 57.3704L28.398 57.4899L30.337 57ZM21.537 57L23.4761 57.4899L23.4773 57.4851L21.537 57ZM20.577 60.8L18.6379 60.3101L18.6367 60.3149L20.577 60.8ZM19.537 62.4L20.737 64L20.762 63.9813L20.7864 63.9617L19.537 62.4ZM23.9587 39.227L21.0387 50.707L24.9153 51.693L27.8353 40.213L23.9587 39.227ZM21.0797 50.5675C20.8288 51.3203 21.0117 52.0375 21.3529 52.5494L24.6811 50.3306C24.7827 50.483 24.8922 50.7052 24.9398 50.9912C24.9889 51.286 24.96 51.5757 24.8744 51.8324L21.0797 50.5675ZM21.9076 53.1041C22.2489 53.3316 22.7084 53.52 23.257 53.52V49.52C23.6456 49.52 23.9452 49.6551 24.1264 49.7759L21.9076 53.1041ZM23.257 53.52H28.617V49.52H23.257V53.52ZM28.617 53.52C29.1918 53.52 29.7783 53.3071 30.2312 52.8542L27.4028 50.0258C27.5578 49.8708 27.7535 49.7353 27.9842 49.643C28.2127 49.5517 28.4316 49.52 28.617 49.52V53.52ZM30.2312 52.8542C30.6333 52.4521 31.1432 51.6138 30.7944 50.5675L26.9997 51.8325C26.8762 51.4619 26.8762 51.0581 26.9997 50.6875C27.1122 50.35 27.2948 50.1338 27.4028 50.0258L30.2312 52.8542ZM30.8353 50.707L27.9153 39.227L24.0388 40.213L26.9587 51.693L30.8353 50.707ZM27.977 39.72C27.977 39.3984 27.8953 38.7898 27.3812 38.2758C26.8672 37.7618 26.2586 37.68 25.937 37.68V41.68C25.6421 41.68 25.0535 41.6049 24.5528 41.1042C24.0521 40.6035 23.977 40.015 23.977 39.72H27.977ZM25.937 37.68C25.6154 37.68 25.0068 37.7618 24.4928 38.2758C23.9788 38.7898 23.897 39.3984 23.897 39.72H27.897C27.897 40.015 27.8219 40.6035 27.3212 41.1042C26.8206 41.6049 26.232 41.68 25.937 41.68V37.68ZM15.217 61C15.2125 61 15.2262 60.9996 15.2536 61.0057C15.2817 61.012 15.3158 61.0233 15.3515 61.0411C15.4294 61.0801 15.4578 61.1208 15.4457 61.1051L12.2683 63.5349C12.9849 64.472 14.0203 65 15.217 65V61ZM15.491 61.1666C15.4909 61.1666 15.5025 61.1831 15.516 61.2162C15.5299 61.2503 15.5424 61.2933 15.549 61.3422C15.5633 61.4481 15.5414 61.5101 15.5447 61.5007L11.7693 60.1793C11.3737 61.3095 11.5222 62.4805 12.2231 63.4734L15.491 61.1666ZM15.5592 61.4578L23.6392 36.5778L19.8348 35.3422L11.7548 60.2222L15.5592 61.4578ZM23.6344 36.5925C23.7207 36.3335 23.8533 36.1528 24.057 36L21.657 32.8C20.7941 33.4472 20.18 34.3065 19.8397 35.3275L23.6344 36.5925ZM24.0195 36.0275C24.252 35.8614 24.4614 35.8 24.697 35.8V31.8C23.5994 31.8 22.5821 32.1386 21.6946 32.7725L24.0195 36.0275ZM24.697 35.8H27.337V31.8H24.697V35.8ZM27.337 35.8C27.6169 35.8 27.8365 35.8717 28.0546 36.0275L30.3795 32.7725C29.4776 32.1283 28.4439 31.8 27.337 31.8V35.8ZM28.0546 36.0275C28.2622 36.1758 28.3603 36.3255 28.417 36.52L32.257 35.4C31.9404 34.3145 31.2919 33.4242 30.3795 32.7725L28.0546 36.0275ZM28.4339 36.575L36.4739 61.455L40.2801 60.225L32.2401 35.345L28.4339 36.575ZM36.4893 61.5007C36.4894 61.5009 36.4819 61.4795 36.4777 61.4392C36.4734 61.3978 36.4737 61.3463 36.4828 61.2899C36.5027 61.1674 36.5501 61.1028 36.5483 61.1051L39.7257 63.5349C40.4766 62.553 40.6766 61.3559 40.2647 60.1793L36.4893 61.5007ZM36.5031 61.1666C36.5026 61.1674 36.514 61.1511 36.5409 61.127C36.5686 61.1023 36.6058 61.0754 36.6511 61.0521C36.7497 61.0013 36.8207 61 36.817 61V65C38.0197 65 39.0721 64.4634 39.771 63.4734L36.5031 61.1666ZM36.817 61H34.137V65H36.817V61ZM34.137 61C33.9031 61 33.7242 60.9404 33.537 60.8L31.137 64C32.0166 64.6596 33.0376 65 34.137 65V61ZM33.5864 60.8383C33.3821 60.6748 33.2871 60.5142 33.2373 60.3149L29.3567 61.2851C29.6269 62.3658 30.2253 63.2719 31.0876 63.9617L33.5864 60.8383ZM33.2361 60.3101L32.2761 56.5101L28.398 57.4899L29.358 61.2899L33.2361 60.3101ZM32.3216 56.7519C32.2612 56.2689 32.0385 55.6559 31.4664 55.1983C30.9258 54.7658 30.3303 54.68 29.937 54.68V58.68C29.7838 58.68 29.3749 58.6475 28.9676 58.3217C28.5289 57.9708 28.3862 57.5178 28.3525 57.2481L32.3216 56.7519ZM29.937 54.68H21.937V58.68H29.937V54.68ZM21.937 54.68C21.4921 54.68 20.9299 54.7964 20.4276 55.1983C19.9316 55.5951 19.6988 56.1065 19.5967 56.5149L23.4773 57.4851C23.4286 57.6801 23.2891 58.0316 22.9264 58.3217C22.5575 58.6169 22.1686 58.68 21.937 58.68V54.68ZM19.598 56.5101L18.638 60.3101L22.5161 61.2899L23.4761 57.4899L19.598 56.5101ZM18.6367 60.3149C18.5869 60.5142 18.492 60.6748 18.2876 60.8383L20.7864 63.9617C21.6487 63.2719 22.2471 62.3658 22.5173 61.2851L18.6367 60.3149ZM18.337 60.8C18.1499 60.9404 17.971 61 17.737 61V65C18.8364 65 19.8575 64.6596 20.737 64L18.337 60.8ZM17.737 61H15.217V65H17.737V61ZM43.2995 62.32L41.8431 63.6907L41.8639 63.7128L41.8853 63.7342L43.2995 62.32ZM43.2995 34.48L41.8853 33.0658L41.8639 33.0872L41.8431 33.1093L43.2995 34.48ZM49.4195 34.48L47.9631 35.8507L47.9839 35.8728L48.0053 35.8942L49.4195 34.48ZM49.4195 62.32L48.0053 60.9058L47.9839 60.9272L47.9631 60.9493L49.4195 62.32ZM44.8995 61C44.8457 61 44.8268 60.9915 44.8218 60.9893C44.8151 60.9865 44.7784 60.9704 44.7137 60.9058L41.8853 63.7342C42.6948 64.5437 43.7296 65 44.8995 65V61ZM44.7559 60.9493C44.6726 60.8607 44.6595 60.8154 44.6595 60.72H40.6595C40.6595 61.8512 41.0731 62.8726 41.8431 63.6907L44.7559 60.9493ZM44.6595 60.72V36.08H40.6595V60.72H44.6595ZM44.6595 36.08C44.6595 35.9846 44.6726 35.9393 44.7559 35.8507L41.8431 33.1093C41.0731 33.9274 40.6595 34.9488 40.6595 36.08H44.6595ZM44.7137 35.8942C44.7784 35.8296 44.8151 35.8135 44.8218 35.8107C44.8268 35.8085 44.8457 35.8 44.8995 35.8V31.8C43.7296 31.8 42.6948 32.2563 41.8853 33.0658L44.7137 35.8942ZM44.8995 35.8H47.8595V31.8H44.8995V35.8ZM47.8595 35.8C47.8892 35.8 47.9049 35.8027 47.9098 35.8037C47.9143 35.8046 47.9135 35.8048 47.9104 35.8034C47.9073 35.802 47.9086 35.8021 47.9152 35.8069C47.9223 35.8119 47.9387 35.8247 47.9631 35.8507L50.8759 33.1093C50.0777 32.2612 49.0336 31.8 47.8595 31.8V35.8ZM48.0053 35.8942C48.0699 35.9588 48.086 35.9955 48.0889 36.0023C48.091 36.0073 48.0995 36.0262 48.0995 36.08H52.0995C52.0995 34.9101 51.6432 33.8753 50.8337 33.0658L48.0053 35.8942ZM48.0995 36.08V60.72H52.0995V36.08H48.0995ZM48.0995 60.72C48.0995 60.7738 48.091 60.7927 48.0889 60.7977C48.086 60.8045 48.0699 60.8412 48.0053 60.9058L50.8337 63.7342C51.6432 62.9247 52.0995 61.8899 52.0995 60.72H48.0995ZM47.9631 60.9493C47.9387 60.9753 47.9223 60.9881 47.9152 60.9931C47.9086 60.9979 47.9073 60.998 47.9104 60.9966C47.9135 60.9952 47.9143 60.9954 47.9098 60.9963C47.9049 60.9973 47.8892 61 47.8595 61V65C49.0336 65 50.0777 64.5388 50.8759 63.6907L47.9631 60.9493ZM47.8595 61H44.8995V65H47.8595V61ZM62.8661 41.92V39.92H60.8661V41.92H62.8661ZM68.1861 41.92H70.1861V39.92H68.1861V41.92ZM68.1861 48.72V50.72H70.1861V48.72H68.1861ZM62.8661 48.72H60.8661V50.72H62.8661V48.72ZM75.9061 41.92V39.92H73.9061V41.92H75.9061ZM81.1861 41.92H83.1861V39.92H81.1861V41.92ZM81.1861 48.72V50.72H83.1861V48.72H81.1861ZM75.9061 48.72H73.9061V50.72H75.9061V48.72ZM55.3461 47.08V45.08H53.3461V47.08H55.3461ZM88.8261 47.08H90.8261V45.08H88.8261V47.08ZM88.8261 51.28V53.28H90.8261V51.28H88.8261ZM55.3461 51.28H53.3461V53.28H55.3461V51.28ZM62.8661 43.92H68.1861V39.92H62.8661V43.92ZM66.1861 41.92V48.72H70.1861V41.92H66.1861ZM68.1861 46.72H62.8661V50.72H68.1861V46.72ZM64.8661 48.72V41.92H60.8661V48.72H64.8661ZM75.9061 43.92H81.1861V39.92H75.9061V43.92ZM79.1861 41.92V48.72H83.1861V41.92H79.1861ZM81.1861 46.72H75.9061V50.72H81.1861V46.72ZM77.9061 48.72V41.92H73.9061V48.72H77.9061ZM55.3461 49.08H88.8261V45.08H55.3461V49.08ZM86.8261 47.08V51.28H90.8261V47.08H86.8261ZM88.8261 49.28H55.3461V53.28H88.8261V49.28ZM57.3461 51.28V47.08H53.3461V51.28H57.3461ZM72.0261 55.16C75.8743 55.16 78.7229 55.7448 80.5324 56.6741C82.2579 57.5603 82.8661 58.6349 82.8661 59.84H86.8661C86.8661 56.7651 85.0543 54.4997 82.3598 53.1159C79.7493 51.7752 76.1779 51.16 72.0261 51.16V55.16ZM82.8661 59.84C82.8661 61.0729 82.2493 62.1553 80.5292 63.0425C78.7214 63.9751 75.8748 64.56 72.0261 64.56V68.56C76.1774 68.56 79.7507 67.9449 82.363 66.5975C85.0629 65.2047 86.8661 62.9271 86.8661 59.84H82.8661ZM72.0261 64.56C68.1562 64.56 65.2992 63.9747 63.4863 63.0417C61.7619 62.1542 61.1461 61.072 61.1461 59.84H57.1461C57.1461 62.928 58.9503 65.2058 61.6559 66.5983C64.273 67.9453 67.856 68.56 72.0261 68.56V64.56ZM61.1461 59.84C61.1461 58.6358 61.7532 57.5614 63.4832 56.6749C65.2978 55.7451 68.1567 55.16 72.0261 55.16V51.16C67.8555 51.16 64.2744 51.7749 61.659 53.1151C58.9589 54.4986 57.1461 56.7642 57.1461 59.84H61.1461ZM72.0261 55.16C69.4912 55.16 67.3424 55.3672 65.762 55.9235C64.9604 56.2057 64.164 56.6255 63.5525 57.2833C62.8978 57.9875 62.5461 58.8703 62.5461 59.84H66.5461C66.5461 59.8396 66.5461 59.8495 66.5428 59.8675C66.5394 59.8858 66.5335 59.9077 66.5243 59.931C66.5042 59.9819 66.4813 60.0077 66.4822 60.0067C66.4982 59.9895 66.6418 59.8543 67.0902 59.6965C68.0098 59.3728 69.601 59.16 72.0261 59.16V55.16ZM62.5461 59.84C62.5461 60.8073 62.889 61.6943 63.5414 62.4077C64.1521 63.0757 64.9501 63.5025 65.7553 63.7892C67.3397 64.3532 69.4926 64.56 72.0261 64.56V60.56C69.5996 60.56 68.0125 60.3468 67.0969 60.0208C66.6521 59.8625 66.5101 59.7268 66.4933 59.7085C66.4916 59.7066 66.5116 59.7293 66.529 59.7742C66.5464 59.819 66.5461 59.8471 66.5461 59.84H62.5461ZM72.0261 64.56C74.5596 64.56 76.7125 64.3532 78.2969 63.7892C79.1021 63.5025 79.9001 63.0757 80.5108 62.4077C81.1632 61.6943 81.5061 60.8073 81.5061 59.84H77.5061C77.5061 59.8471 77.5058 59.819 77.5232 59.7742C77.5406 59.7293 77.5606 59.7066 77.5589 59.7085C77.5421 59.7268 77.4001 59.8625 76.9553 60.0208C76.0397 60.3468 74.4526 60.56 72.0261 60.56V64.56ZM81.5061 59.84C81.5061 58.8703 81.1543 57.9875 80.4997 57.2833C79.8882 56.6255 79.0918 56.2057 78.2902 55.9235C76.7098 55.3672 74.561 55.16 72.0261 55.16V59.16C74.4512 59.16 76.0424 59.3728 76.962 59.6965C77.4104 59.8543 77.554 59.9895 77.57 60.0067C77.5709 60.0077 77.548 59.9819 77.5279 59.931C77.5187 59.9077 77.5128 59.8858 77.5094 59.8675C77.5061 59.8495 77.5061 59.8396 77.5061 59.84H81.5061ZM72.1061 32.04C76.005 32.04 78.9938 32.6961 80.9294 33.7221C82.8132 34.7206 83.5061 35.9295 83.5061 37.2H87.5061C87.5061 34.0305 85.579 31.6594 82.8027 30.1879C80.0784 28.7439 76.3671 28.04 72.1061 28.04V32.04ZM83.5061 37.2C83.5061 38.4359 82.8301 39.6158 80.9443 40.5951C79.0062 41.6016 76.0127 42.24 72.1061 42.24V46.24C76.3595 46.24 80.066 45.5584 82.7878 44.1449C85.5621 42.7042 87.5061 40.3641 87.5061 37.2H83.5061ZM72.1061 42.24C68.178 42.24 65.1859 41.6011 63.2544 40.5959C61.379 39.6199 60.7061 38.442 60.7061 37.2H56.7061C56.7061 40.358 58.6332 42.7001 61.4078 44.1441C64.1262 45.5589 67.8342 46.24 72.1061 46.24V42.24ZM60.7061 37.2C60.7061 35.9234 61.3958 34.7165 63.2693 33.7213C65.1983 32.6966 68.1856 32.04 72.1061 32.04V28.04C67.8266 28.04 64.1139 28.7434 61.3929 30.1887C58.6164 31.6635 56.7061 34.0366 56.7061 37.2H60.7061ZM72.1061 32.12C69.4888 32.12 67.2187 32.3703 65.532 33.0099C63.8247 33.6573 62.1861 34.9596 62.1861 37.2H66.1861C66.1861 37.1838 66.1743 37.2032 66.1996 37.1749C66.2612 37.1061 66.4601 36.9359 66.9502 36.7501C67.9535 36.3696 69.6434 36.12 72.1061 36.12V32.12ZM62.1861 37.2C62.1861 39.4381 63.8487 40.7231 65.5381 41.3574C67.2212 41.9893 69.4877 42.24 72.1061 42.24V38.24C69.6445 38.24 67.951 37.9907 66.9441 37.6126C66.4509 37.4275 66.2507 37.2581 66.1899 37.1911C66.1657 37.1645 66.1706 37.1623 66.1792 37.184C66.1881 37.2068 66.1861 37.2177 66.1861 37.2H62.1861ZM72.1061 42.24C74.7245 42.24 76.991 41.9893 78.6741 41.3574C80.3635 40.7231 82.0261 39.4381 82.0261 37.2H78.0261C78.0261 37.2177 78.0241 37.2068 78.033 37.184C78.0416 37.1623 78.0465 37.1645 78.0223 37.1911C77.9615 37.2581 77.7613 37.4275 77.2681 37.6126C76.2612 37.9907 74.5677 38.24 72.1061 38.24V42.24ZM82.0261 37.2C82.0261 34.9596 80.3875 33.6573 78.6802 33.0099C76.9935 32.3703 74.7234 32.12 72.1061 32.12V36.12C74.5688 36.12 76.2587 36.3696 77.262 36.7501C77.7521 36.9359 77.951 37.1061 78.0125 37.1749C78.0379 37.2032 78.0261 37.1838 78.0261 37.2H82.0261Z" fill="#8DBAAF" mask="url(#path-2-outside-1_94_56)"/>
<mask id="path-4-inside-2_94_56" fill="white">
<path fill-rule="evenodd" clip-rule="evenodd" d="M15.584 89.1209C17.4961 86.1723 19.9633 83.4464 22.9311 81.0493C30.6404 74.8226 41.0964 71.3245 51.9989 71.3245C62.9015 71.3245 73.3575 74.8226 81.0668 81.0493C84.0346 83.4464 86.5017 86.1723 88.4139 89.1209C79.0331 98.3245 66.1788 104 51.9989 104C37.819 104 24.9648 98.3245 15.584 89.1209Z"/>
</mask>
<path fill-rule="evenodd" clip-rule="evenodd" d="M15.584 89.1209C17.4961 86.1723 19.9633 83.4464 22.9311 81.0493C30.6404 74.8226 41.0964 71.3245 51.9989 71.3245C62.9015 71.3245 73.3575 74.8226 81.0668 81.0493C84.0346 83.4464 86.5017 86.1723 88.4139 89.1209C79.0331 98.3245 66.1788 104 51.9989 104C37.819 104 24.9648 98.3245 15.584 89.1209Z" fill="white"/>
<path d="M22.9311 81.0493L21.6744 79.4934L21.6744 79.4934L22.9311 81.0493ZM15.584 89.1209L13.9059 88.0327L13.0167 89.404L14.1833 90.5486L15.584 89.1209ZM81.0668 81.0493L79.8101 82.6052L79.8101 82.6052L81.0668 81.0493ZM88.4139 89.1209L89.8145 90.5486L90.9812 89.404L90.0919 88.0327L88.4139 89.1209ZM21.6744 79.4934C18.5517 82.0156 15.9393 84.8971 13.9059 88.0327L17.262 90.2091C19.0529 87.4474 21.3749 84.8771 24.1878 82.6052L21.6744 79.4934ZM51.9989 69.3245C40.6878 69.3245 29.7757 72.9501 21.6744 79.4934L24.1878 82.6052C31.5051 76.6951 41.5049 73.3245 51.9989 73.3245V69.3245ZM82.3234 79.4934C74.2222 72.9501 63.31 69.3245 51.9989 69.3245V73.3245C62.4929 73.3245 72.4928 76.6951 79.8101 82.6052L82.3234 79.4934ZM90.0919 88.0327C88.0585 84.8971 85.4462 82.0156 82.3234 79.4934L79.8101 82.6052C82.623 84.8771 84.9449 87.4474 86.7358 90.2091L90.0919 88.0327ZM87.0132 87.6933C77.9912 96.5448 65.6341 102 51.9989 102V106C66.7235 106 80.075 100.104 89.8145 90.5486L87.0132 87.6933ZM51.9989 102C38.3637 102 26.0067 96.5448 16.9846 87.6933L14.1833 90.5486C23.9229 100.104 37.2743 106 51.9989 106V102Z" fill="#8DBAAF" mask="url(#path-4-inside-2_94_56)"/>
</svg>
