<svg width="104" height="104" viewBox="0 0 104 104" fill="none" xmlns="http://www.w3.org/2000/svg">
<circle cx="52" cy="52" r="51" fill="white" stroke="#8DBAAF" stroke-width="2"/>
<mask id="path-2-outside-1_88_37" maskUnits="userSpaceOnUse" x="32" y="28" width="39" height="41" fill="black">
<rect fill="white" x="32" y="28" width="39" height="41"/>
<path d="M42.2216 41.92H47.5416V48.72H42.2216V41.92ZM55.2616 41.92H60.5416V48.72H55.2616V41.92ZM34.7016 47.08H68.1816V51.28H34.7016V47.08ZM51.3816 53.16C59.3816 53.16 64.2216 55.56 64.2216 59.84C64.2216 64.16 59.3816 66.56 51.3816 66.56C43.3416 66.56 38.5016 64.16 38.5016 59.84C38.5016 55.56 43.3416 53.16 51.3816 53.16ZM51.3816 57.16C46.4216 57.16 43.9016 58 43.9016 59.84C43.9016 61.72 46.4216 62.56 51.3816 62.56C56.3416 62.56 58.8616 61.72 58.8616 59.84C58.8616 58 56.3416 57.16 51.3816 57.16ZM51.4616 30.04C59.6216 30.04 64.8616 32.76 64.8616 37.2C64.8616 41.6 59.6216 44.24 51.4616 44.24C43.2616 44.24 38.0616 41.6 38.0616 37.2C38.0616 32.76 43.2616 30.04 51.4616 30.04ZM51.4616 34.12C46.3816 34.12 43.5416 35.12 43.5416 37.2C43.5416 39.24 46.3816 40.24 51.4616 40.24C56.5416 40.24 59.3816 39.24 59.3816 37.2C59.3816 35.12 56.5416 34.12 51.4616 34.12Z"/>
</mask>
<path d="M42.2216 41.92H47.5416V48.72H42.2216V41.92ZM55.2616 41.92H60.5416V48.72H55.2616V41.92ZM34.7016 47.08H68.1816V51.28H34.7016V47.08ZM51.3816 53.16C59.3816 53.16 64.2216 55.56 64.2216 59.84C64.2216 64.16 59.3816 66.56 51.3816 66.56C43.3416 66.56 38.5016 64.16 38.5016 59.84C38.5016 55.56 43.3416 53.16 51.3816 53.16ZM51.3816 57.16C46.4216 57.16 43.9016 58 43.9016 59.84C43.9016 61.72 46.4216 62.56 51.3816 62.56C56.3416 62.56 58.8616 61.72 58.8616 59.84C58.8616 58 56.3416 57.16 51.3816 57.16ZM51.4616 30.04C59.6216 30.04 64.8616 32.76 64.8616 37.2C64.8616 41.6 59.6216 44.24 51.4616 44.24C43.2616 44.24 38.0616 41.6 38.0616 37.2C38.0616 32.76 43.2616 30.04 51.4616 30.04ZM51.4616 34.12C46.3816 34.12 43.5416 35.12 43.5416 37.2C43.5416 39.24 46.3816 40.24 51.4616 40.24C56.5416 40.24 59.3816 39.24 59.3816 37.2C59.3816 35.12 56.5416 34.12 51.4616 34.12Z" fill="white"/>
<path d="M42.2216 41.92V39.92H40.2216V41.92H42.2216ZM47.5416 41.92H49.5416V39.92H47.5416V41.92ZM47.5416 48.72V50.72H49.5416V48.72H47.5416ZM42.2216 48.72H40.2216V50.72H42.2216V48.72ZM55.2616 41.92V39.92H53.2616V41.92H55.2616ZM60.5416 41.92H62.5416V39.92H60.5416V41.92ZM60.5416 48.72V50.72H62.5416V48.72H60.5416ZM55.2616 48.72H53.2616V50.72H55.2616V48.72ZM34.7016 47.08V45.08H32.7016V47.08H34.7016ZM68.1816 47.08H70.1816V45.08H68.1816V47.08ZM68.1816 51.28V53.28H70.1816V51.28H68.1816ZM34.7016 51.28H32.7016V53.28H34.7016V51.28ZM42.2216 43.92H47.5416V39.92H42.2216V43.92ZM45.5416 41.92V48.72H49.5416V41.92H45.5416ZM47.5416 46.72H42.2216V50.72H47.5416V46.72ZM44.2216 48.72V41.92H40.2216V48.72H44.2216ZM55.2616 43.92H60.5416V39.92H55.2616V43.92ZM58.5416 41.92V48.72H62.5416V41.92H58.5416ZM60.5416 46.72H55.2616V50.72H60.5416V46.72ZM57.2616 48.72V41.92H53.2616V48.72H57.2616ZM34.7016 49.08H68.1816V45.08H34.7016V49.08ZM66.1816 47.08V51.28H70.1816V47.08H66.1816ZM68.1816 49.28H34.7016V53.28H68.1816V49.28ZM36.7016 51.28V47.08H32.7016V51.28H36.7016ZM51.3816 55.16C55.2298 55.16 58.0783 55.7448 59.8879 56.6741C61.6134 57.5603 62.2216 58.6349 62.2216 59.84H66.2216C66.2216 56.7651 64.4097 54.4997 61.7153 53.1159C59.1048 51.7752 55.5334 51.16 51.3816 51.16V55.16ZM62.2216 59.84C62.2216 61.0729 61.6048 62.1553 59.8847 63.0425C58.0769 63.9751 55.2302 64.56 51.3816 64.56V68.56C55.5329 68.56 59.1062 67.9449 61.7184 66.5975C64.4184 65.2047 66.2216 62.9271 66.2216 59.84H62.2216ZM51.3816 64.56C47.5116 64.56 44.6546 63.9747 42.8418 63.0417C41.1174 62.1542 40.5016 61.072 40.5016 59.84H36.5016C36.5016 62.928 38.3058 65.2058 41.0113 66.5983C43.6285 67.9453 47.2115 68.56 51.3816 68.56V64.56ZM40.5016 59.84C40.5016 58.6358 41.1087 57.5614 42.8386 56.6749C44.6532 55.7451 47.5121 55.16 51.3816 55.16V51.16C47.211 51.16 43.6299 51.7749 41.0145 53.1151C38.3144 54.4986 36.5016 56.7642 36.5016 59.84H40.5016ZM51.3816 55.16C48.8466 55.16 46.6979 55.3672 45.1175 55.9235C44.3158 56.2057 43.5195 56.6255 42.908 57.2833C42.2533 57.9875 41.9016 58.8703 41.9016 59.84H45.9016C45.9016 59.8396 45.9016 59.8495 45.8983 59.8675C45.8949 59.8858 45.889 59.9077 45.8798 59.931C45.8597 59.9819 45.8368 60.0077 45.8376 60.0067C45.8536 59.9895 45.9973 59.8543 46.4456 59.6965C47.3653 59.3728 48.9565 59.16 51.3816 59.16V55.16ZM41.9016 59.84C41.9016 60.8073 42.2445 61.6943 42.8968 62.4077C43.5076 63.0757 44.3056 63.5025 45.1108 63.7892C46.6952 64.3532 48.848 64.56 51.3816 64.56V60.56C48.9551 60.56 47.3679 60.3468 46.4523 60.0208C46.0075 59.8625 45.8656 59.7268 45.8488 59.7085C45.8471 59.7066 45.8671 59.7293 45.8845 59.7742C45.9018 59.819 45.9016 59.8471 45.9016 59.84H41.9016ZM51.3816 64.56C53.9151 64.56 56.0679 64.3532 57.6523 63.7892C58.4575 63.5025 59.2556 63.0757 59.8663 62.4077C60.5186 61.6943 60.8616 60.8073 60.8616 59.84H56.8616C56.8616 59.8471 56.8613 59.819 56.8786 59.7742C56.896 59.7293 56.9161 59.7066 56.9143 59.7085C56.8976 59.7268 56.7556 59.8625 56.3108 60.0208C55.3952 60.3468 53.808 60.56 51.3816 60.56V64.56ZM60.8616 59.84C60.8616 58.8703 60.5098 57.9875 59.8551 57.2833C59.2436 56.6255 58.4473 56.2057 57.6456 55.9235C56.0653 55.3672 53.9165 55.16 51.3816 55.16V59.16C53.8066 59.16 55.3979 59.3728 56.3175 59.6965C56.7658 59.8543 56.9095 59.9895 56.9255 60.0067C56.9264 60.0077 56.9034 59.9819 56.8833 59.931C56.8741 59.9077 56.8682 59.8858 56.8649 59.8675C56.8616 59.8495 56.8616 59.8396 56.8616 59.84H60.8616ZM51.4616 32.04C55.3605 32.04 58.3492 32.6961 60.2849 33.7221C62.1686 34.7206 62.8616 35.9295 62.8616 37.2H66.8616C66.8616 34.0305 64.9345 31.6594 62.1582 30.1879C59.4339 28.7439 55.7226 28.04 51.4616 28.04V32.04ZM62.8616 37.2C62.8616 38.4359 62.1856 39.6158 60.2998 40.5951C58.3616 41.6016 55.3682 42.24 51.4616 42.24V46.24C55.715 46.24 59.4215 45.5584 62.1433 44.1449C64.9176 42.7042 66.8616 40.3641 66.8616 37.2H62.8616ZM51.4616 42.24C47.5334 42.24 44.5414 41.6011 42.6099 40.5959C40.7344 39.6199 40.0616 38.442 40.0616 37.2H36.0616C36.0616 40.358 37.9887 42.7001 40.7633 44.1441C43.4817 45.5589 47.1897 46.24 51.4616 46.24V42.24ZM40.0616 37.2C40.0616 35.9234 40.7512 34.7165 42.6248 33.7213C44.5538 32.6966 47.541 32.04 51.4616 32.04V28.04C47.1821 28.04 43.4693 28.7434 40.7483 30.1887C37.9719 31.6635 36.0616 34.0366 36.0616 37.2H40.0616ZM51.4616 32.12C48.8443 32.12 46.5742 32.3703 44.8875 33.0099C43.1801 33.6573 41.5416 34.9596 41.5416 37.2H45.5416C45.5416 37.1838 45.5298 37.2032 45.5551 37.1749C45.6167 37.1061 45.8155 36.9359 46.3057 36.7501C47.3089 36.3696 48.9988 36.12 51.4616 36.12V32.12ZM41.5416 37.2C41.5416 39.4381 43.2042 40.7231 44.8936 41.3574C46.5766 41.9893 48.8431 42.24 51.4616 42.24V38.24C49 38.24 47.3065 37.9907 46.2996 37.6126C45.8064 37.4275 45.6062 37.2581 45.5453 37.1911C45.5211 37.1645 45.5261 37.1623 45.5346 37.184C45.5436 37.2068 45.5416 37.2177 45.5416 37.2H41.5416ZM51.4616 42.24C54.08 42.24 56.3465 41.9893 58.0296 41.3574C59.719 40.7231 61.3816 39.4381 61.3816 37.2H57.3816C57.3816 37.2177 57.3795 37.2068 57.3885 37.184C57.3971 37.1623 57.402 37.1645 57.3778 37.1911C57.3169 37.2581 57.1167 37.4275 56.6236 37.6126C55.6166 37.9907 53.9231 38.24 51.4616 38.24V42.24ZM61.3816 37.2C61.3816 34.9596 59.743 33.6573 58.0357 33.0099C56.3489 32.3703 54.0788 32.12 51.4616 32.12V36.12C53.9243 36.12 55.6142 36.3696 56.6175 36.7501C57.1076 36.9359 57.3065 37.1061 57.368 37.1749C57.3934 37.2032 57.3816 37.1838 57.3816 37.2H61.3816Z" fill="#8DBAAF" mask="url(#path-2-outside-1_88_37)"/>
<mask id="path-4-inside-2_88_37" fill="white">
<path fill-rule="evenodd" clip-rule="evenodd" d="M15.584 89.1209C17.4961 86.1723 19.9633 83.4464 22.9311 81.0493C30.6404 74.8226 41.0964 71.3245 51.9989 71.3245C62.9015 71.3245 73.3575 74.8226 81.0668 81.0493C84.0346 83.4464 86.5017 86.1723 88.4139 89.1209C79.0331 98.3245 66.1788 104 51.9989 104C37.819 104 24.9648 98.3245 15.584 89.1209Z"/>
</mask>
<path fill-rule="evenodd" clip-rule="evenodd" d="M15.584 89.1209C17.4961 86.1723 19.9633 83.4464 22.9311 81.0493C30.6404 74.8226 41.0964 71.3245 51.9989 71.3245C62.9015 71.3245 73.3575 74.8226 81.0668 81.0493C84.0346 83.4464 86.5017 86.1723 88.4139 89.1209C79.0331 98.3245 66.1788 104 51.9989 104C37.819 104 24.9648 98.3245 15.584 89.1209Z" fill="white"/>
<path d="M22.9311 81.0493L21.6744 79.4934L21.6744 79.4934L22.9311 81.0493ZM15.584 89.1209L13.9059 88.0327L13.0167 89.404L14.1833 90.5486L15.584 89.1209ZM81.0668 81.0493L79.8101 82.6052L79.8101 82.6052L81.0668 81.0493ZM88.4139 89.1209L89.8145 90.5486L90.9812 89.404L90.0919 88.0327L88.4139 89.1209ZM21.6744 79.4934C18.5517 82.0156 15.9393 84.8971 13.9059 88.0327L17.262 90.2091C19.0529 87.4474 21.3749 84.8771 24.1878 82.6052L21.6744 79.4934ZM51.9989 69.3245C40.6878 69.3245 29.7757 72.9501 21.6744 79.4934L24.1878 82.6052C31.5051 76.6951 41.5049 73.3245 51.9989 73.3245V69.3245ZM82.3234 79.4934C74.2222 72.9501 63.31 69.3245 51.9989 69.3245V73.3245C62.4929 73.3245 72.4928 76.6951 79.8101 82.6052L82.3234 79.4934ZM90.0919 88.0327C88.0585 84.8971 85.4462 82.0156 82.3234 79.4934L79.8101 82.6052C82.623 84.8771 84.9449 87.4474 86.7358 90.2091L90.0919 88.0327ZM87.0132 87.6933C77.9912 96.5448 65.6341 102 51.9989 102V106C66.7235 106 80.075 100.104 89.8145 90.5486L87.0132 87.6933ZM51.9989 102C38.3637 102 26.0067 96.5448 16.9846 87.6933L14.1833 90.5486C23.9229 100.104 37.2743 106 51.9989 106V102Z" fill="#8DBAAF" mask="url(#path-4-inside-2_88_37)"/>
</svg>
