<svg width="34" height="34" viewBox="0 0 34 34" fill="none" xmlns="http://www.w3.org/2000/svg">
<path d="M4.25 17C4.25 15.3256 4.57979 13.6677 5.22054 12.1208C5.86128 10.5739 6.80044 9.16834 7.98439 7.98439C9.16834 6.80044 10.5739 5.86128 12.1208 5.22054C13.6677 4.57979 15.3256 4.25 17 4.25C18.6744 4.25 20.3323 4.57979 21.8792 5.22054C23.4261 5.86128 24.8317 6.80044 26.0156 7.98439C27.1996 9.16834 28.1387 10.5739 28.7795 12.1208C29.4202 13.6677 29.75 15.3256 29.75 17C29.75 20.3815 28.4067 23.6245 26.0156 26.0156C23.6245 28.4067 20.3815 29.75 17 29.75C13.6185 29.75 10.3755 28.4067 7.98439 26.0156C5.5933 23.6245 4.25 20.3815 4.25 17Z" stroke="#69B0B5" stroke-width="2.5" stroke-linecap="round" stroke-linejoin="round"/>
</svg>
