<svg width="34" height="34" viewBox="0 0 34 34" fill="none" xmlns="http://www.w3.org/2000/svg">
<path fill-rule="evenodd" clip-rule="evenodd" d="M16.9997 2.8335C9.17543 2.8335 2.83301 9.17591 2.83301 17.0002C2.83301 24.8244 9.17543 31.1668 16.9997 31.1668C24.8239 31.1668 31.1663 24.8244 31.1663 17.0002C31.1663 9.17591 24.8239 2.8335 16.9997 2.8335ZM16.9997 11.3335C15.4968 11.3335 14.0554 11.9305 12.9927 12.9932C11.93 14.0559 11.333 15.4973 11.333 17.0002C11.333 18.5031 11.93 19.9444 12.9927 21.0071C14.0554 22.0698 15.4968 22.6668 16.9997 22.6668C18.5026 22.6668 19.9439 22.0698 21.0066 21.0071C22.0693 19.9444 22.6663 18.5031 22.6663 17.0002C22.6663 15.4973 22.0693 14.0559 21.0066 12.9932C19.9439 11.9305 18.5026 11.3335 16.9997 11.3335Z" fill="#69B0B5"/>
</svg>
