<svg width="104" height="104" viewBox="0 0 104 104" fill="none" xmlns="http://www.w3.org/2000/svg">
<circle cx="52" cy="52" r="49.5" fill="white" stroke="#8DBAAF" stroke-width="5"/>
<path d="M38.0823 42.38H46.0623V52.58H38.0823V42.38ZM57.6423 42.38H65.5623V52.58H57.6423V42.38ZM26.8023 50.12H77.0223V56.42H26.8023V50.12ZM51.8223 59.24C63.8223 59.24 71.0823 62.84 71.0823 69.26C71.0823 75.74 63.8223 79.34 51.8223 79.34C39.7623 79.34 32.5023 75.74 32.5023 69.26C32.5023 62.84 39.7623 59.24 51.8223 59.24ZM51.8223 65.24C44.3823 65.24 40.6023 66.5 40.6023 69.26C40.6023 72.08 44.3823 73.34 51.8223 73.34C59.2623 73.34 63.0423 72.08 63.0423 69.26C63.0423 66.5 59.2623 65.24 51.8223 65.24ZM51.9423 24.56C64.1823 24.56 72.0423 28.64 72.0423 35.3C72.0423 41.9 64.1823 45.86 51.9423 45.86C39.6423 45.86 31.8423 41.9 31.8423 35.3C31.8423 28.64 39.6423 24.56 51.9423 24.56ZM51.9423 30.68C44.3223 30.68 40.0623 32.18 40.0623 35.3C40.0623 38.36 44.3223 39.86 51.9423 39.86C59.5623 39.86 63.8223 38.36 63.8223 35.3C63.8223 32.18 59.5623 30.68 51.9423 30.68Z" fill="#8DBAAF"/>
</svg>
